<?xml version="1.0" standalone="no"?>
<!DOCTYPE svg PUBLIC "-//W3C//DTD SVG 1.1//EN" "http://www.w3.org/Graphics/SVG/1.1/DTD/svg11.dtd" >
<svg>
<metadata>
Created by FontForge 20090914 at Sun Nov  3 13:28:53 2013
 By www-data
\2512003 Prescott Design. All rights reserved.
</metadata>
<defs>
<font id="ClementePDaa-Hairline" horiz-adv-x="494" >
  <font-face 
    font-family="ClementePDaa"
    font-weight="400"
    font-stretch="normal"
    units-per-em="1000"
    panose-1="0 0 0 0 0 0 0 0 0 0"
    ascent="800"
    descent="-200"
    x-height="514"
    cap-height="720"
    bbox="-336.002 -223.006 1045 931.002"
    underline-thickness="20"
    underline-position="-34"
    unicode-range="U+000D-U+FB02"
  />
<missing-glyph horiz-adv-x="278" 
 />
    <glyph glyph-name=".notdef" horiz-adv-x="278" 
 />
    <glyph glyph-name="Eth" 
d="M437 360c0 48 -5.33398 92.835 -16.001 134.502s-27.5 77.667 -50.5 108s-52.833 54.166 -89.5 71.499s-81 26 -133 26h-74v-318h187v-20h-187v-342h53c50.667 0 95.334 8.66699 134.001 26s71 41.166 97 71.499s45.667 66.333 59 108s20 86.5 20 134.5zM456.999 360.002
c0 -52.667 -7.33203 -101 -21.999 -145s-36.167 -82 -64.5 -114s-63.333 -56.833 -105 -74.5s-89.5 -26.5 -143.5 -26.5h-68v362h-64v20h64v338h99c54 0 100.167 -9.5 138.5 -28.5s69.666 -44.667 93.999 -77s42.333 -70.333 54 -114s17.5 -90.5 17.5 -140.5z" />
    <glyph glyph-name="Eth" 
d="M437 360c0 48 -5.33398 92.835 -16.001 134.502s-27.5 77.667 -50.5 108s-52.833 54.166 -89.5 71.499s-81 26 -133 26h-74v-318h187v-20h-187v-342h53c50.667 0 95.334 8.66699 134.001 26s71 41.166 97 71.499s45.667 66.333 59 108s20 86.5 20 134.5zM456.999 360.002
c0 -52.667 -7.33203 -101 -21.999 -145s-36.167 -82 -64.5 -114s-63.333 -56.833 -105 -74.5s-89.5 -26.5 -143.5 -26.5h-68v362h-64v20h64v338h99c54 0 100.167 -9.5 138.5 -28.5s69.666 -44.667 93.999 -77s42.333 -70.333 54 -114s17.5 -90.5 17.5 -140.5z" />
    <glyph glyph-name="nonmarkingreturn" unicode="&#xd;" horiz-adv-x="0" 
 />
    <glyph glyph-name="space" unicode=" " horiz-adv-x="278" 
 />
    <glyph glyph-name="exclam" unicode="!" horiz-adv-x="128" 
d="M91 15c0 -7.33301 -2.66699 -13.666 -8 -18.999s-11.666 -8 -18.999 -8s-13.666 2.66699 -18.999 8s-8 11.666 -8 18.999s2.66699 13.666 8 18.999s11.666 8 18.999 8s13.666 -2.66699 18.999 -8s8 -11.666 8 -18.999zM74 87h-20l-5 633h30z" />
    <glyph glyph-name="quotedbl" unicode="&#x22;" horiz-adv-x="202" 
d="M54 495v225h20v-225h-20zM128 495v225h20v-225h-20z" />
    <glyph glyph-name="numbersign" unicode="#" horiz-adv-x="582" 
d="M218 445l-24 -170h170l24 170h-170zM579 445h-170l-24 -170h170l-3 -20h-170l-36 -255h-21l36 255h-170l-36 -255h-21l36 255h-170l3 20h170l24 170h-170l3 20h170l35 255h21l-35 -255h170l35 255h21l-35 -255h170z" />
    <glyph glyph-name="dollar" unicode="$" horiz-adv-x="434" 
d="M411 234c0 -25.333 -5.33789 -46.9951 -16.0049 -64.9951s-24.667 -32.667 -42 -44s-36.833 -19.833 -58.5 -25.5s-43.5 -8.5 -65.5 -8.5v-91h-20v91c-62.667 2.66699 -110.334 19 -143.001 49s-49 76.333 -49 139h20c0 -57.333 16.333 -99.666 49 -126.999
s79 -41 139 -41c18.667 0 37.834 2.16699 57.501 6.5s37.5 11.333 53.5 21s29.167 22.167 39.5 37.5s15.5 34 15.5 56c0 22.667 -5.16699 41 -15.5 55s-23.666 25.5 -39.999 34.5s-35.166 16.167 -56.499 21.5l-65 16l-63.5 15.5c-21 5 -40 12.333 -57 22
s-30.667 22.5 -41 38.5s-15.5 37.667 -15.5 65c0 14 3 28.667 9 44s15.833 29.166 29.5 41.499s31.5 22.666 53.5 30.999s48.667 12.5 80 12.5v91h20v-91c52 -3.33301 93 -18 123 -44s45 -66 45 -120h-20c0 26 -4 48 -12 66s-19.333 32.833 -34 44.5
s-32.167 20.167 -52.5 25.5s-42.833 8 -67.5 8c-36 0 -64.333 -4.83301 -85 -14.5s-36 -20.834 -46 -33.501s-16.333 -24.834 -19 -36.501s-4 -19.834 -4 -24.501c0 -25.333 6.33301 -45.333 19 -60s28.334 -26.167 47.001 -34.5s39 -14.833 61 -19.5
s42.667 -9.33398 62 -14.001l59.5 -16.5c19.667 -5.66699 37.334 -13.5 53.001 -23.5s28.334 -22.667 38.001 -38s14.5 -35.333 14.5 -60z" />
    <glyph glyph-name="percent" unicode="%" horiz-adv-x="652" 
d="M595 157c0 46 -11 82.999 -33 110.999s-56 42 -102 42s-79.5 -14.5 -100.5 -43.5s-31.5 -65.5 -31.5 -109.5c0 -20 2.66699 -39.167 8 -57.5s13.5 -34.166 24.5 -47.499s24.833 -24 41.5 -32s36 -12 58 -12s41.5 4 58.5 12s31.167 18.833 42.5 32.5
s19.833 29.5 25.5 47.5s8.5 37 8.5 57zM615 157.999c0 -23.333 -3.33496 -45.167 -10.002 -65.5s-16.667 -38.333 -30 -54s-29.666 -28 -48.999 -37s-41.333 -13.5 -66 -13.5c-26 0 -48.667 4.66699 -68 14s-35.166 21.833 -47.499 37.5s-21.5 33.667 -27.5 54
s-9 41.5 -9 63.5c0 25.333 3.33301 48.5 10 69.5s16.5 39.167 29.5 54.5s29 27.333 48 36s40.5 13 64.5 13c50.667 0 89.167 -16.167 115.5 -48.5s39.5 -73.5 39.5 -123.5zM323.998 546.998c0 46 -11 82.999 -33 110.999s-56 42 -102 42s-79.5 -14.5 -100.5 -43.5
s-31.5 -65.5 -31.5 -109.5c0 -20 2.66699 -39.167 8 -57.5s13.5 -34.166 24.5 -47.499s24.833 -24 41.5 -32s36 -12 58 -12s41.5 4 58.5 12s31.167 18.833 42.5 32.5s19.833 29.5 25.5 47.5s8.5 37 8.5 57zM106.998 -0.00292969l-23.002 -0.000976562l445 700h-259
c24.667 -14 43.167 -34.167 55.5 -60.5s18.5 -56.833 18.5 -91.5c0 -23.333 -3.33301 -45.166 -10 -65.499s-16.667 -38.333 -30 -54s-29.666 -28 -48.999 -37s-41.333 -13.5 -66 -13.5c-26 0 -48.667 4.66699 -68 14s-35.166 21.833 -47.499 37.5s-21.5 33.667 -27.5 54
s-9 41.5 -9 63.5c0 25.333 3.33301 48.5 10 69.5s16.5 39.167 29.5 54.5s29 27.333 48 36s40.5 13 64.5 13h363v-20z" />
    <glyph glyph-name="ampersand" unicode="&#x26;" horiz-adv-x="639" 
d="M639 324c0 -23.333 -6.83008 -43.166 -20.4971 -59.499s-38.834 -24.5 -75.501 -24.5h-42c2.66699 -39.333 -1.5 -74.5 -12.5 -105.5s-27.5 -57.333 -49.5 -79s-48.833 -38.334 -80.5 -50.001s-66.5 -17.5 -104.5 -17.5c-30 0 -59 5 -87 15s-52.5 24.167 -73.5 42.5
s-37.833 40.333 -50.5 66s-19 54.5 -19 86.5c0 24 3.66699 46.833 11 68.5s17.833 41 31.5 58s30.334 30.833 50.001 41.5s41.834 17.334 66.501 20.001c-22.667 2 -43 7.83301 -61 17.5s-33.333 22 -46 37s-22.334 32.333 -29.001 52s-10 40.5 -10 62.5
c0 30 6 56.167 18 78.5s27.833 40.833 47.5 55.5s42.334 25.5 68.001 32.5s52.167 10.5 79.5 10.5c72.667 0 129.667 -20.5 171 -61.5s61.666 -98.167 60.999 -171.5h-20c0.666992 33.333 -3.83301 63.166 -13.5 89.499s-23.667 48.666 -42 66.999s-40.833 32.333 -67.5 42
s-56.334 14.5 -89.001 14.5c-24 0 -47.5 -3.16699 -70.5 -9.5s-43.667 -15.833 -62 -28.5s-33 -29 -44 -49s-16.5 -43.333 -16.5 -70c0 -26 5 -49 15 -69s23.333 -36.667 40 -50s36 -23.333 58 -30s45 -10 69 -10h22v-20h-22c-28 0 -53.833 -3.83301 -77.5 -11.5
s-44.167 -19 -61.5 -34s-31 -33.5 -41 -55.5s-15 -47.667 -15 -77s5.83301 -55.666 17.5 -78.999s27.167 -43.166 46.5 -59.499s41.666 -29 66.999 -38s51.666 -13.5 78.999 -13.5c35.333 0 67.666 5.33301 96.999 16s54 26 74 46s35 44.333 45 73s13.667 61 11 97h-60
c-19.333 0 -34.333 -2.16699 -45 -6.5s-18.667 -9.83301 -24 -16.5s-8.5 -14 -9.5 -22s-1.5 -16 -1.5 -24l-20 5c0 23.333 6.83301 43.166 20.5 59.499s38.834 24.5 75.501 24.5h122c19.333 0 34.333 2.16699 45 6.5s18.667 9.83301 24 16.5s8.5 14 9.5 22s1.5 16 1.5 24
l20 -5v0z" />
    <glyph glyph-name="quotesingle" unicode="'" horiz-adv-x="128" 
d="M54 495v225h20v-225h-20z" />
    <glyph glyph-name="parenleft" unicode="(" horiz-adv-x="173" 
d="M154 -206c-19.333 38.667 -36.333 76.499 -51 113.499s-26.834 74.5 -36.501 112.5s-17 77 -22 117s-7.5 81.667 -7.5 125c0 80 10 158.667 30 236s48.667 151.333 86 222h20c-37.333 -70.667 -66 -144.667 -86 -222s-30 -156 -30 -236
c0 -81.333 9.83301 -161.666 29.5 -240.999s48.834 -155 87.501 -227h-20z" />
    <glyph glyph-name="parenright" unicode=")" horiz-adv-x="173" 
d="M137 252c0 -80 -10 -158.666 -30 -235.999s-48.667 -151.333 -86 -222h-20c37.333 70.667 66 144.667 86 222s30 156 30 236c0 81.333 -9.83301 161.666 -29.5 240.999s-48.834 155 -87.501 227h20c19.333 -38.667 36.333 -76.667 51 -114s26.834 -75 36.501 -113
s17 -76.833 22 -116.5s7.5 -81.167 7.5 -124.5z" />
    <glyph glyph-name="asterisk" unicode="*" horiz-adv-x="302" 
d="M167 561l86 -110l-24 -18l-78 116l-78 -116l-25 18l87 110l-135 38l9 29l132 -48l-5 140h30l-5 -140l131 48l10 -29z" />
    <glyph glyph-name="plus" unicode="+" horiz-adv-x="594" 
d="M307 350v-243h-20v243h-242v20h242v243h20v-243h242v-20h-242z" />
    <glyph glyph-name="comma" unicode="," horiz-adv-x="130" 
d="M17 -105l-17 10l112 195l18 -10z" />
    <glyph glyph-name="hyphen" unicode="-" horiz-adv-x="265" 
d="M45 258v20h175v-20h-175z" />
    <glyph glyph-name="period" unicode="." horiz-adv-x="128" 
d="M91 15c0 -7.33301 -2.66699 -13.666 -8 -18.999s-11.666 -8 -18.999 -8s-13.666 2.66699 -18.999 8s-8 11.666 -8 18.999s2.66699 13.666 8 18.999s11.666 8 18.999 8s13.666 -2.66699 18.999 -8s8 -11.666 8 -18.999z" />
    <glyph glyph-name="slash" unicode="/" horiz-adv-x="335" 
d="M20 0h-20l314 720h21z" />
    <glyph glyph-name="zero" unicode="0" horiz-adv-x="556" 
d="M515 360c0 38 -3.66699 77.667 -11 119s-20 79.166 -38 113.499s-42.167 62.833 -72.5 85.5s-68.833 34 -115.5 34s-85.167 -11.333 -115.5 -34s-54.5 -51.167 -72.5 -85.5s-30.667 -72.166 -38 -113.499s-11 -81 -11 -119s3.66699 -77.667 11 -119
s20 -79.166 38 -113.499s42.167 -62.833 72.5 -85.5s68.833 -34 115.5 -34s85.167 11.333 115.5 34s54.5 51.167 72.5 85.5s30.667 72.166 38 113.499s11 81 11 119zM535 360c0 -40.667 -4 -83 -12 -127s-21.833 -84.167 -41.5 -120.5s-46 -66.166 -79 -89.499
s-74.5 -35 -124.5 -35s-91.5 11.667 -124.5 35s-59.333 53.166 -79 89.499s-33.5 76.5 -41.5 120.5s-12 86.333 -12 127s4 83 12 127s21.833 84.167 41.5 120.5s46 66.166 79 89.499s74.5 35 124.5 35s91.5 -11.667 124.5 -35s59.333 -53.166 79 -89.499
s33.5 -76.5 41.5 -120.5s12 -86.333 12 -127z" />
    <glyph glyph-name="one" unicode="1" horiz-adv-x="556" 
d="M277 0l-0.000976562 700.001h-21c-19.333 0 -34.333 -2.16699 -45 -6.5s-18.667 -9.83301 -24 -16.5s-8.5 -14 -9.5 -22s-1.5 -16 -1.5 -24l-20 5c0 23.333 6.83301 43.166 20.5 59.499s38.834 24.5 75.501 24.5h45v-720h-20z" />
    <glyph glyph-name="two" unicode="2" horiz-adv-x="556" 
d="M518 84c0 -23.333 -6.83203 -43.165 -20.499 -59.498s-38.834 -24.5 -75.501 -24.5h-377c-0.666992 28.667 5.33301 55.5 18 80.5s29.167 48.5 49.5 70.5s43.333 42.833 69 62.5s51.5 38.5 77.5 56.5s51.333 37 76 57s46.667 41 66 63s34.833 45.167 46.5 69.5
s17.5 49.833 17.5 76.5s-4.83301 50.834 -14.5 72.501s-22.834 40.167 -39.501 55.5s-36.667 27.166 -60 35.499s-48.333 12.5 -75 12.5c-35.333 0 -65.666 -6 -90.999 -18s-46 -28.333 -62 -49s-27.667 -44.834 -35 -72.501s-11 -57.167 -11 -88.5h-20
c0 37.333 4.66699 71.166 14 101.499s23.166 56.333 41.499 78s41.166 38.5 68.499 50.5s59 18 95 18c28.667 0 55.834 -4.5 81.501 -13.5s47.834 -22 66.501 -39s33.5 -37.5 44.5 -61.5s16.5 -51.333 16.5 -82c0 -28 -5.83301 -54.833 -17.5 -80.5s-27 -50 -46 -73
s-40.667 -44.667 -65 -65s-49.5 -39.5 -75.5 -57.5l-76.5 -55.5c-25 -19 -47.333 -38.5 -67 -58.5s-36 -40.5 -49 -61.5s-20.833 -42.5 -23.5 -64.5h353c19.333 0 34.333 2.16699 45 6.5s18.667 9.83301 24 16.5s8.5 14 9.5 22s1.5 16 1.5 24l20 -5v0z" />
    <glyph glyph-name="three" unicode="3" horiz-adv-x="556" 
d="M517 198c0 -32 -6.33301 -60.833 -19 -86.5s-29.5 -47.667 -50.5 -66s-45.5 -32.5 -73.5 -42.5s-57 -15 -87 -15c-38 0 -72.833 5.83301 -104.5 17.5s-58.5 28.334 -80.5 50.001s-38.5 48 -49.5 79s-15.167 66.167 -12.5 105.5h20c-2.66699 -36 1 -68.333 11 -97
s25 -53 45 -73s44.667 -35.333 74 -46s61.666 -16 96.999 -16c27.333 0 53.666 4.5 78.999 13.5s47.666 21.667 66.999 38s34.833 36.166 46.5 59.499s17.5 49.666 17.5 78.999s-5 55 -15 77s-23.667 40.5 -41 55.5s-37.833 26.333 -61.5 34s-49.5 11.5 -77.5 11.5h-22v20
h22c24 0 47 3.33301 69 10s41.333 16.667 58 30s30 30 40 50s15 43 15 69c0 26.667 -5.5 50 -16.5 70s-25.667 36.333 -44 49s-39 22.167 -62 28.5s-46.5 9.5 -70.5 9.5c-33.333 0 -63.166 -4.83301 -89.499 -14.5s-48.666 -23.667 -66.999 -42s-32.333 -40.666 -42 -66.999
s-14.167 -56.166 -13.5 -89.499h-20c-0.666992 73.333 19.666 130.5 60.999 171.5s98.333 61.5 171 61.5c27.333 0 53.833 -3.5 79.5 -10.5s48.334 -17.833 68.001 -32.5s35.5 -33.167 47.5 -55.5s18 -48.5 18 -78.5c0 -22 -3.33301 -42.833 -10 -62.5
s-16.334 -37 -29.001 -52s-28 -27.333 -46 -37s-38.333 -15.5 -61 -17.5c24.667 -2.66699 46.834 -9.33398 66.501 -20.001s36.334 -24.5 50.001 -41.5s24.167 -36.333 31.5 -58s11 -44.5 11 -68.5z" />
    <glyph glyph-name="four" unicode="4" horiz-adv-x="556" 
d="M379 695l-325 -458h325v458zM528 301c0 -23.333 -6.83203 -43.167 -20.499 -59.5s-38.834 -24.5 -75.501 -24.5h-33v-217h-20v217h-345v24l340 479h25v-483h29c19.333 0 34.333 2.16699 45 6.5s18.667 9.83301 24 16.5s8.5 14 9.5 22s1.5 16 1.5 24l20 -5v0z" />
    <glyph glyph-name="five" unicode="5" horiz-adv-x="556" 
d="M520 631c0.666992 27.333 -6.00586 45.6709 -20.0059 55.0039s-34 14 -60 14h-295l-71 -334c20 32.667 47.167 56.667 81.5 72s70.166 23 107.499 23c34.667 0 66.334 -5.83301 95.001 -17.5s53.334 -27.834 74.001 -48.501s36.834 -45.334 48.501 -74.001
s17.5 -60.334 17.5 -95.001c0 -35.333 -5.66699 -67.5 -17 -96.5s-27.166 -54 -47.499 -75s-45 -37.333 -74 -49s-61.167 -17.5 -96.5 -17.5c-36 0 -68.667 5.16699 -98 15.5s-54.333 25.166 -75 44.499s-36.5 43.333 -47.5 72s-16.167 61.334 -15.5 98.001h20
c-0.666992 -34 4 -64 14 -90s24.5 -48 43.5 -66s41.833 -31.5 68.5 -40.5s56.667 -13.5 90 -13.5c32.667 0 62.334 5.16699 89.001 15.5s49.334 25 68.001 44s33 42 43 69s15 56.833 15 89.5c0 32 -5.16699 61.167 -15.5 87.5s-25 49 -44 68s-41.667 33.667 -68 44
s-55.5 15.5 -87.5 15.5c-38.667 0 -75.167 -8.5 -109.5 -25.5s-61.166 -43.167 -80.499 -78.5h-25l81 383h315c28.667 0 52 -6.33301 70 -19s26.667 -34.334 26 -65.001z" />
    <glyph glyph-name="six" unicode="6" horiz-adv-x="556" 
d="M517 236c0 31.333 -6 60.833 -18 88.5s-28.333 51.834 -49 72.501s-44.834 37 -72.501 49s-57.167 18 -88.5 18s-60.833 -6 -88.5 -18s-51.834 -28.333 -72.501 -49s-37 -44.834 -49 -72.501s-18 -57.167 -18 -88.5s6 -60.833 18 -88.5s28.333 -51.834 49 -72.501
s44.834 -37 72.501 -49s57.167 -18 88.5 -18s60.833 6 88.5 18s51.834 28.333 72.501 49s37 44.834 49 72.501s18 57.167 18 88.5zM537 236c0 -34.667 -6.49023 -67.001 -19.4902 -97.001s-30.667 -56.167 -53 -78.5s-48.5 -40 -78.5 -53s-62.333 -19.5 -97 -19.5
c-41.333 0 -80.833 10 -118.5 30s-67.834 47.667 -90.501 83c-11.333 17.333 -20 35.833 -26 55.5s-10.667 39.834 -14 60.501s-5.33301 41.334 -6 62.001s-1 41 -1 61c0 28.667 1.66699 58.334 5 89.001s9.16602 60.667 17.499 90s19.166 56.833 32.499 82.5
s30 48.167 50 67.5s43.667 34.666 71 45.999s58.666 17 93.999 17c23.333 0 46.166 -3 68.499 -9s43.166 -15.333 62.499 -28l-12 -17c-17.333 12 -36.333 20.667 -57 26s-41.667 8 -63 8c-34.667 0 -64.834 -5.83301 -90.501 -17.5s-47.834 -27.5 -66.501 -47.5
s-34 -43.167 -46 -69.5s-21.5 -54 -28.5 -83s-11.833 -58.5 -14.5 -88.5s-4 -58.667 -4 -86v-19c5.33301 27.333 15.666 52.166 30.999 74.499s33.666 41.5 54.999 57.5s45 28.5 71 37.5s52.667 13.5 80 13.5c34 0 66 -6.5 96 -19.5s56.333 -30.833 79 -53.5
s40.5 -49 53.5 -79s19.5 -62 19.5 -96z" />
    <glyph glyph-name="seven" unicode="7" horiz-adv-x="556" 
d="M272 0l-23.001 0.000976562l255 700h-373c-19.333 0 -34.333 -2.16699 -45 -6.5s-18.667 -9.83301 -24 -16.5s-8.5 -14 -9.5 -22s-1.5 -16 -1.5 -24l-20 5c0 23.333 6.83301 43.166 20.5 59.499s38.834 24.5 75.501 24.5h400v-20z" />
    <glyph glyph-name="eight" unicode="8" horiz-adv-x="556" 
d="M475 205c0 27.333 -5.16699 53 -15.5 77s-24.333 44.833 -42 62.5s-38.5 31.667 -62.5 42s-49.667 15.5 -77 15.5s-53 -5.16699 -77 -15.5s-44.833 -24.333 -62.5 -42s-31.667 -38.5 -42 -62.5s-15.5 -49.667 -15.5 -77s5.16699 -53 15.5 -77s24.333 -44.833 42 -62.5
s38.5 -31.667 62.5 -42s49.667 -15.5 77 -15.5s53 5.16699 77 15.5s44.833 24.333 62.5 42s31.667 38.5 42 62.5s15.5 49.667 15.5 77zM423 567c0 20 -3.83301 38.833 -11.5 56.5s-18 33 -31 46s-28.333 23.333 -46 31s-36.5 11.5 -56.5 11.5s-38.833 -3.83301 -56.5 -11.5
s-33 -18 -46 -31s-23.333 -28.333 -31 -46s-11.5 -36.5 -11.5 -56.5s3.83301 -38.833 11.5 -56.5s18 -33 31 -46s28.333 -23.333 46 -31s36.5 -11.5 56.5 -11.5s38.833 3.83301 56.5 11.5s33 18 46 31s23.333 28.333 31 46s11.5 36.5 11.5 56.5zM495 205
c0 -30 -5.66699 -58.167 -17 -84.5s-26.833 -49.333 -46.5 -69s-42.667 -35.167 -69 -46.5s-54.5 -17 -84.5 -17s-58.167 5.66699 -84.5 17s-49.333 26.833 -69 46.5s-35.167 42.667 -46.5 69s-17 54.5 -17 84.5c0 24.667 3.83301 48.167 11.5 70.5s18.5 42.666 32.5 60.999
s30.5 34 49.5 47s39.833 22.833 62.5 29.5c-30.667 12.667 -55.667 32.667 -75 60s-29 58.666 -29 93.999c0 22.667 4.33301 44 13 64s20.5 37.5 35.5 52.5s32.5 26.833 52.5 35.5s41.333 13 64 13s44 -4.33301 64 -13s37.5 -20.5 52.5 -35.5s26.833 -32.5 35.5 -52.5
s13 -41.333 13 -64c0 -35.333 -9.66699 -66.666 -29 -93.999s-44.333 -47.333 -75 -60c22.667 -6.66699 43.5 -16.5 62.5 -29.5s35.5 -28.667 49.5 -47s24.833 -38.666 32.5 -60.999s11.5 -45.833 11.5 -70.5z" />
    <glyph glyph-name="nine" unicode="9" horiz-adv-x="556" 
d="M508 484c0 31.333 -6 60.833 -18 88.5s-28.167 51.834 -48.5 72.501s-44.333 37 -72 49s-57.167 18 -88.5 18c-32 0 -61.833 -6 -89.5 -18s-51.667 -28.333 -72 -49s-36.5 -44.834 -48.5 -72.501s-18 -57.167 -18 -88.5s6 -60.833 18 -88.5s28.167 -51.834 48.5 -72.501
s44.333 -37 72 -49s57.5 -18 89.5 -18c31.333 0 60.833 6 88.5 18s51.667 28.333 72 49s36.5 44.834 48.5 72.501s18 57.167 18 88.5zM537 380c0 -43.333 -4.17285 -88.166 -12.5059 -134.499s-22.666 -88.5 -42.999 -126.5s-48 -69.333 -83 -94s-78.833 -37 -131.5 -37
c-23.333 0 -46.333 3 -69 9s-43.667 15.333 -63 28l12 17c18 -12 37.333 -20.667 58 -26s41.667 -8 63 -8c34.667 0 64.834 5.83301 90.501 17.5s47.834 27.5 66.501 47.5s34 43.167 46 69.5s21.5 54 28.5 83s11.833 58.5 14.5 88.5s4 58.667 4 86v19
c-6 -27.333 -16.667 -52.166 -32 -74.499s-33.666 -41.5 -54.999 -57.5s-45 -28.5 -71 -37.5s-52.333 -13.5 -79 -13.5c-34 0 -66.167 6.5 -96.5 19.5s-56.666 30.833 -78.999 53.5s-40 49 -53 79s-19.5 62 -19.5 96c0 34.667 6.5 67 19.5 97s30.667 56.167 53 78.5
s48.5 40 78.5 53s62.333 19.5 97 19.5c41.333 0 80.833 -10 118.5 -30s67.5 -47.667 89.5 -83c10.667 -17.333 19.334 -35.833 26.001 -55.5s11.5 -39.834 14.5 -60.501s5 -41.334 6 -62.001s1.5 -41 1.5 -61z" />
    <glyph glyph-name="colon" unicode=":" horiz-adv-x="128" 
d="M91 15c0 -7.33301 -2.66699 -13.666 -8 -18.999s-11.666 -8 -18.999 -8s-13.666 2.66699 -18.999 8s-8 11.666 -8 18.999s2.66699 13.666 8 18.999s11.666 8 18.999 8s13.666 -2.66699 18.999 -8s8 -11.666 8 -18.999zM91 499c0 -7.33301 -2.66699 -13.666 -8 -18.999
s-11.666 -8 -18.999 -8s-13.666 2.66699 -18.999 8s-8 11.666 -8 18.999s2.66699 13.666 8 18.999s11.666 8 18.999 8s13.666 -2.66699 18.999 -8s8 -11.666 8 -18.999z" />
    <glyph glyph-name="semicolon" unicode=";" horiz-adv-x="128" 
d="M17 -105l-17 10l112 195l18 -10zM91 499c0 -7.33301 -2.66699 -13.666 -8 -18.999s-11.666 -8 -18.999 -8s-13.666 2.66699 -18.999 8s-8 11.666 -8 18.999s2.66699 13.666 8 18.999s11.666 8 18.999 8s13.666 -2.66699 18.999 -8s8 -11.666 8 -18.999z" />
    <glyph glyph-name="less" unicode="&#x3c;" horiz-adv-x="598" 
d="M45 348v24l508 249v-21l-490 -240l490 -240v-21z" />
    <glyph glyph-name="equal" unicode="=" horiz-adv-x="594" 
d="M45 253v20h504v-20h-504zM45 447v20h504v-20h-504z" />
    <glyph glyph-name="greater" unicode="&#x3e;" horiz-adv-x="598" 
d="M45 99v21l490 240l-490 240v21l508 -249v-24z" />
    <glyph glyph-name="question" unicode="?" horiz-adv-x="488" 
d="M271 15c0 -7.33301 -2.66699 -13.666 -8 -18.999s-11.666 -8 -18.999 -8s-13.666 2.66699 -18.999 8s-8 11.666 -8 18.999s2.66699 13.666 8 18.999s11.666 8 18.999 8s13.666 -2.66699 18.999 -8s8 -11.666 8 -18.999zM451 565c0 -25.333 -3.66699 -47.3311 -11 -65.998
s-16 -35.167 -26 -49.5s-20.667 -26.666 -32 -36.999l-29 -26.5c-18 -17.333 -33.333 -33.166 -46 -47.499s-23 -29 -31 -44s-13.667 -31.5 -17 -49.5s-5 -39 -5 -63v-107h-20v107c0 22.667 1.66699 43 5 61s8.66602 35.167 15.999 51.5s17.333 32.5 30 48.5
s28.334 33 47.001 51c4 4 11.333 10.333 22 19s21.834 20 33.501 34s21.834 30.833 30.501 50.5s13 42.167 13 67.5c0 23.333 -4.5 44.166 -13.5 62.499s-21.333 33.666 -37 45.999s-34.334 21.666 -56.001 27.999s-45.167 9.5 -70.5 9.5
c-33.333 0 -62.5 -5.33301 -87.5 -16s-45.833 -25.5 -62.5 -44.5s-29 -42 -37 -69s-11.333 -56.5 -10 -88.5h-20c-1.33301 34.667 2.66699 66.667 12 96s23.333 54.5 42 75.5s41.667 37.333 69 49s58.666 17.5 93.999 17.5c27.333 0 53 -3.66699 77 -11s44.833 -18 62.5 -32
s31.667 -31.333 42 -52s15.5 -44.334 15.5 -71.001z" />
    <glyph glyph-name="at" unicode="@" horiz-adv-x="778" 
d="M553 469c-9.33301 32 -26.334 55.502 -51.001 70.502s-53 22.5 -85 22.5s-61.5 -9 -88.5 -27s-50.167 -40.833 -69.5 -68.5s-34.333 -57.667 -45 -90s-16 -62.833 -16 -91.5c0 -18 3 -34.833 9 -50.5s14.333 -29.334 25 -41.001s23.667 -20.834 39 -27.501s32 -10 50 -10
c40.667 0 73.834 11.667 99.501 35s45.5 53 59.5 89l36.5 94.5zM740.999 423.002c0 -20 -1.83301 -39.8389 -5.5 -59.5059s-9.16699 -38.834 -16.5 -57.501c-9.33301 -23.333 -22.333 -46.666 -39 -69.999s-36 -43.666 -58 -60.999
c-15.333 -11.333 -31.666 -20.666 -48.999 -27.999s-35 -11 -53 -11c-16 0 -30.5 4.66699 -43.5 14s-19.5 22.666 -19.5 39.999c0 2 0.166992 4 0.5 6s0.833008 4.33301 1.5 7c-17.333 -24 -38.166 -41.167 -62.499 -51.5s-50.833 -15.5 -79.5 -15.5
c-20.667 0 -39.5 4 -56.5 12s-31.667 18.833 -44 32.5s-21.833 29.5 -28.5 47.5s-10 37 -10 57c0 32.667 5.83301 66.5 17.5 101.5s28.334 67 50.001 96s47.334 52.833 77.001 71.5s62.5 28 98.5 28c14.667 0 29.334 -2 44.001 -6s28.5 -9.66699 41.5 -17
s24.333 -16.666 34 -27.999s17.167 -24.333 22.5 -39l26 70h21l-114 -295c-4 -11.333 -7.83301 -23 -11.5 -35s-5.5 -23.667 -5.5 -35c0 -27.333 14.333 -41 43 -41c14 0 27.667 2.66699 41 8s25.666 12 36.999 20c18.667 12.667 35.5 28 50.5 46s27.833 37.5 38.5 58.5
s18.667 43 24 66s8 45.833 8 68.5c0 44.667 -8.16699 84.834 -24.5 120.501s-38.666 66 -66.999 91s-61.5 44.167 -99.5 57.5s-78.333 20 -121 20c-49.333 0 -95.333 -9 -138 -27s-79.834 -42.667 -111.501 -74s-56.667 -68.166 -75 -110.499s-27.5 -88.166 -27.5 -137.499
c0 -52.667 8.33301 -100.834 25 -144.501s40.5 -81 71.5 -112s68 -55.167 111 -72.5s91.167 -26 144.5 -26c60 0 116.167 15 168.5 45s95.5 69.333 129.5 118h23c-16.667 -27.333 -36.834 -52.166 -60.501 -74.499s-49.5 -41.5 -77.5 -57.5s-57.5 -28.5 -88.5 -37.5
s-62.5 -13.5 -94.5 -13.5c-56 0 -106.833 9.16699 -152.5 27.5s-84.667 44 -117 77s-57.5 72.5 -75.5 118.5s-27 96.667 -27 152c0 52 9.66699 100.5 29 145.5s45.666 84 78.999 117s72.666 59 117.999 78s94 28.5 146 28.5c45.333 0 88.166 -7.16699 128.499 -21.5
s75.5 -34.833 105.5 -61.5s53.833 -59.167 71.5 -97.5s26.5 -81.166 26.5 -128.499z" />
    <glyph glyph-name="A" unicode="A" 
d="M420 519c0 32 -3 60.3311 -9 84.998s-15.667 45.334 -29 62.001s-31.166 29.334 -53.499 38.001s-49.5 13 -81.5 13c-32.667 0 -60 -4.33301 -82 -13s-39.833 -21.5 -53.5 -38.5s-23.334 -37.667 -29.001 -62s-8.5 -52.5 -8.5 -84.5v-149h346v149zM420 -0.00195312v350
h-346v-350h-20v542c0 62.667 16.167 110.834 48.5 144.501s80.5 50.5 144.5 50.5s112.167 -16.833 144.5 -50.5s48.5 -81.834 48.5 -144.501v-542h-20z" />
    <glyph glyph-name="B" unicode="B" 
d="M437 194c0 30 -5.49805 55.8311 -16.498 77.498s-25.833 39.334 -44.5 53.001s-40.334 23.834 -65.001 30.501s-50.334 10 -77.001 10h-160v-345h157c27.333 0 53.5 3.33301 78.5 10s47 17.167 66 31.5s34 32.5 45 54.5s16.5 48 16.5 78zM415.002 539.998
c0 27.333 -4.66797 51.001 -14.001 71.001s-22.166 36.667 -38.499 50s-35.5 23.166 -57.5 29.499s-45.667 9.5 -71 9.5h-160v-315h160c23.333 0 46 3.33301 68 10s41.333 16.5 58 29.5s30 29.167 40 48.5s15 42 15 68v-1zM457.001 195.999
c0 -34.667 -6.49805 -64.335 -19.498 -89.002s-30.167 -45 -51.5 -61s-46.333 -27.667 -75 -35s-58.334 -11 -89.001 -11h-168v720h180c28 0 54.167 -3.66699 78.5 -11s45.666 -18.5 63.999 -33.5s32.666 -33.667 42.999 -56s15.5 -48.5 15.5 -78.5
c0 -22 -3.83301 -42.667 -11.5 -62s-18.167 -36.5 -31.5 -51.5s-29.166 -27.167 -47.499 -36.5s-38.5 -14.666 -60.5 -15.999c25.333 -0.666992 48.5 -5.66699 69.5 -15s39.167 -22 54.5 -38s27.333 -34.667 36 -56s13 -44.666 13 -69.999z" />
    <glyph glyph-name="C" unicode="C" horiz-adv-x="703" 
d="M666 280c-6 -42.667 -16.6709 -82.1641 -32.0039 -118.497s-35.833 -67.666 -61.5 -93.999s-56.167 -47 -91.5 -62s-75.666 -22.5 -120.999 -22.5c-52 0 -98 10.333 -138 31s-73.833 48.167 -101.5 82.5s-48.5 73.833 -62.5 118.5s-21 91 -21 139
c0 50.667 7.16699 99.167 21.5 145.5s35.666 87.166 63.999 122.499s63.5 63.333 105.5 84s90.333 31 145 31c32 0 64.833 -5.5 98.5 -16.5s64.667 -26.5 93 -46.5s52 -44.333 71 -73s29.167 -60.334 30.5 -95.001h-20c-3.33301 32.667 -13.666 62.167 -30.999 88.5
s-38.833 48.5 -64.5 66.5s-54 31.833 -85 41.5s-61.833 14.5 -92.5 14.5c-51.333 0 -96.5 -10 -135.5 -30s-72 -46.833 -99 -80.5s-47.333 -72.334 -61 -116.001s-20.5 -89.167 -20.5 -136.5c0 -45.333 6.66699 -89 20 -131s32.833 -79.333 58.5 -112
s57.334 -58.834 95.001 -78.501s80.834 -29.5 129.501 -29.5c42.667 0 80.5 7 113.5 21s61.333 33.167 85 57.5s42.834 53.5 57.501 87.5s24.667 71 30 111h20v0z" />
    <glyph glyph-name="D" unicode="D" 
d="M437 360c0 48 -5.33398 92.835 -16.001 134.502s-27.5 77.667 -50.5 108s-52.833 54.166 -89.5 71.499s-81 26 -133 26h-74v-680h53c50.667 0 95.334 8.66699 134.001 26s71 41.166 97 71.499s45.667 66.333 59 108s20 86.5 20 134.5zM456.999 360.002
c0 -52.667 -7.33203 -101 -21.999 -145s-36.167 -82 -64.5 -114s-63.333 -56.833 -105 -74.5s-89.5 -26.5 -143.5 -26.5h-68v720h99c54 0 100.167 -9.5 138.5 -28.5s69.666 -44.667 93.999 -77s42.333 -70.333 54 -114s17.5 -90.5 17.5 -140.5z" />
    <glyph glyph-name="E" unicode="E" 
d="M54 0v720h391v-20h-371v-330h344v-20h-344v-330h375v-20h-395z" />
    <glyph glyph-name="F" unicode="F" 
d="M74 700v-330h344v-20h-344v-350h-20v720h391v-20h-371z" />
    <glyph glyph-name="G" unicode="G" horiz-adv-x="720" 
d="M730 -6c-22.667 0 -39.6709 4.33691 -51.0039 13.0039s-19.5 21.334 -24.5 38.001s-7.66699 37.5 -8 62.5s-0.5 53.5 -0.5 85.5c-10.667 -31.333 -24.5 -59.833 -41.5 -85.5s-37.5 -47.834 -61.5 -66.501s-51.167 -33 -81.5 -43s-64.166 -15 -101.499 -15
c-52 0 -98 10.333 -138 31s-73.833 48.167 -101.5 82.5s-48.5 73.833 -62.5 118.5s-21 91 -21 139c0 50.667 7.16699 99.167 21.5 145.5s35.666 87.166 63.999 122.499s63.5 63.333 105.5 84s90.333 31 145 31c32 0 64.833 -5.5 98.5 -16.5s64.667 -26.5 93 -46.5
s52 -44.333 71 -73s29.167 -60.334 30.5 -95.001h-20c-3.33301 32.667 -13.666 62.167 -30.999 88.5s-38.833 48.5 -64.5 66.5s-54 31.833 -85 41.5s-61.833 14.5 -92.5 14.5c-51.333 0 -96.5 -10 -135.5 -30s-72 -46.833 -99 -80.5s-47.333 -72.334 -61 -116.001
s-20.5 -89.167 -20.5 -136.5c0 -45.333 6.66699 -89 20 -131s32.833 -79.333 58.5 -112s57.334 -58.834 95.001 -78.501s80.834 -29.5 129.501 -29.5c42.667 0 80.5 7 113.5 21s61.333 33.167 85 57.5s42.834 53.5 57.501 87.5s24.667 71 30 111h-273v20h293v-206
c0 -19.333 2.16699 -34.333 6.5 -45s9.83301 -18.667 16.5 -24s14 -8.5 22 -9.5s16 -1.5 24 -1.5z" />
    <glyph glyph-name="H" unicode="H" 
d="M420 0v350h-346v-350h-20v720h20v-350h346v350h20v-720h-20z" />
    <glyph glyph-name="I" unicode="I" horiz-adv-x="128" 
d="M54 0v720h20v-720h-20z" />
    <glyph glyph-name="J" unicode="J" 
d="M440 186c0 -30 -3.50195 -57.3301 -10.502 -81.9971s-18.167 -46 -33.5 -64s-35.5 -32 -60.5 -42s-55.5 -15 -91.5 -15c-34 0 -63 5 -87 15s-43.667 23.667 -59 41s-26.5 37.833 -33.5 61.5s-10.5 49.5 -10.5 77.5v102h20v-102c0 -58.667 14.5 -102.5 43.5 -131.5
s71.167 -43.5 126.5 -43.5c28.667 0 53.834 3.33301 75.501 10s40 17.667 55 33s26.333 35.666 34 60.999s11.5 56.666 11.5 93.999v499h-266c-19.333 0 -34.333 -2.16699 -45 -6.5s-18.667 -9.83301 -24 -16.5s-8.5 -14 -9.5 -22s-1.5 -16 -1.5 -24l-20 5
c0 23.333 6.83301 43.166 20.5 59.499s38.834 24.5 75.501 24.5h290v-534v0z" />
    <glyph glyph-name="K" unicode="K" horiz-adv-x="358" 
d="M332 0l-258 343v-343h-20v720h20v-343l258 343h26l-271 -360l271 -360h-26z" />
    <glyph glyph-name="L" unicode="L" 
d="M494 84c0 -23.333 -6.83203 -43.167 -20.499 -59.5s-38.834 -24.5 -75.501 -24.5h-344v720h20v-700h320c19.333 0 34.333 2.16699 45 6.5s18.667 9.83301 24 16.5s8.5 14 9.5 22s1.5 16 1.5 24l20 -5v0z" />
    <glyph glyph-name="M" unicode="M" horiz-adv-x="860" 
d="M786 0v518.996c0 32 -3 60.333 -9 85s-15.667 45.334 -29 62.001s-31.166 29.334 -53.499 38.001s-49.5 13 -81.5 13c-32.667 0 -60 -4.33301 -82 -13s-39.833 -21.5 -53.5 -38.5s-23.334 -37.667 -29.001 -62s-8.5 -52.5 -8.5 -84.5v-519h-20v519c0 32 -3 60.333 -9 85
s-15.667 45.334 -29 62.001s-31.166 29.334 -53.499 38.001s-49.5 13 -81.5 13c-32.667 0 -60 -4.33301 -82 -13s-39.833 -21.5 -53.5 -38.5s-23.334 -37.667 -29.001 -62s-8.5 -52.5 -8.5 -84.5v-519h-20v542c0 62.667 16.167 110.834 48.5 144.501s80.5 50.5 144.5 50.5
c49.333 0 89.333 -10.167 120 -30.5s51.667 -49.833 63 -88.5c11.333 38.667 32.333 68.167 63 88.5s70.667 30.5 120 30.5c64 0 112.167 -16.833 144.5 -50.5s48.5 -81.834 48.5 -144.501v-542h-20z" />
    <glyph glyph-name="N" unicode="N" 
d="M420 0v518.998c0 32 -3 60.333 -9 85s-15.667 45.334 -29 62.001s-31.166 29.334 -53.499 38.001s-49.5 13 -81.5 13c-32.667 0 -60 -4.33301 -82 -13s-39.833 -21.5 -53.5 -38.5s-23.334 -37.667 -29.001 -62s-8.5 -52.5 -8.5 -84.5v-519h-20v542
c0 62.667 16.167 110.834 48.5 144.501s80.5 50.5 144.5 50.5s112.167 -16.833 144.5 -50.5s48.5 -81.834 48.5 -144.501v-542h-20z" />
    <glyph glyph-name="O" unicode="O" horiz-adv-x="732" 
d="M675 360c0 47.333 -6.5 92.5 -19.5 135.5s-32.333 81 -58 114s-57.834 59.167 -96.501 78.5s-83.667 29 -135 29s-96.333 -9.66699 -135 -29s-70.834 -45.5 -96.501 -78.5s-45 -71 -58 -114s-19.5 -88.167 -19.5 -135.5s6.5 -92.5 19.5 -135.5s32.333 -81 58 -114
s57.834 -59.167 96.501 -78.5s83.667 -29 135 -29s96.333 9.66699 135 29s70.834 45.5 96.501 78.5s45 71 58 114s19.5 88.167 19.5 135.5zM695 360c0 -50 -7 -97.833 -21 -143.5s-34.833 -85.667 -62.5 -120s-62 -61.833 -103 -82.5s-88.5 -31 -142.5 -31
s-101.5 10.333 -142.5 31s-75.333 48.167 -103 82.5s-48.5 74.333 -62.5 120s-21 93.5 -21 143.5s7 97.833 21 143.5s34.833 85.667 62.5 120s62 61.833 103 82.5s88.5 31 142.5 31s101.5 -10.333 142.5 -31s75.333 -48.167 103 -82.5s48.5 -74.333 62.5 -120
s21 -93.5 21 -143.5z" />
    <glyph glyph-name="P" unicode="P" 
d="M437 525c0 56.667 -16.333 100 -49 130s-82 45 -148 45h-166v-349h166c28 0 54 3.83301 78 11.5s44.833 19 62.5 34s31.5 33.167 41.5 54.5s15 46 15 74zM457 525c0 -31.333 -5.66699 -59.168 -17 -83.501s-27 -44.666 -47 -60.999s-44 -28.666 -72 -36.999
s-58.333 -12.5 -91 -12.5h-156v-331h-20v720h186c68.667 0 122 -16.333 160 -49s57 -81.334 57 -146.001z" />
    <glyph glyph-name="Q" unicode="Q" horiz-adv-x="732" 
d="M675 360c0 47.333 -6.49902 92.4971 -19.499 135.497s-32.333 81 -58 114s-57.834 59.167 -96.501 78.5s-83.667 29 -135 29s-96.333 -9.66699 -135 -29s-70.834 -45.5 -96.501 -78.5s-45 -71 -58 -114s-19.5 -88.167 -19.5 -135.5s6.5 -92.5 19.5 -135.5
s32.333 -81 58 -114s57.834 -59.167 96.501 -78.5s83.667 -29 135 -29c46 0 89 8.83301 129 26.5s74.333 44.834 103 81.501l-107 100c-7.33301 7.33301 -16.166 14.333 -26.499 21s-21.166 10 -32.499 10c-9.33301 0 -18 -2.66699 -26 -8s-14.667 -11.666 -20 -18.999
l-12 17c7.33301 8.66699 16.166 15.834 26.499 21.501s21.166 8.5 32.499 8.5c13.333 0 25.833 -3.33301 37.5 -10s22.167 -14.667 31.5 -24l108 -100c23.333 34 40 71 50 111s15 80.333 15 121zM865.001 -21.0029c-7.33301 -8.66699 -16.166 -15.833 -26.499 -21.5
s-21.166 -8.5 -32.499 -8.5c-13.333 0 -25.833 3.33301 -37.5 10s-22.167 14.667 -31.5 24l-124 115c-31.333 -39.333 -68 -68.333 -110 -87s-87.667 -28 -137 -28c-54 0 -101.5 10.333 -142.5 31s-75.333 48.167 -103 82.5s-48.5 74.333 -62.5 120s-21 93.5 -21 143.5
s7 97.833 21 143.5s34.833 85.667 62.5 120s62 61.833 103 82.5s88.5 31 142.5 31s101.5 -10.333 142.5 -31s75.333 -48.167 103 -82.5s48.5 -74.333 62.5 -120s21 -93.5 21 -143.5c0 -43.333 -5.5 -86.166 -16.5 -128.499s-28.833 -81.5 -53.5 -117.5l123 -114
c7.33301 -7.33301 16.166 -14.333 26.499 -21s21.166 -10 32.499 -10c9.33301 0 18 2.66699 26 8s15 11.666 21 18.999l11 -17v0z" />
    <glyph glyph-name="R" unicode="R" 
d="M437 539c-0.666992 50.667 -16 90.167 -46 118.5s-79 42.5 -147 42.5h-170v-339h160c26 0 51.333 3.33301 76 10s46.5 17.334 65.5 32.001s34 33.167 45 55.5s16.5 49.166 16.5 80.499zM457 532c0 -48.667 -14.002 -88.335 -42.002 -119.002s-65 -51 -111 -61
c30.667 -4 55.334 -11.5 74.001 -22.5s33 -25 43 -42s16.5 -36.833 19.5 -59.5s4.5 -47.667 4.5 -75v-153h-20v156c0 34.667 -3.16699 63.834 -9.5 87.501s-16.833 42.834 -31.5 57.501s-34 25 -58 31s-54 9 -90 9h-162v-341h-20v720h185
c32.667 0 62.334 -3.16699 89.001 -9.5s49.5 -16.833 68.5 -31.5s33.833 -34 44.5 -58s16 -53.667 16 -89z" />
    <glyph glyph-name="S" unicode="S" horiz-adv-x="570" 
d="M547 177c0 -34 -6.50293 -63.167 -19.5029 -87.5s-30.333 -44.333 -52 -60s-46.5 -27.334 -74.5 -35.001s-57.333 -11.5 -88 -11.5c-40.667 0 -79.167 4.83301 -115.5 14.5s-68 24.834 -95 45.501s-48.333 47.167 -64 79.5s-23.167 71.166 -22.5 116.499h20
c0 -42.667 7.33301 -79 22 -109s34.5 -54.333 59.5 -73s54.333 -32.334 88 -41.001s69.5 -13 107.5 -13c28 0 54.833 3.33301 80.5 10s48.5 17 68.5 31s35.833 32 47.5 54s17.5 48.333 17.5 79c0 36 -7.83301 64.667 -23.5 86s-35.667 38.166 -60 50.499
s-51.333 21.833 -81 28.5l-85.5 20c-29.333 6.66699 -58.166 13.834 -86.499 21.501s-54 18 -77 31s-41.5 30.167 -55.5 51.5s-21 49.666 -21 84.999s7.33301 65 22 89s33.667 43.167 57 57.5s49.5 24.5 78.5 30.5s57.833 9 86.5 9c34.667 0 67 -3.83301 97 -11.5
s56.167 -20.167 78.5 -37.5s40.166 -40 53.499 -68s21 -62 23 -102h-20c-1.33301 36.667 -8.16602 67.667 -20.499 93s-28.666 45.833 -48.999 61.5s-44.5 27 -72.5 34s-58 10.5 -90 10.5c-25.333 0 -51.166 -2.66699 -77.499 -8s-50.333 -14.166 -72 -26.499
s-39.5 -29.166 -53.5 -50.499s-21 -48 -21 -80s7.16699 -57.833 21.5 -77.5s33 -35.5 56 -47.5s49.167 -21.5 78.5 -28.5l90 -21.5c33.333 -8 64.833 -16 94.5 -24s55.5 -18.833 77.5 -32.5s39.5 -31.667 52.5 -54s19.5 -52.166 19.5 -89.499z" />
    <glyph glyph-name="T" unicode="T" 
d="M257 700l-0.000976562 -699.999h-20v700h-137c-19.333 0 -34.333 -2.16699 -45 -6.5s-18.667 -9.83301 -24 -16.5s-8.5 -14 -9.5 -22s-1.5 -16 -1.5 -24l-20 5c0 23.333 6.83301 43.166 20.5 59.499s38.834 24.5 75.501 24.5h398v-20h-237z" />
    <glyph glyph-name="U" unicode="U" 
d="M440 178c0 -62.667 -16.166 -110.832 -48.499 -144.499s-80.5 -50.5 -144.5 -50.5s-112.167 16.833 -144.5 50.5s-48.5 81.834 -48.5 144.501v542h20v-519c0 -32 3 -60.333 9 -85s15.667 -45.334 29 -62.001s31.166 -29.334 53.499 -38.001s49.5 -13 81.5 -13
c32.667 0 60 4.33301 82 13s39.667 21.5 53 38.5s23 37.667 29 62s9 52.5 9 84.5v519h20v-542v0z" />
    <glyph glyph-name="V" unicode="V" horiz-adv-x="547" 
d="M285 0h-23l-262 720h23l251 -688l250 688h23z" />
    <glyph glyph-name="W" unicode="W" horiz-adv-x="860" 
d="M806 178c0 -62.667 -16.165 -110.83 -48.498 -144.497s-80.5 -50.5 -144.5 -50.5c-49.333 0 -89.333 10.167 -120 30.5s-51.667 49.833 -63 88.5c-11.333 -38.667 -32.333 -68.167 -63 -88.5s-70.667 -30.5 -120 -30.5c-64 0 -112.167 16.833 -144.5 50.5
s-48.5 81.834 -48.5 144.501v542h20v-519c0 -32 3 -60.333 9 -85s15.667 -45.334 29 -62.001s31.166 -29.334 53.499 -38.001s49.5 -13 81.5 -13c32.667 0 60 4.33301 82 13s39.667 21.5 53 38.5s23 37.667 29 62s9 52.5 9 84.5v519h20v-519c0 -32 3 -60.333 9 -85
s15.667 -45.334 29 -62.001s31.166 -29.334 53.499 -38.001s49.5 -13 81.5 -13c32.667 0 60 4.33301 82 13s39.667 21.5 53 38.5s23 37.667 29 62s9 52.5 9 84.5v519h20v-542v0z" />
    <glyph glyph-name="X" unicode="X" horiz-adv-x="569" 
d="M543 0l-259 343l-258 -343h-26l271 360l-271 360h26l258 -343l259 343h26l-272 -360l272 -360h-26z" />
    <glyph glyph-name="Y" unicode="Y" 
d="M440 545c0 -60.667 -15.3301 -107.832 -45.9971 -141.499s-76.334 -51.5 -137.001 -53.5v-350h-20v350c-60.667 2 -106.334 19.833 -137.001 53.5s-46 80.834 -46 141.501v175h20v-152c0 -32 3 -60.333 9 -85s15.667 -45.334 29 -62.001s31.166 -29.334 53.499 -38.001
s49.5 -13 81.5 -13c32.667 0 60 4.33301 82 13s39.667 21.5 53 38.5s23 37.667 29 62s9 52.5 9 84.5v152h20v-175v0z" />
    <glyph glyph-name="Z" unicode="Z" horiz-adv-x="519" 
d="M529 84c0 -23.333 -6.83203 -43.167 -20.499 -59.5s-38.834 -24.5 -75.501 -24.5h-433v27l504 673h-471v20h491v-27l-504 -673h409c19.333 0 34.333 2.16699 45 6.5s18.667 9.83301 24 16.5s8.5 14 9.5 22s1.5 16 1.5 24l20 -5v0z" />
    <glyph glyph-name="bracketleft" unicode="[" horiz-adv-x="212" 
d="M54 -206v926h113v-20h-93v-886h93v-20h-113z" />
    <glyph glyph-name="backslash" unicode="\" horiz-adv-x="335" 
d="M315 0l-315 720h20l315 -720h-20z" />
    <glyph glyph-name="bracketright" unicode="]" horiz-adv-x="212" 
d="M45 -206v20h93v886h-93v20h113v-926h-113z" />
    <glyph glyph-name="asciicircum" unicode="^" horiz-adv-x="482" 
d="M462 267l-221 433l-221 -433h-20l231 453h20l231 -453h-20z" />
    <glyph glyph-name="underscore" unicode="_" horiz-adv-x="500" 
d="M0 -125v50h500v-50h-500z" />
    <glyph glyph-name="grave" unicode="`" horiz-adv-x="0" 
d="M191 709h29l126 -144h-15z" />
    <glyph glyph-name="a" unicode="a" horiz-adv-x="527" 
d="M453 358c0 20.667 -5.16699 39.999 -15.5 57.999s-23.833 33.667 -40.5 47s-35.5 23.833 -56.5 31.5s-42.167 11.5 -63.5 11.5c-41.333 0 -76 -7.83301 -104 -23.5s-50.5 -36 -67.5 -61s-29.333 -53 -37 -84s-11.5 -61.5 -11.5 -91.5c0 -31.333 4.5 -61.333 13.5 -90
s22.167 -54 39.5 -76s39 -39.5 65 -52.5s56 -19.5 90 -19.5c25.333 0 49.333 3.83301 72 11.5s42.667 18.834 60 33.501s31 32.167 41 52.5s15 43.5 15 69.5v183zM453 -0.000976562v98.9971c-16.667 -35.333 -41.167 -62.666 -73.5 -81.999s-70.5 -29 -114.5 -29
c-36.667 0 -69.167 6.83301 -97.5 20.5s-52.166 32.334 -71.499 56.001s-34 51 -44 82s-15 64.167 -15 99.5c0 37.333 4.83301 72.833 14.5 106.5s24.334 63.334 44.001 89.001s44.5 46.167 74.5 61.5s65.667 23 107 23c37.333 0 71.666 -8.5 102.999 -25.5
s55.666 -42.167 72.999 -75.5v89h20v-514h-20z" />
    <glyph glyph-name="b" unicode="b" horiz-adv-x="527" 
d="M470 246c0 30 -3.83301 60.501 -11.5 91.501s-20 59 -37 84s-39.667 45.333 -68 61s-62.833 23.5 -103.5 23.5c-21.333 0 -42.5 -3.83301 -63.5 -11.5s-39.833 -18.167 -56.5 -31.5s-30.167 -29 -40.5 -47s-15.5 -37.333 -15.5 -58v-183c0 -26 5 -49.167 15 -69.5
s23.667 -37.833 41 -52.5s37.333 -25.834 60 -33.501s46.667 -11.5 72 -11.5c34 0 64 6.5 90 19.5s47.667 30.5 65 52.5s30.5 47.333 39.5 76s13.5 58.667 13.5 90zM490 246.001c0 -35.333 -5 -68.4971 -15 -99.4971s-24.667 -58.333 -44 -82
s-43.166 -42.334 -71.499 -56.001s-60.833 -20.5 -97.5 -20.5c-44 0 -82.167 9.66699 -114.5 29s-56.833 46.666 -73.5 81.999v-99h-20v720h20v-295c17.333 33.333 41.666 58.5 72.999 75.5s65.666 25.5 102.999 25.5c41.333 0 77 -7.66699 107 -23
s54.833 -35.833 74.5 -61.5s34.334 -55.334 44.001 -89.001s14.5 -69.167 14.5 -106.5z" />
    <glyph glyph-name="c" unicode="c" horiz-adv-x="510" 
d="M473 175c-2.66699 -28.667 -9.66797 -54.501 -21.001 -77.501s-26 -42.667 -44 -59s-39.167 -28.833 -63.5 -37.5s-50.833 -13 -79.5 -13c-37.333 0 -70.166 7 -98.499 21s-52 32.833 -71 56.5s-33.5 51 -43.5 82s-15 63.833 -15 98.5c0 37.333 4.83301 73 14.5 107
s24.334 63.833 44.001 89.5s44.5 46 74.5 61s65.667 22.5 107 22.5c25.333 0 49.333 -4 72 -12s42.667 -19.167 60 -33.5s31.5 -31.833 42.5 -52.5s18.167 -44 21.5 -70h-20c-7.33301 46.667 -26.833 83 -58.5 109s-70.834 39 -117.501 39c-38 0 -70.833 -7 -98.5 -21
s-50.5 -33 -68.5 -57s-31.333 -51.667 -40 -83s-13 -64.333 -13 -99c0 -31.333 4.5 -61.333 13.5 -90s22.167 -54 39.5 -76s39 -39.5 65 -52.5s56 -19.5 90 -19.5c25.333 0 49 3.83301 71 11.5s41.333 18.834 58 33.501s30.167 32.167 40.5 52.5s16.5 43.5 18.5 69.5h20v0z
" />
    <glyph glyph-name="d" unicode="d" horiz-adv-x="527" 
d="M453 358c0 20.667 -5.16699 39.999 -15.5 57.999s-23.833 33.667 -40.5 47s-35.5 23.833 -56.5 31.5s-42.167 11.5 -63.5 11.5c-41.333 0 -76 -7.83301 -104 -23.5s-50.5 -36 -67.5 -61s-29.333 -53 -37 -84s-11.5 -61.5 -11.5 -91.5c0 -31.333 4.5 -61.333 13.5 -90
s22.167 -54 39.5 -76s39 -39.5 65 -52.5s56 -19.5 90 -19.5c25.333 0 49.333 3.83301 72 11.5s42.667 18.834 60 33.501s31 32.167 41 52.5s15 43.5 15 69.5v183zM453 -0.000976562v98.9971c-16.667 -35.333 -41.167 -62.666 -73.5 -81.999s-70.5 -29 -114.5 -29
c-36.667 0 -69.167 6.83301 -97.5 20.5s-52.166 32.334 -71.499 56.001s-34 51 -44 82s-15 64.167 -15 99.5c0 37.333 4.83301 72.833 14.5 106.5s24.334 63.334 44.001 89.001s44.5 46.167 74.5 61.5s65.667 23 107 23c37.333 0 71.666 -8.5 102.999 -25.5
s55.666 -42.167 72.999 -75.5v295h20v-720h-20z" />
    <glyph glyph-name="e" unicode="e" horiz-adv-x="510" 
d="M451 371c-9.33301 42.667 -29.667 75.833 -61 99.5s-69 35.5 -113 35.5c-38 0 -70.833 -7 -98.5 -21s-50.5 -33 -68.5 -57s-31.333 -51.667 -40 -83s-13 -64.333 -13 -99v-18l394 143v0zM472.999 174.999c-2.66699 -28.667 -9.66895 -54.501 -21.002 -77.501
s-26 -42.667 -44 -59s-39.167 -28.833 -63.5 -37.5s-50.833 -13 -79.5 -13c-37.333 0 -70.166 7 -98.499 21s-52 32.833 -71 56.5s-33.5 51 -43.5 82s-15 63.833 -15 98.5c0 37.333 4.83301 73 14.5 107s24.334 63.833 44.001 89.5s44.5 46 74.5 61s65.667 22.5 107 22.5
c25.333 0 49.333 -4 72 -12s42.667 -19.167 60 -33.5s31.5 -31.833 42.5 -52.5s18.167 -44 21.5 -70l-414 -151c3.33301 -27.333 10.333 -53 21 -77s24.5 -45 41.5 -63s37.5 -32.333 61.5 -43s51.333 -16 82 -16c25.333 0 49 3.83301 71 11.5s41.333 18.834 58 33.501
s30.167 32.167 40.5 52.5s16.5 43.5 18.5 69.5h20v0z" />
    <glyph glyph-name="f" unicode="f" horiz-adv-x="128" 
d="M187 709c-3.33301 1.33301 -8.99902 2.16602 -16.999 2.49902s-17 0.5 -27 0.5c-8 0 -16 -0.5 -24 -1.5s-15.333 -4.16699 -22 -9.5s-12.167 -13.333 -16.5 -24s-6.5 -25.667 -6.5 -45v-118h54v-20h-54v-494h-20v494h-54v20h54v122c0 36.667 8.16699 61.834 24.5 75.501
s36.166 20.5 59.499 20.5c15.333 0 25.833 -0.333008 31.5 -1l17.5 -2v-20v0z" />
    <glyph glyph-name="g" unicode="g" horiz-adv-x="519" 
d="M453 358c0 20.667 -5.16699 39.999 -15.5 57.999s-23.833 33.667 -40.5 47s-35.5 23.833 -56.5 31.5s-42.167 11.5 -63.5 11.5c-41.333 0 -76 -7.83301 -104 -23.5s-50.5 -36 -67.5 -61s-29.333 -53 -37 -84s-11.5 -61.5 -11.5 -91.5c0 -31.333 4.5 -61.333 13.5 -90
s22.167 -54 39.5 -76s39 -39.5 65 -52.5s56 -19.5 90 -19.5c25.333 0 49.333 3.83301 72 11.5s42.667 18.834 60 33.501s31 32.167 41 52.5s15 43.5 15 69.5v183zM473 -17.001c0 -70.667 -18.834 -122.672 -56.501 -156.005s-90.167 -50 -157.5 -50c-26 0 -50.667 3 -74 9
s-44 15.5 -62 28.5s-32.333 29.833 -43 50.5s-16.334 45.334 -17.001 74.001h20c0.666992 -25.333 5.83398 -47 15.501 -65s22.5 -32.667 38.5 -44s34.333 -19.666 55 -24.999s42.667 -8 66 -8c62.667 0 110.834 15 144.501 45s50.5 77 50.5 141v116
c-16.667 -35.333 -41.167 -62.666 -73.5 -81.999s-70.5 -29 -114.5 -29c-36.667 0 -69.167 6.83301 -97.5 20.5s-52.166 32.334 -71.499 56.001s-34 51 -44 82s-15 64.167 -15 99.5c0 37.333 4.83301 72.833 14.5 106.5s24.334 63.334 44.001 89.001s44.5 46.167 74.5 61.5
s65.667 23 107 23c37.333 0 71.666 -8.5 102.999 -25.5s55.666 -42.167 72.999 -75.5v89h20v-531v0z" />
    <glyph glyph-name="h" unicode="h" horiz-adv-x="498" 
d="M424 0l-0.000976562 338.001c0 52 -14.167 93 -42.5 123s-68.5 45 -120.5 45c-30.667 0 -57.667 -5.83301 -81 -17.5s-42.833 -27.334 -58.5 -47.001s-27.5 -42.5 -35.5 -68.5s-12 -53.333 -12 -82v-291h-20v720h20v-333c11.333 45.333 34 79.833 68 103.5
s73.667 35.5 119 35.5c56.667 0 101.334 -16.667 134.001 -50s49 -78.333 49 -135v-341h-20z" />
    <glyph glyph-name="i" unicode="i" horiz-adv-x="128" 
d="M54 0v514h20v-514h-20zM91 710c0 -7.33301 -2.66699 -13.666 -8 -18.999s-11.666 -8 -18.999 -8s-13.666 2.66699 -18.999 8s-8 11.666 -8 18.999s2.66699 13.666 8 18.999s11.666 8 18.999 8s13.666 -2.66699 18.999 -8s8 -11.666 8 -18.999z" />
    <glyph glyph-name="j" unicode="j" horiz-adv-x="128" 
d="M74 -17c0 -70.667 -18.834 -122.669 -56.501 -156.002s-90.167 -50 -157.5 -50c-26 0 -50.667 3 -74 9s-44 15.5 -62 28.5s-32.333 29.833 -43 50.5s-16.334 45.334 -17.001 74.001h20c0.666992 -25.333 5.83398 -47 15.501 -65s22.5 -32.667 38.5 -44
s34.333 -19.666 55 -24.999s42.667 -8 66 -8c62.667 0 110.834 15 144.501 45s50.5 77 50.5 141v531h20v-531v0zM90.999 709.998c0 -7.33301 -2.66699 -13.666 -8 -18.999s-11.666 -8 -18.999 -8s-13.666 2.66699 -18.999 8s-8 11.666 -8 18.999s2.66699 13.666 8 18.999
s11.666 8 18.999 8s13.666 -2.66699 18.999 -8s8 -11.666 8 -18.999z" />
    <glyph glyph-name="k" unicode="k" horiz-adv-x="281" 
d="M256 0l-182 240v-240h-20v720h20v-446l181 240h26l-194 -257l194 -257h-25z" />
    <glyph glyph-name="l" unicode="l" horiz-adv-x="128" 
d="M54 0v720h20v-720h-20z" />
    <glyph glyph-name="m" unicode="m" horiz-adv-x="868" 
d="M794 0l0.000976562 338.003c0 51.333 -14.167 92.166 -42.5 122.499s-68.5 45.5 -120.5 45.5c-30.667 0 -57.667 -5.83301 -81 -17.5s-42.833 -27.334 -58.5 -47.001s-27.5 -42.5 -35.5 -68.5s-12 -53.333 -12 -82v-291h-20v338c0 51.333 -14.167 92.166 -42.5 122.499
s-68.5 45.5 -120.5 45.5c-30.667 0 -57.667 -5.83301 -81 -17.5s-42.833 -27.334 -58.5 -47.001s-27.5 -42.5 -35.5 -68.5s-12 -53.333 -12 -82v-291h-20v514h20v-127c11.333 46 33.833 80.667 67.5 104s73.5 35 119.5 35c50.667 0 91.667 -13.5 123 -40.5
s50.666 -63.5 57.999 -109.5c11.333 48.667 33.166 85.834 65.499 111.501s73.5 38.5 123.5 38.5c56.667 0 101.334 -16.667 134.001 -50s49 -78.333 49 -135v-341h-20z" />
    <glyph glyph-name="n" unicode="n" horiz-adv-x="498" 
d="M424 0l-0.000976562 338.001c0 52 -14.167 93 -42.5 123s-68.5 45 -120.5 45c-30.667 0 -57.667 -5.83301 -81 -17.5s-42.833 -27.334 -58.5 -47.001s-27.5 -42.5 -35.5 -68.5s-12 -53.333 -12 -82v-291h-20v514h20v-127c11.333 45.333 34 79.833 68 103.5
s73.667 35.5 119 35.5c56.667 0 101.334 -16.667 134.001 -50s49 -78.333 49 -135v-341h-20z" />
    <glyph glyph-name="o" unicode="o" horiz-adv-x="537" 
d="M480 257c0 32 -4.5 63 -13.5 93s-22.5 56.5 -40.5 79.5s-40.167 41.5 -66.5 55.5s-56.5 21 -90.5 21c-34.667 0 -65.167 -7 -91.5 -21s-48.5 -32.5 -66.5 -55.5s-31.5 -49.5 -40.5 -79.5s-13.5 -61 -13.5 -93c0 -32.667 4.5 -64 13.5 -94s22.5 -56.5 40.5 -79.5
s40.167 -41.333 66.5 -55s56.833 -20.5 91.5 -20.5c34 0 64.167 6.83301 90.5 20.5s48.5 32 66.5 55s31.5 49.5 40.5 79.5s13.5 61.333 13.5 94zM500 257c0 -35.333 -5.00098 -69.166 -15.001 -101.499s-24.833 -61 -44.5 -86s-43.834 -44.833 -72.501 -59.5
s-62 -22 -100 -22c-37.333 0 -70.5 7.33301 -99.5 22s-53.167 34.5 -72.5 59.5s-34 53.667 -44 86s-15 66.166 -15 101.499c0 34.667 5 68.334 15 101.001s24.833 61.334 44.5 86.001s43.834 44.5 72.501 59.5s62 22.5 100 22.5c37.333 0 70.333 -7.5 99 -22.5
s52.834 -34.833 72.501 -59.5s34.5 -53.334 44.5 -86.001s15 -66.334 15 -101.001z" />
    <glyph glyph-name="p" unicode="p" horiz-adv-x="527" 
d="M470 246c0 30 -3.83301 60.501 -11.5 91.501s-20 59 -37 84s-39.667 45.333 -68 61s-62.833 23.5 -103.5 23.5c-21.333 0 -42.5 -3.83301 -63.5 -11.5s-39.833 -18.167 -56.5 -31.5s-30.167 -29 -40.5 -47s-15.5 -37.333 -15.5 -58v-183c0 -26 5 -49.167 15 -69.5
s23.667 -37.833 41 -52.5s37.333 -25.834 60 -33.501s46.667 -11.5 72 -11.5c34 0 64 6.5 90 19.5s47.667 30.5 65 52.5s30.5 47.333 39.5 76s13.5 58.667 13.5 90zM490 246.001c0 -35.333 -5 -68.4971 -15 -99.4971s-24.667 -58.333 -44 -82
s-43.166 -42.334 -71.499 -56.001s-60.833 -20.5 -97.5 -20.5c-44 0 -82.167 9.66699 -114.5 29s-56.833 46.666 -73.5 81.999v-305h-20v720h20v-89c17.333 33.333 41.666 58.5 72.999 75.5s65.666 25.5 102.999 25.5c41.333 0 77 -7.66699 107 -23
s54.833 -35.833 74.5 -61.5s34.334 -55.334 44.001 -89.001s14.5 -69.167 14.5 -106.5z" />
    <glyph glyph-name="q" unicode="q" horiz-adv-x="527" 
d="M453 358c0 20.667 -5.16699 39.999 -15.5 57.999s-23.833 33.667 -40.5 47s-35.5 23.833 -56.5 31.5s-42.167 11.5 -63.5 11.5c-41.333 0 -76 -7.83301 -104 -23.5s-50.5 -36 -67.5 -61s-29.333 -53 -37 -84s-11.5 -61.5 -11.5 -91.5c0 -31.333 4.5 -61.333 13.5 -90
s22.167 -54 39.5 -76s39 -39.5 65 -52.5s56 -19.5 90 -19.5c25.333 0 49.333 3.83301 72 11.5s42.667 18.834 60 33.501s31 32.167 41 52.5s15 43.5 15 69.5v183zM453 -206.001v304.997c-16.667 -35.333 -41.167 -62.666 -73.5 -81.999s-70.5 -29 -114.5 -29
c-36.667 0 -69.167 6.83301 -97.5 20.5s-52.166 32.334 -71.499 56.001s-34 51 -44 82s-15 64.167 -15 99.5c0 37.333 4.83301 72.833 14.5 106.5s24.334 63.334 44.001 89.001s44.5 46.167 74.5 61.5s65.667 23 107 23c37.333 0 71.666 -8.5 102.999 -25.5
s55.666 -42.167 72.999 -75.5v89h20v-720h-20z" />
    <glyph glyph-name="r" unicode="r" horiz-adv-x="277" 
d="M261 506c-30.667 0 -57.667 -5.83203 -81 -17.499s-42.833 -27.334 -58.5 -47.001s-27.5 -42.5 -35.5 -68.5s-12 -53.333 -12 -82v-291h-20v514h20v-127c11.333 46 33.833 80.667 67.5 104s73.5 35 119.5 35h16z" />
    <glyph glyph-name="s" unicode="s" horiz-adv-x="434" 
d="M411 131c0 -26 -5.50488 -47.998 -16.5049 -65.998s-25.333 -32.667 -43 -44s-37.667 -19.666 -60 -24.999s-44.5 -8 -66.5 -8c-68 0 -119.667 15.167 -155 45.5s-53 77.833 -53 142.5h20c0 -57.333 16.333 -99.666 49 -126.999s79 -41 139 -41
c18.667 0 37.834 2.16699 57.501 6.5s37.5 11.333 53.5 21s29.167 22.167 39.5 37.5s15.5 34 15.5 56c0 22.667 -5.16699 41 -15.5 55s-23.666 25.5 -39.999 34.5s-35.166 16.167 -56.499 21.5l-65 16l-63.5 15.5c-21 5 -40 12.333 -57 22s-30.667 22.5 -41 38.5
s-15.5 37.667 -15.5 65c0 14 3 28.667 9 44s16 29.333 30 42s32 23 54 31s49 12 81 12c57.333 0 102.666 -13 135.999 -39s50 -67.667 50 -125h-20c0 26 -4 48 -12 66s-19.333 32.833 -34 44.5s-32.167 20.167 -52.5 25.5s-42.833 8 -67.5 8
c-36 0 -64.333 -4.83301 -85 -14.5s-36 -20.834 -46 -33.501s-16.333 -24.834 -19 -36.501s-4 -19.834 -4 -24.501c0 -25.333 6.33301 -45.333 19 -60s28.334 -26.167 47.001 -34.5s39 -14.833 61 -19.5s42.667 -9.33398 62 -14.001l59.5 -16.5
c19.667 -5.66699 37.334 -13.5 53.001 -23.5s28.334 -22.667 38.001 -38s14.5 -35.333 14.5 -60z" />
    <glyph glyph-name="t" unicode="t" horiz-adv-x="128" 
d="M74 494v-494h-20v494h-54v20h54v138l20 41v-179h54v-20h-54z" />
    <glyph glyph-name="u" unicode="u" horiz-adv-x="498" 
d="M424 0l0.000976562 126.999c-11.333 -45.333 -34 -79.833 -68 -103.5s-73.667 -35.5 -119 -35.5c-56.667 0 -101.334 16.667 -134.001 50s-49 78.333 -49 135v341h20v-338c0 -52 14.167 -93 42.5 -123s68.5 -45 120.5 -45c30.667 0 57.667 5.83301 81 17.5
s42.833 27.334 58.5 47.001s27.5 42.5 35.5 68.5s12 53.333 12 82v291h20v-514h-20z" />
    <glyph glyph-name="v" unicode="v" horiz-adv-x="397" 
d="M210 0h-23l-187 514h23l176 -482l175 482h23z" />
    <glyph glyph-name="w" unicode="w" horiz-adv-x="868" 
d="M794 0l-0.000976562 126.997c-11.333 -46 -33.833 -80.667 -67.5 -104s-73.5 -35 -119.5 -35c-50.667 0 -91.667 13.5 -123 40.5s-50.666 63.5 -57.999 109.5c-11.333 -48.667 -33.166 -85.834 -65.499 -111.501s-73.5 -38.5 -123.5 -38.5
c-56.667 0 -101.334 16.667 -134.001 50s-49 78.333 -49 135v341h20v-338c0 -51.333 14.167 -92.166 42.5 -122.499s68.5 -45.5 120.5 -45.5c30.667 0 57.667 5.83301 81 17.5s42.833 27.334 58.5 47.001s27.5 42.5 35.5 68.5s12 53.333 12 82v291h20v-338
c0 -51.333 14.167 -92.166 42.5 -122.499s68.5 -45.5 120.5 -45.5c30.667 0 57.667 5.83301 81 17.5s42.833 27.334 58.5 47.001s27.5 42.5 35.5 68.5s12 53.333 12 82v291h20v-514h-20z" />
    <glyph glyph-name="x" unicode="x" horiz-adv-x="413" 
d="M388 0l-181 240l-182 -240h-25l194 257l-194 257h25l181 -240l182 240h25l-194 -257l194 -257h-25z" />
    <glyph glyph-name="y" unicode="y" horiz-adv-x="498" 
d="M444 -17c0 -70.667 -18.833 -122.67 -56.5 -156.003s-90.167 -50 -157.5 -50c-26 0 -50.667 3 -74 9s-44 15.5 -62 28.5s-32.333 29.833 -43 50.5s-16.334 45.334 -17.001 74.001h20c0.666992 -25.333 5.83398 -47 15.501 -65s22.5 -32.667 38.5 -44
s34.333 -19.666 55 -24.999s42.667 -8 66 -8c62.667 0 110.834 15 144.501 45s50.5 77 50.5 141v144c-11.333 -45.333 -34 -79.833 -68 -103.5s-73.667 -35.5 -119 -35.5c-56.667 0 -101.334 16.667 -134.001 50s-49 78.333 -49 135v341h20v-338c0 -52 14.167 -93 42.5 -123
s68.5 -45 120.5 -45c30.667 0 57.667 5.83301 81 17.5s42.833 27.334 58.5 47.001s27.5 42.5 35.5 68.5s12 53.333 12 82v291h20v-531v0z" />
    <glyph glyph-name="z" unicode="z" horiz-adv-x="407" 
d="M407 84c0 -23.333 -6.83203 -43.167 -20.499 -59.5s-38.834 -24.5 -75.501 -24.5h-306v25l360 469h-333v20h354v-25l-360 -469h281c19.333 0 34.333 2.16699 45 6.5s18.667 9.83301 24 16.5s8.5 14 9.5 22s1.5 16 1.5 24l20 -5v0z" />
    <glyph glyph-name="braceleft" unicode="{" horiz-adv-x="285" 
d="M190 -206c-28 0 -47.167 9.00098 -57.5 27.001s-15.5 46 -15.5 84v172c0 40.667 -4.66699 74.834 -14 102.501s-28.666 51.167 -57.999 70.5v20c10.667 2 20.5 8 29.5 18s16.667 22.667 23 38s11.166 32.666 14.499 51.999s5 39 5 59v174c0 38 5.16699 65.667 15.5 83
s29.5 26 57.5 26h50v-20h-48c-20 0 -34.167 -7.5 -42.5 -22.5s-12.5 -43.167 -12.5 -84.5v-173c0 -14.667 -1.33301 -30.334 -4 -47.001s-7 -32.667 -13 -48s-13.5 -29 -22.5 -41s-19.833 -20.667 -32.5 -26c22 -10.667 39.5 -31.167 52.5 -61.5s19.5 -64.5 19.5 -102.5
v-171c0 -22 1 -40.167 3 -54.5s5.33301 -25.5 10 -33.5s10.5 -13.5 17.5 -16.5s15.167 -4.5 24.5 -4.5h48v-20h-50z" />
    <glyph glyph-name="bar" unicode="|" horiz-adv-x="128" 
d="M54 0v720h20v-720h-20z" />
    <glyph glyph-name="braceright" unicode="}" horiz-adv-x="285" 
d="M240 250c-29.333 -19.333 -48.665 -42.834 -57.998 -70.501s-14 -61.834 -14 -102.501v-172c0 -38 -5.16699 -66 -15.5 -84s-29.5 -27 -57.5 -27h-50v20h48c9.33301 0 17.5 1.5 24.5 4.5s12.667 8.5 17 16.5s7.66602 19.167 9.99902 33.5s3.5 32.5 3.5 54.5v171
c0 38 6.5 72.167 19.5 102.5s30.5 50.833 52.5 61.5c-12.667 5.33301 -23.5 14 -32.5 26s-16.5 25.667 -22.5 41s-10.333 31.333 -13 48s-4 32.334 -4 47.001v173c0 41.333 -4.16699 69.5 -12.5 84.5s-22.5 22.5 -42.5 22.5h-48v20h50c28 0 47.167 -8.66699 57.5 -26
s15.5 -45 15.5 -83v-174c0 -20 1.66699 -39.667 5 -59s8.16602 -36.666 14.499 -51.999s14 -28 23 -38s18.833 -16 29.5 -18v-20v0z" />
    <glyph glyph-name="asciitilde" unicode="~" horiz-adv-x="520" 
d="M483 402c-6.66699 -10.667 -13.6641 -21.1689 -20.9971 -31.502s-15.333 -19.666 -24 -27.999s-18.334 -15 -29.001 -20s-22.334 -7.5 -35.001 -7.5c-16.667 0 -32.667 3.33301 -48 10l-49 22c-17.333 7.33301 -35.5 15.5 -54.5 24.5s-41.5 13.5 -67.5 13.5
c-22.667 0 -41.667 -7 -57 -21s-29 -31.667 -41 -53l-20 6c12.667 23.333 28.5 43.666 47.5 60.999s42.5 26.333 70.5 27c18 0.666992 37.167 -2.66602 57.5 -9.99902s40.166 -15.333 59.499 -24c20 -9.33301 38.833 -17.666 56.5 -24.999s33.167 -11 46.5 -11
c20 0 36.833 7.66699 50.5 23s26.167 32 37.5 50l20 -6v0z" />
    <glyph glyph-name="exclamdown" unicode="&#xa1;" horiz-adv-x="128" 
d="M49 0l5 633h20l5 -633h-30zM91 705c0 -7.33301 -2.66699 -13.666 -8 -18.999s-11.666 -8 -18.999 -8s-13.666 2.66699 -18.999 8s-8 11.666 -8 18.999s2.66699 13.666 8 18.999s11.666 8 18.999 8s13.666 -2.66699 18.999 -8s8 -11.666 8 -18.999z" />
    <glyph glyph-name="cent" unicode="&#xa2;" horiz-adv-x="510" 
d="M473 278c-5.33301 -54.667 -25 -98.502 -59 -131.502s-77.667 -51.167 -131 -54.5v-92h-20v91c-36.667 0 -69 7.16699 -97 21.5s-51.5 33.166 -70.5 56.499s-33.5 50.666 -43.5 81.999s-15 64 -15 98c0 36.667 4.5 71.5 13.5 104.5s22.833 62.167 41.5 87.5
s42.167 45.833 70.5 61.5s61.833 24.5 100.5 26.5v91h20v-91c24.667 -0.666992 47.834 -5.16699 69.501 -13.5s41 -19.666 58 -33.999s30.833 -31.666 41.5 -51.999s17.667 -43.166 21 -68.499h-20c-7.33301 46.667 -26.833 83 -58.5 109s-70.834 39 -117.501 39
c-38 0 -70.833 -7 -98.5 -21s-50.5 -33 -68.5 -57s-31.333 -51.667 -40 -83s-13 -64.333 -13 -99c0 -31.333 4.5 -61.333 13.5 -90s22.167 -54 39.5 -76s39 -39.5 65 -52.5s56 -19.5 90 -19.5c25.333 0 49 3.83301 71 11.5s41.333 18.834 58 33.501s30.167 32.167 40.5 52.5
s16.5 43.5 18.5 69.5h20v0z" />
    <glyph glyph-name="sterling" unicode="&#xa3;" horiz-adv-x="530" 
d="M535 72c-23.333 -26.667 -47.668 -48.1641 -73.001 -64.4971s-56.333 -24.5 -93 -24.5c-17.333 0 -34.166 2.66699 -50.499 8s-32.5 11 -48.5 17s-32 11.667 -48 17s-32 8 -48 8c-24 0 -46.333 -4.5 -67 -13.5s-40 -21.167 -58 -36.5l-18 20
c14.667 12.667 29.167 26.667 43.5 42s27 31.666 38 48.999s19.833 35.666 26.5 54.999s10 39.333 10 60c0 22.667 -2.5 46.167 -7.5 70.5s-13.167 46.166 -24.5 65.499h-76v20h66c-6.66699 13.333 -14.167 27.333 -22.5 42s-16 29.667 -23 45s-12.833 30.833 -17.5 46.5
s-7 31.167 -7 46.5c0 32 6.33301 59.667 19 83s29.5 42.666 50.5 57.999s45.167 26.666 72.5 33.999s55.333 11 84 11c38.667 0 73.167 -5.83301 103.5 -17.5s55.5 -28.5 75.5 -50.5s34.5 -48.5 43.5 -79.5s11.5 -65.5 7.5 -103.5h-20c3.33301 34.667 1 66.334 -7 95.001
s-21 53 -39 73s-40.833 35.5 -68.5 46.5s-59.5 16.5 -95.5 16.5c-26 0 -51.333 -3.16699 -76 -9.5s-46.667 -16.166 -66 -29.499s-34.833 -30.5 -46.5 -51.5s-17.5 -46.167 -17.5 -75.5c0 -15.333 2.5 -30.833 7.5 -46.5s11.167 -31.167 18.5 -46.5
s15.166 -30.333 23.499 -45l23.5 -42h158v-20h-149c11.333 -20.667 19.166 -42.667 23.499 -66s6.5 -46.666 6.5 -69.999c0 -39.333 -9 -74.833 -27 -106.5s-41.667 -60.167 -71 -85.5c14.667 11.333 30.834 20.166 48.501 26.499s35.834 9.5 54.501 9.5
c17.333 0 34.333 -2.66699 51 -8s33 -11 49 -17l47.5 -17c15.667 -5.33301 31.5 -8 47.5 -8c16.667 0 32 2.33301 46 7s27 10.667 39 18s23.5 16 34.5 26l33.5 32l13 -14v0z" />
    <glyph glyph-name="currency" unicode="&#xa4;" horiz-adv-x="570" 
d="M513 340c0 31.333 -6 60.833 -18 88.5s-28.333 51.834 -49 72.501s-44.834 37 -72.501 49s-57.167 18 -88.5 18s-60.833 -6 -88.5 -18s-51.834 -28.333 -72.501 -49s-37 -44.834 -49 -72.501s-18 -57.167 -18 -88.5s6 -60.833 18 -88.5s28.333 -51.834 49 -72.501
s44.834 -37 72.501 -49s57.167 -18 88.5 -18s60.833 6 88.5 18s51.834 28.333 72.501 49s37 44.834 49 72.501s18 57.167 18 88.5zM533 340c0 -30 -5.5 -59.5 -16.5 -88.5s-27.5 -55.5 -49.5 -79.5l57 -57l-14 -14l-57 57c-23.333 -21.333 -49.5 -37.5 -78.5 -48.5
s-58.833 -16.833 -89.5 -17.5c-30 0 -59.5 5.5 -88.5 16.5s-55.5 27.5 -79.5 49.5l-57 -57l-14 14l57 57c-22 24 -38.5 50.5 -49.5 79.5s-16.5 58.5 -16.5 88.5c0.666992 30.667 6.5 60.5 17.5 89.5s27.167 55.167 48.5 78.5l-57 57l14 14l57 -57c24 22 50.5 38.5 79.5 49.5
s58.5 16.5 88.5 16.5c30.667 0 60.5 -5.5 89.5 -16.5s55.167 -27.5 78.5 -49.5l57 57l14 -14l-57 -57c22 -23.333 38.5 -49.5 49.5 -78.5s16.5 -58.833 16.5 -89.5z" />
    <glyph glyph-name="yen" unicode="&#xa5;" 
d="M440 545c0 -60.667 -15.3301 -107.832 -45.9971 -141.499s-76.334 -51.5 -137.001 -53.5v-98h147v-20h-147v-102h147v-20h-147v-110h-20v110h-147v20h147v102h-147v20h147v98c-60.667 2 -106.334 19.833 -137.001 53.5s-46 80.834 -46 141.501v175h20v-152
c0 -32 3 -60.333 9 -85s15.667 -45.334 29 -62.001s31.166 -29.334 53.499 -38.001s49.5 -13 81.5 -13c32.667 0 60 4.33301 82 13s39.667 21.5 53 38.5s23 37.667 29 62s9 52.5 9 84.5v152h20v-175v0z" />
    <glyph glyph-name="brokenbar" unicode="&#xa6;" horiz-adv-x="128" 
d="M54 0v274h20v-274h-20zM54 446v274h20v-274h-20z" />
    <glyph glyph-name="section" unicode="&#xa7;" horiz-adv-x="509" 
d="M470 231c0 30.667 -7.50098 55.5 -22.501 74.5s-33.667 34.167 -56 45.5s-46.833 20.166 -73.5 26.499l-75 18.5l-49.5 11.5c-16.333 3.66699 -32.833 8.16699 -49.5 13.5c-30.667 -12 -55.834 -29.333 -75.501 -52s-29.5 -51.334 -29.5 -86.001
c0 -31.333 7.5 -56.333 22.5 -75s33.833 -33.667 56.5 -45s47.334 -20.166 74.001 -26.499l75 -18.5l49.5 -11.5c16.333 -3.66699 32.5 -8.16699 48.5 -13.5c30.667 12 55.834 29.333 75.501 52s29.5 51.334 29.5 86.001zM489.999 -60
c0 -29.333 -6.66699 -54.335 -20 -75.002s-30.5 -37.5 -51.5 -50.5s-44.5 -22.5 -70.5 -28.5s-51.667 -9 -77 -9c-34 0 -65.333 3.66699 -94 11s-53.334 19.333 -74.001 36s-36.834 37.834 -48.501 63.501s-17.5 57.167 -17.5 94.5h20c0 -33.333 5.5 -61.833 16.5 -85.5
s26 -42.834 45 -57.501s41.5 -25.334 67.5 -32.001s54.333 -10 85 -10c22 0 44.833 2.5 68.5 7.5s45.167 13.167 64.5 24.5s35.166 26.166 47.499 44.499s18.5 40.5 18.5 66.5c0 32.667 -8.16699 58.667 -24.5 78s-36.666 34.5 -60.999 45.5s-50.666 19.333 -78.999 25
s-54.5 11.5 -78.5 17.5c-24.667 6 -49.334 12.667 -74.001 20s-47 17.333 -67 30s-36.167 28.834 -48.5 48.501s-18.5 44.834 -18.5 75.501c0 36 8.5 66.333 25.5 91s40.833 45 71.5 61c-32.667 14 -57 32.167 -73 54.5s-24 51.5 -24 87.5c0 29.333 6.66699 54.333 20 75
s30.5 37.5 51.5 50.5s44.5 22.5 70.5 28.5s51.667 9 77 9c34 0 65.333 -3.66699 94 -11s53.334 -19.333 74.001 -36s36.834 -38 48.501 -64s17.5 -57.333 17.5 -94h-20c0 33.333 -5.5 61.833 -16.5 85.5s-26 42.834 -45 57.501s-41.5 25.334 -67.5 32.001s-54.333 10 -85 10
c-22 0 -44.833 -2.5 -68.5 -7.5s-45.167 -13.167 -64.5 -24.5s-35.166 -26.166 -47.499 -44.499s-18.5 -40.5 -18.5 -66.5c0 -33.333 8.16699 -59.5 24.5 -78.5s36.666 -34 60.999 -45s50.666 -19.333 78.999 -25s54.5 -11.5 78.5 -17.5
c24.667 -6 49.334 -12.833 74.001 -20.5s47 -17.667 67 -30s36.167 -28.333 48.5 -48s18.5 -44.834 18.5 -75.501c0 -36 -8.33301 -66.333 -25 -91s-40.334 -45 -71.001 -61c32.667 -14 56.834 -32.167 72.501 -54.5s23.5 -51.5 23.5 -87.5z" />
    <glyph glyph-name="dieresis" unicode="&#xa8;" horiz-adv-x="0" 
d="M373 609c0 -7.33301 -2.66699 -13.666 -8 -18.999s-11.666 -8 -18.999 -8s-13.666 2.66699 -18.999 8s-8 11.666 -8 18.999s2.66699 13.666 8 18.999s11.666 8 18.999 8s13.666 -2.66699 18.999 -8s8 -11.666 8 -18.999zM218 609c0 -7.33301 -2.66699 -13.666 -8 -18.999
s-11.666 -8 -18.999 -8s-13.666 2.66699 -18.999 8s-8 11.666 -8 18.999s2.66699 13.666 8 18.999s11.666 8 18.999 8s13.666 -2.66699 18.999 -8s8 -11.666 8 -18.999z" />
    <glyph glyph-name="copyright" unicode="&#xa9;" horiz-adv-x="822" 
d="M604 279c-5.33301 -23.333 -13.5029 -44.499 -24.5029 -63.499s-24.333 -35.333 -40 -49s-33.5 -24.334 -53.5 -32.001s-41.333 -11.5 -64 -11.5c-33.333 0 -63.666 6 -90.999 18s-50.5 28.333 -69.5 49s-33.667 45 -44 73s-15.5 58.333 -15.5 91s5 63 15 91
s24.167 52.167 42.5 72.5s41 36.166 68 47.499s57.5 17 91.5 17c23.333 0 45.5 -3.33301 66.5 -10s39.833 -16.334 56.5 -29.001s30.334 -28.5 41.001 -47.5s17.667 -40.5 21 -64.5h-20c-3.33301 22 -10 41.167 -20 57.5s-22.5 30 -37.5 41s-31.667 19.167 -50 24.5
s-37.5 8 -57.5 8c-31.333 0 -59.166 -5.33301 -83.499 -16s-45 -25.167 -62 -43.5s-29.833 -40.166 -38.5 -65.499s-13 -52.666 -13 -81.999s4.5 -56.833 13.5 -82.5s22.167 -48.167 39.5 -67.5s38.333 -34.5 63 -45.5s52.667 -16.5 84 -16.5
c36.667 0 70.167 11.667 100.5 35s50.833 57 61.5 101h20v0zM764.997 360.001c0 48.667 -9.33301 94.5 -28 137.5s-44 80.5 -76 112.5s-69.5 57.333 -112.5 76s-88.833 28 -137.5 28c-49.333 0 -95.5 -9.33301 -138.5 -28s-80.5 -44 -112.5 -76s-57.167 -69.5 -75.5 -112.5
s-27.5 -88.833 -27.5 -137.5c0 -49.333 9.16699 -95.5 27.5 -138.5s43.5 -80.5 75.5 -112.5s69.5 -57.167 112.5 -75.5s89.167 -27.5 138.5 -27.5c48.667 0 94.5 9.16699 137.5 27.5s80.5 43.5 112.5 75.5s57.333 69.5 76 112.5s28 89.167 28 138.5zM784.997 360.001
c0 -52 -9.83301 -100.667 -29.5 -146s-46.334 -84.833 -80.001 -118.5s-73.167 -60.334 -118.5 -80.001s-94 -29.5 -146 -29.5s-100.667 9.83301 -146 29.5s-84.833 46.334 -118.5 80.001s-60.334 73.167 -80.001 118.5s-29.5 94 -29.5 146s9.83301 100.667 29.5 146
s46.334 84.833 80.001 118.5s73.167 60.334 118.5 80.001s94 29.5 146 29.5s100.667 -9.83301 146 -29.5s84.833 -46.334 118.5 -80.001s60.334 -73.167 80.001 -118.5s29.5 -94 29.5 -146z" />
    <glyph glyph-name="ordfeminine" unicode="&#xaa;" horiz-adv-x="365" 
d="M289 630c0 11.333 -3 21.9971 -9 31.9971s-13.833 18.833 -23.5 26.5s-20.5 13.667 -32.5 18s-24.333 6.5 -37 6.5c-24 0 -44.167 -4.5 -60.5 -13.5s-29.5 -20.667 -39.5 -35s-17.167 -30.333 -21.5 -48s-6.5 -35.167 -6.5 -52.5c0 -18 2.66699 -35.167 8 -51.5
s13 -30.666 23 -42.999s22.5 -22.166 37.5 -29.499s32.5 -11 52.5 -11c14.667 0 28.667 2.16699 42 6.5s25 10.5 35 18.5s17.833 17.833 23.5 29.5s8.5 24.834 8.5 39.501v107zM289 415.997v47.001c-27.333 -36 -63.666 -54 -108.999 -54
c-22.667 0 -42.834 4.16699 -60.501 12.5s-32.5 19.666 -44.5 33.999s-21 30.833 -27 49.5s-9 38.334 -9 59.001c0 22 3 43.167 9 63.5s15 38.333 27 54s27.333 28 46 37s40.667 13.5 66 13.5c19.333 0 37.833 -3.83301 55.5 -11.5s33.167 -19.834 46.5 -36.501v41h20v-309
h-20z" />
    <glyph glyph-name="guillemotleft" unicode="&#xab;" horiz-adv-x="286" 
d="M45 352v16l103 139v-35l-83 -112l83 -112v-35zM138 352v16l103 139v-35l-83 -112l83 -112v-35z" />
    <glyph glyph-name="logicalnot" unicode="&#xac;" horiz-adv-x="128" 
d="M74 391v-391h-20v374l-54 -47v25l54 47v321h20v-304l54 47v-25z" />
    <glyph glyph-name="registered" unicode="&#xae;" horiz-adv-x="458" 
d="M293 590c0 17.333 -5.66797 28.668 -17.001 34.001s-24.666 8 -39.999 8h-55v-84h47c7.33301 0 14.833 0.5 22.5 1.5s14.5 3 20.5 6s11 7.16699 15 12.5s6 12.666 6 21.999h1zM312.999 590.002c0 -18 -5.33301 -31.666 -16 -40.999s-23 -15.333 -37 -18l67 -99h-25
l-64 97c-9.33301 -0.666992 -19.5 -0.833984 -30.5 -0.500977s-19.833 0.5 -26.5 0.5v-97h-20v219h75c50.667 0 76 -20.333 76 -61h1zM400.999 545.003c0 23.333 -4.5 45.166 -13.5 65.499s-21.333 38 -37 53s-33.834 26.833 -54.501 35.5s-43 13 -67 13
s-46.333 -4.33301 -67 -13s-38.834 -20.5 -54.501 -35.5s-28 -32.667 -37 -53s-13.5 -42.166 -13.5 -65.499s4.5 -45.166 13.5 -65.499s21.333 -38.166 37 -53.499s33.834 -27.333 54.501 -36s43 -13 67 -13s46.333 4.33301 67 13s38.834 20.667 54.501 36
s28 33.166 37 53.499s13.5 42.166 13.5 65.499zM420.999 545.003c0 -26 -5 -50.333 -15 -73s-23.667 -42.5 -41 -59.5s-37.666 -30.333 -60.999 -40s-48.333 -14.5 -75 -14.5s-51.667 4.83301 -75 14.5s-43.666 23 -60.999 40s-31 36.833 -41 59.5s-15 47 -15 73
s5 50.333 15 73s23.667 42.5 41 59.5s37.666 30.333 60.999 40s48.333 14.5 75 14.5s51.667 -4.83301 75 -14.5s43.666 -23 60.999 -40s31 -36.833 41 -59.5s15 -47 15 -73z" />
    <glyph glyph-name="macron" unicode="&#xaf;" horiz-adv-x="0" 
d="M152 618v20h233v-20h-233z" />
    <glyph glyph-name="degree" unicode="&#xb0;" horiz-adv-x="360" 
d="M303 589c0 16.667 -3 32.3379 -9 47.0049s-14.5 27.667 -25.5 39s-24 20.333 -39 27s-31.5 10 -49.5 10c-16.667 0 -32.334 -3.33301 -47.001 -10s-27.667 -15.834 -39 -27.501s-20.333 -24.834 -27 -39.501s-10 -30 -10 -46c0 -18 3.33301 -34.667 10 -50
s15.667 -28.5 27 -39.5s24.333 -19.667 39 -26s30.334 -9.5 47.001 -9.5c17.333 0 33.5 3.16699 48.5 9.5s28 15.166 39 26.499s19.667 24.666 26 39.999s9.5 31.666 9.5 48.999zM323 589.004c0 -20 -3.66602 -38.834 -10.999 -56.501s-17.333 -33 -30 -46
s-27.834 -23.333 -45.501 -31s-36.5 -11.5 -56.5 -11.5s-38.667 3.66699 -56 11s-32.5 17.5 -45.5 30.5s-23.167 28.333 -30.5 46s-11 36.834 -11 57.501c0 19.333 3.66699 37.666 11 54.999s17.5 32.5 30.5 45.5s28.167 23.333 45.5 31s36 11.5 56 11.5
s38.667 -3.83301 56 -11.5s32.5 -18 45.5 -31s23.167 -28.167 30.5 -45.5s11 -35.666 11 -54.999z" />
    <glyph glyph-name="plusminus" unicode="&#xb1;" horiz-adv-x="594" 
d="M45 107v20h504v-20h-504zM307 395v-198h-20v198h-242v20h242v198h20v-198h242v-20h-242z" />
    <glyph glyph-name="twosuperior" unicode="&#xb2;" horiz-adv-x="318" 
d="M300 382c0 -15.333 -4.33203 -27.999 -12.999 -37.999s-23.667 -15 -45 -15h-211c-0.666992 17.333 2.5 33.333 9.5 48s16.333 28.167 28 40.5s24.667 24 39 35s28.5 21.167 42.5 30.5l41 30.5c13.333 10.333 25.166 21.333 35.499 33s18.666 23.667 24.999 36
s9.5 25.5 9.5 39.5c0 27.333 -9.33301 49.166 -28 65.499s-42.334 24.5 -71.001 24.5c-18.667 0 -34.667 -3 -48 -9s-24.166 -14.5 -32.499 -25.5s-14.5 -24 -18.5 -39s-6 -31.167 -6 -48.5h-20c0.666992 43.333 11.334 77.833 32.001 103.5s51.667 38.5 93 38.5
c33.333 0 61.5 -9.66699 84.5 -29s34.5 -46.333 34.5 -81c0 -21.333 -5.16699 -40.5 -15.5 -57.5s-23.5 -33 -39.5 -48s-33.5 -29.167 -52.5 -42.5l-54 -39.5c-17 -13 -31.833 -26.5 -44.5 -40.5s-20.667 -29 -24 -45h189c19.333 0 30.833 3.66699 34.5 11
s5.5 16.333 5.5 27l20 -5v0z" />
    <glyph glyph-name="threesuperior" unicode="&#xb3;" horiz-adv-x="335" 
d="M298 440c0 -18 -3.66797 -34.168 -11.001 -48.501s-17 -26.5 -29 -36.5s-26 -17.833 -42 -23.5s-32.333 -8.5 -49 -8.5c-21.333 0 -41 3.16699 -59 9.5s-33.167 15.666 -45.5 27.999s-21.666 27.5 -27.999 45.5s-8.83301 38.333 -7.5 61h20
c-3.33301 -40 6.33398 -70.833 29.001 -92.5s53 -32.5 91 -32.5c14.667 0 28.667 2.33301 42 7s25.166 11.334 35.499 20.001s18.5 19 24.5 31s9 25.333 9 40c0 30 -9.66699 52.833 -29 68.5s-44 23.5 -74 23.5h-16v19h16c26 0 48.5 6.83301 67.5 20.5
s28.5 33.834 28.5 60.501c0 14 -2.83301 26 -8.5 36s-13.334 18.167 -23.001 24.5s-20.667 11.166 -33 14.499s-24.833 5 -37.5 5c-35.333 0 -63 -9.66699 -83 -29s-29.667 -47.666 -29 -84.999h-20c-0.666992 42.667 10.833 75.667 34.5 99s56.167 35 97.5 35
c15.333 0 30.333 -2 45 -6s27.667 -10 39 -18s20.5 -18.333 27.5 -31s10.5 -27.667 10.5 -45c0 -21.333 -5.66699 -40.166 -17 -56.499s-26.666 -27.833 -45.999 -34.5c22 -6.66699 39.167 -19.334 51.5 -38.001s18.5 -39.667 18.5 -63z" />
    <glyph glyph-name="acute" unicode="&#xb4;" horiz-adv-x="0" 
d="M203 565h-15l132 144h29z" />
    <glyph glyph-name="mu" unicode="&#xb5;" horiz-adv-x="498" 
d="M424 0v126.999c-11.333 -45.333 -34 -79.833 -68 -103.5s-73.667 -35.5 -119 -35.5c-39.333 0 -72.833 8 -100.5 24s-48.5 38.333 -62.5 67v-285h-20v720h20v-338c0 -52 14.167 -93 42.5 -123s68.5 -45 120.5 -45c30.667 0 57.667 5.83301 81 17.5
s42.833 27.334 58.5 47.001s27.5 42.5 35.5 68.5s12 53.333 12 82v291h20v-514h-20z" />
    <glyph glyph-name="paragraph" unicode="&#xb6;" horiz-adv-x="456" 
d="M382 -206l0.000976562 906h-103v-906h-20v540c-33.333 0 -63.5 5 -90.5 15s-50.333 23.667 -70 41s-34.834 37.5 -45.501 60.5s-16 47.5 -16 73.5c0 63.333 19.5 111.833 58.5 145.5s93.833 50.5 164.5 50.5h142v-926h-20z" />
    <glyph glyph-name="periodcentered" unicode="&#xb7;" horiz-adv-x="128" 
d="M91 360c0 -7.33301 -2.66699 -13.666 -8 -18.999s-11.666 -8 -18.999 -8s-13.666 2.66699 -18.999 8s-8 11.666 -8 18.999s2.66699 13.666 8 18.999s11.666 8 18.999 8s13.666 -2.66699 18.999 -8s8 -11.666 8 -18.999z" />
    <glyph glyph-name="cedilla" unicode="&#xb8;" horiz-adv-x="0" 
d="M359 -110c0 -14.667 -2.66602 -26.668 -7.99902 -36.001s-12.5 -16.833 -21.5 -22.5s-19.5 -9.5 -31.5 -11.5s-24.333 -3 -37 -3c-17.333 0 -33 2 -47 6s-26 7.66699 -36 11l9 19c11.333 -4 23 -7.66699 35 -11s24.667 -5 38 -5c9.33301 0 18.666 0.833008 27.999 2.5
s17.833 4.5 25.5 8.5s13.834 9.5 18.501 16.5s7 15.5 7 25.5c0 6.66699 -2 12.667 -6 18s-8.66699 9.5 -14 12.5s-11.333 5.33301 -18 7s-12.334 2.5 -17.001 2.5c-21.333 0 -39.333 -4.33301 -54 -13l-16 10l57 73h21l-42 -56c4.66699 0.666992 9 1.83398 13 3.50098
s10.667 2.5 20 2.5c19.333 0 36.833 -4.5 52.5 -13.5s23.5 -24.5 23.5 -46.5z" />
    <glyph glyph-name="onesuperior" unicode="&#xb9;" horiz-adv-x="178" 
d="M104 324l0.000976562 376h-7c-19.333 0 -30.833 -3.66699 -34.5 -11s-5.5 -16.333 -5.5 -27l-20 5c0 15.333 4.16699 28 12.5 38s23.166 15 44.499 15h30v-396h-20z" />
    <glyph glyph-name="ordmasculine" unicode="&#xba;" horiz-adv-x="375" 
d="M318 571c0 17.333 -3 34.5 -9 51.5s-14.5 32.167 -25.5 45.5s-24.5 24 -40.5 32s-34.333 12 -55 12s-39.167 -4 -55.5 -12s-30 -18.667 -41 -32s-19.5 -28.5 -25.5 -45.5s-9 -34.167 -9 -51.5c0 -18 3 -35.667 9 -53s14.5 -32.666 25.5 -45.999
s24.667 -24.166 41 -32.499s34.833 -12.5 55.5 -12.5s39 4.16699 55 12.5s29.5 19.166 40.5 32.499s19.5 28.666 25.5 45.999s9 35 9 53zM338 571c0 -21.333 -3.16992 -41.833 -9.50293 -61.5s-15.833 -37.167 -28.5 -52.5s-28.5 -27.5 -47.5 -36.5
s-40.833 -13.5 -65.5 -13.5c-24 0 -45.333 4.5 -64 13.5s-34.334 21.167 -47.001 36.5s-22.334 32.833 -29.001 52.5s-10 40.167 -10 61.5c0 20.667 3.33301 40.834 10 60.501s16.334 36.834 29.001 51.501s28.334 26.5 47.001 35.5s40.334 13.5 65.001 13.5
s46.334 -4.5 65.001 -13.5s34.334 -20.833 47.001 -35.5s22.167 -31.834 28.5 -51.501s9.5 -39.834 9.5 -60.501z" />
    <glyph glyph-name="guillemotright" unicode="&#xbb;" horiz-adv-x="286" 
d="M45 213v35l83 112l-83 112v35l103 -139v-16zM138 213v35l83 112l-83 112v35l103 -139v-16z" />
    <glyph glyph-name="onequarter" unicode="&#xbc;" horiz-adv-x="532" 
d="M404 364l-166 -228h166v228zM495 170c0 -15.333 -4.16797 -28.001 -12.501 -38.001s-23.166 -15 -44.499 -15h-14v-117h-20v117h-190v18l189 261h21v-260h11c19.333 0 30.833 3.83301 34.5 11.5s5.5 16.834 5.5 27.501l20 -5v0zM22.999 -0.000976562h-23l458 720h23z
M103.999 323.999l0.000976562 376h-7c-19.333 0 -30.833 -3.66699 -34.5 -11s-5.5 -16.333 -5.5 -27l-20 5c0 15.333 4.16699 28 12.5 38s23.166 15 44.499 15h30v-396h-20z" />
    <glyph glyph-name="onehalf" unicode="&#xbd;" horiz-adv-x="609" 
d="M591 53c0 -15.333 -4.33203 -27.999 -12.999 -37.999s-23.667 -15 -45 -15h-211c-0.666992 16.667 2.5 32.334 9.5 47.001s16.333 28.167 28 40.5s24.667 24 39 35s28.5 21.167 42.5 30.5c14 10 27.667 20.333 41 31s25.166 21.667 35.499 33s18.666 23.333 24.999 36
s9.5 26 9.5 40c0 27.333 -9.33301 49.166 -28 65.499s-42.334 24.5 -71.001 24.5c-37.333 0 -64.166 -11.667 -80.499 -35s-24.5 -52.666 -24.5 -87.999h-20c0.666992 44 11.334 78.833 32.001 104.5s51.667 38.5 93 38.5c16.667 0 32.167 -2.5 46.5 -7.5
s26.833 -12.333 37.5 -22s19.167 -21.334 25.5 -35.001s9.5 -28.834 9.5 -45.501c0 -21.333 -5.16699 -40.5 -15.5 -57.5s-23.5 -33 -39.5 -48s-33.5 -29.167 -52.5 -42.5l-54 -39.5c-17 -13 -31.833 -26.5 -44.5 -40.5s-20.667 -29 -24 -45h189
c19.333 0 30.833 3.66699 34.5 11s5.5 16.333 5.5 27l20 -5v0zM23.001 0.000976562h-23l458 720h23zM104.001 324.001l0.000976562 376h-7c-19.333 0 -30.833 -3.66699 -34.5 -11s-5.5 -16.333 -5.5 -27l-20 5c0 15.333 4.16699 28 12.5 38s23.166 15 44.499 15h30v-396h-20
z" />
    <glyph glyph-name="threequarters" unicode="&#xbe;" horiz-adv-x="662" 
d="M534 364l-166 -228h166v228zM625 170c0 -15.333 -4.16797 -28.001 -12.501 -38.001s-23.166 -15 -44.499 -15h-14v-117h-20v117h-190v18l189 261h21v-260h11c20 0 31.667 3.83301 35 11.5s5 16.834 5 27.501l20 -5v0zM152.999 -0.000976562h-23l458 720h23z
M297.999 439.999c0 -18 -3.66797 -34.168 -11.001 -48.501s-17 -26.5 -29 -36.5s-26 -17.833 -42 -23.5s-32.333 -8.5 -49 -8.5c-21.333 0 -41 3.16699 -59 9.5s-33.167 15.666 -45.5 27.999s-21.666 27.5 -27.999 45.5s-8.83301 38.333 -7.5 61h20
c-3.33301 -40 6.33398 -70.833 29.001 -92.5s53 -32.5 91 -32.5c14.667 0 28.667 2.33301 42 7s25.166 11.334 35.499 20.001s18.5 19 24.5 31s9 25.333 9 40c0 30 -9.66699 52.833 -29 68.5s-44 23.5 -74 23.5h-16v19h16c26 0 48.5 6.83301 67.5 20.5
s28.5 33.834 28.5 60.501c0 14 -2.83301 26 -8.5 36s-13.334 18.167 -23.001 24.5s-20.667 11.166 -33 14.499s-24.833 5 -37.5 5c-35.333 0 -63 -9.66699 -83 -29s-29.667 -47.666 -29 -84.999h-20c-0.666992 42.667 10.833 75.667 34.5 99s56.167 35 97.5 35
c15.333 0 30.333 -2 45 -6s27.667 -10 39 -18s20.5 -18.333 27.5 -31s10.5 -27.667 10.5 -45c0 -21.333 -5.66699 -40.166 -17 -56.499s-26.666 -27.833 -45.999 -34.5c22 -6.66699 39.167 -19.334 51.5 -38.001s18.5 -39.667 18.5 -63z" />
    <glyph glyph-name="questiondown" unicode="&#xbf;" horiz-adv-x="488" 
d="M451 226c1.33301 -34.667 -2.66699 -66.6689 -12 -96.002s-23.333 -54.5 -42 -75.5s-41.667 -37.333 -69 -49s-58.666 -17.5 -93.999 -17.5c-27.333 0 -53 3.66699 -77 11s-44.833 18 -62.5 32s-31.667 31.333 -42 52s-15.5 44.334 -15.5 71.001
c0 24.667 3.66699 46.5 11 65.5s16 35.667 26 50s20.667 26.666 32 36.999l29 26.5c18 17.333 33.333 33.166 46 47.499s23 29 31 44s13.667 31.5 17 49.5s5 39 5 63v107h20v-107c0 -22.667 -1.66699 -43 -5 -61s-8.66602 -35.167 -15.999 -51.5s-17.333 -32.5 -30 -48.5
s-28.334 -33 -47.001 -51c-4 -4 -11.333 -10.333 -22 -19s-21.834 -20 -33.501 -34s-21.834 -30.833 -30.501 -50.5s-13 -42.167 -13 -67.5c0 -23.333 4.5 -44.166 13.5 -62.499s21.333 -33.666 37 -45.999s34.334 -21.666 56.001 -27.999s45.167 -9.5 70.5 -9.5
c32.667 0 61.667 5.33301 87 16s46.333 25.5 63 44.5s29 42 37 69s11.333 56.5 10 88.5h20v0zM271 703.998c0 -7.33301 -2.66699 -13.666 -8 -18.999s-11.666 -8 -18.999 -8s-13.666 2.66699 -18.999 8s-8 11.666 -8 18.999s2.66699 13.666 8 18.999s11.666 8 18.999 8
s13.666 -2.66699 18.999 -8s8 -11.666 8 -18.999z" />
    <glyph glyph-name="Agrave" unicode="&#xc0;" 
d="M420 519c0 32 -3 60.3311 -9 84.998s-15.667 45.334 -29 62.001s-31.166 29.334 -53.499 38.001s-49.5 13 -81.5 13c-32.667 0 -60 -4.33301 -82 -13s-39.833 -21.5 -53.5 -38.5s-23.334 -37.667 -29.001 -62s-8.5 -52.5 -8.5 -84.5v-149h346v149zM420 -0.00195312v350
h-346v-350h-20v542c0 62.667 16.167 110.834 48.5 144.501s80.5 50.5 144.5 50.5s112.167 -16.833 144.5 -50.5s48.5 -81.834 48.5 -144.501v-542h-20zM324 764.998l-139 144h29l125 -144h-15z" />
    <glyph glyph-name="Aacute" unicode="&#xc1;" 
d="M168 765h-15l132 144h29zM420 519c0 32 -3 60.3311 -9 84.998s-15.667 45.334 -29 62.001s-31.166 29.334 -53.499 38.001s-49.5 13 -81.5 13c-32.667 0 -60 -4.33301 -82 -13s-39.833 -21.5 -53.5 -38.5s-23.334 -37.667 -29.001 -62s-8.5 -52.5 -8.5 -84.5v-149h346
v149zM420 -0.00195312v350h-346v-350h-20v542c0 62.667 16.167 110.834 48.5 144.501s80.5 50.5 144.5 50.5s112.167 -16.833 144.5 -50.5s48.5 -81.834 48.5 -144.501v-542h-20z" />
    <glyph glyph-name="Acircumflex" unicode="&#xc2;" 
d="M349 770l-103 123l-99 -123h-20l113 139h15l114 -139h-20zM420 519c0 32 -3 60.3311 -9 84.998s-15.667 45.334 -29 62.001s-31.166 29.334 -53.499 38.001s-49.5 13 -81.5 13c-32.667 0 -60 -4.33301 -82 -13s-39.833 -21.5 -53.5 -38.5s-23.334 -37.667 -29.001 -62
s-8.5 -52.5 -8.5 -84.5v-149h346v149zM420 -0.00195312v350h-346v-350h-20v542c0 62.667 16.167 110.834 48.5 144.501s80.5 50.5 144.5 50.5s112.167 -16.833 144.5 -50.5s48.5 -81.834 48.5 -144.501v-542h-20z" />
    <glyph glyph-name="Atilde" unicode="&#xc3;" 
d="M420 519c0 32 -3 60.3311 -9 84.998s-15.667 45.334 -29 62.001s-31.166 29.334 -53.499 38.001s-49.5 13 -81.5 13c-32.667 0 -60 -4.33301 -82 -13s-39.833 -21.5 -53.5 -38.5s-23.334 -37.667 -29.001 -62s-8.5 -52.5 -8.5 -84.5v-149h346v149zM420 -0.00195312v350
h-346v-350h-20v542c0 62.667 16.167 110.834 48.5 144.501s80.5 50.5 144.5 50.5s112.167 -16.833 144.5 -50.5s48.5 -81.834 48.5 -144.501v-542h-20zM390 855.998c0 -19.333 -5.66699 -36.667 -17 -52s-28.666 -23 -51.999 -23c-12.667 0 -24.334 3 -35.001 9
s-21 12.667 -31 20s-20 14 -30 20s-20.333 9 -31 9c-7.33301 0 -13.833 -1.83301 -19.5 -5.5s-10.667 -8.5 -15 -14.5s-7.66602 -12.5 -9.99902 -19.5s-3.5 -13.5 -3.5 -19.5h-20c0 9.33301 1.83301 18.666 5.5 27.999s8.66699 17.833 15 25.5s13.666 13.834 21.999 18.501
s16.833 7 25.5 7c11.333 0 22.5 -3 33.5 -9s21.833 -12.667 32.5 -20s21 -14 31 -20s20 -9 30 -9c15.333 0 27.333 5.66699 36 17s13 24 13 38h20v0z" />
    <glyph glyph-name="Adieresis" unicode="&#xc4;" 
d="M420 519c0 32 -3 60.3311 -9 84.998s-15.667 45.334 -29 62.001s-31.166 29.334 -53.499 38.001s-49.5 13 -81.5 13c-32.667 0 -60 -4.33301 -82 -13s-39.833 -21.5 -53.5 -38.5s-23.334 -37.667 -29.001 -62s-8.5 -52.5 -8.5 -84.5v-149h346v149zM420 -0.00195312v350
h-346v-350h-20v542c0 62.667 16.167 110.834 48.5 144.501s80.5 50.5 144.5 50.5s112.167 -16.833 144.5 -50.5s48.5 -81.834 48.5 -144.501v-542h-20zM198 808.998c0 -7.33301 -2.66699 -13.666 -8 -18.999s-11.666 -8 -18.999 -8s-13.666 2.66699 -18.999 8
s-8 11.666 -8 18.999s2.66699 13.666 8 18.999s11.666 8 18.999 8s13.666 -2.66699 18.999 -8s8 -11.666 8 -18.999zM353 808.998c0 -7.33301 -2.66699 -13.666 -8 -18.999s-11.666 -8 -18.999 -8s-13.666 2.66699 -18.999 8s-8 11.666 -8 18.999s2.66699 13.666 8 18.999
s11.666 8 18.999 8s13.666 -2.66699 18.999 -8s8 -11.666 8 -18.999z" />
    <glyph glyph-name="Aring" unicode="&#xc5;" 
d="M420 519c0 32 -3 60.3311 -9 84.998s-15.667 45.334 -29 62.001s-31.166 29.334 -53.499 38.001s-49.5 13 -81.5 13c-32.667 0 -60 -4.33301 -82 -13s-39.833 -21.5 -53.5 -38.5s-23.334 -37.667 -29.001 -62s-8.5 -52.5 -8.5 -84.5v-149h346v149zM315 828.998
c0 18.667 -6.66699 34.667 -20 48s-29.333 20 -48 20s-34.667 -6.66699 -48 -20s-20 -29.333 -20 -48s6.66699 -34.667 20 -48s29.333 -20 48 -20s34.667 6.66699 48 20s20 29.333 20 48zM420 -0.00195312v350h-346v-350h-20v542c0 62.667 16.167 110.834 48.5 144.501
s80.5 50.5 144.5 50.5s112.167 -16.833 144.5 -50.5s48.5 -81.834 48.5 -144.501v-542h-20zM335 828.998c0 -12 -2.33301 -23.333 -7 -34s-11 -20 -19 -28s-17.333 -14.333 -28 -19s-22 -7 -34 -7s-23.333 2.33301 -34 7s-20 11 -28 19s-14.333 17.333 -19 28s-7 22 -7 34
s2.33301 23.333 7 34s11 20 19 28s17.333 14.333 28 19s22 7 34 7s23.333 -2.33301 34 -7s20 -11 28 -19s14.333 -17.333 19 -28s7 -22 7 -34z" />
    <glyph glyph-name="AE" unicode="&#xc6;" horiz-adv-x="860" 
d="M420 519c0 32 -3 60.3311 -9 84.998s-15.667 45.334 -29 62.001s-31.166 29.334 -53.499 38.001s-49.5 13 -81.5 13c-32.667 0 -60 -4.33301 -82 -13s-39.833 -21.5 -53.5 -38.5s-23.334 -37.667 -29.001 -62s-8.5 -52.5 -8.5 -84.5v-149h346v149zM420 -0.00195312
v349.999h-346v-350h-20v542c0 62.667 16.167 110.834 48.5 144.501s80.5 50.5 144.5 50.5c43.333 0 79.5 -8 108.5 -24s50.5 -39 64.5 -69v76h391v-20h-371v-330h344v-20h-344v-330h375v-20h-395z" />
    <glyph glyph-name="Ccedilla" unicode="&#xc7;" horiz-adv-x="703" 
d="M666 280c-6 -42 -16.499 -80.8311 -31.499 -116.498s-34.667 -66.667 -59 -93s-53.5 -47.166 -87.5 -62.499s-73 -23.666 -117 -24.999l-29 -39c4.66699 0.666992 9 1.83398 13 3.50098s10.667 2.5 20 2.5c19.333 0 36.666 -4.5 51.999 -13.5s23 -24.5 23 -46.5
c0 -14.667 -2.66699 -26.667 -8 -36s-12.5 -16.833 -21.5 -22.5s-19.5 -9.5 -31.5 -11.5s-24.333 -3 -37 -3c-17.333 0 -33 2 -47 6s-25.667 7.66699 -35 11l9 19c11.333 -4 23 -7.66699 35 -11s24.667 -5 38 -5c9.33301 0 18.666 0.833008 27.999 2.5
s17.666 4.5 24.999 8.5s13.333 9.5 18 16.5s7 15.5 7 25.5c0 6.66699 -2 12.667 -6 18s-8.66699 9.5 -14 12.5s-11.333 5.33301 -18 7s-12.334 2.5 -17.001 2.5c-21.333 0 -39.333 -4.33301 -54 -13l-15 10l44 56c-50.667 1.33301 -95.5 12.666 -134.5 33.999
s-71.667 49 -98 83s-46.333 73 -60 117s-20.5 89.667 -20.5 137c0 50.667 7.16699 99.167 21.5 145.5s35.666 87.166 63.999 122.499s63.5 63.333 105.5 84s90.333 31 145 31c32 0 64.833 -5.5 98.5 -16.5s64.667 -26.5 93 -46.5s52 -44.333 71 -73
s29.167 -60.334 30.5 -95.001h-20c-3.33301 32.667 -13.666 62.167 -30.999 88.5s-38.833 48.5 -64.5 66.5s-54 31.833 -85 41.5s-61.833 14.5 -92.5 14.5c-51.333 0 -96.5 -10 -135.5 -30s-72 -46.833 -99 -80.5s-47.333 -72.334 -61 -116.001s-20.5 -89.167 -20.5 -136.5
c0 -45.333 6.66699 -89 20 -131s32.833 -79.333 58.5 -112s57.334 -58.834 95.001 -78.501s80.834 -29.5 129.501 -29.5c42.667 0 80.5 7 113.5 21s61.333 33.167 85 57.5s42.834 53.5 57.501 87.5s24.667 71 30 111h20v0z" />
    <glyph glyph-name="Egrave" unicode="&#xc8;" 
d="M166 909h29l125 -144h-15zM54 0v720h391v-20h-371v-330h344v-20h-344v-330h375v-20h-395z" />
    <glyph glyph-name="Eacute" unicode="&#xc9;" 
d="M54 0v720h391v-20h-371v-330h344v-20h-344v-330h375v-20h-395zM229 765h-15l132 144h29z" />
    <glyph glyph-name="Ecircumflex" unicode="&#xca;" 
d="M350 770l-103 123l-99 -123h-20l113 139h15l114 -139h-20zM54 0v720h391v-20h-371v-330h344v-20h-344v-330h375v-20h-395z" />
    <glyph glyph-name="Edieresis" unicode="&#xcb;" 
d="M354 809c0 -7.33301 -2.66699 -13.666 -8 -18.999s-11.666 -8 -18.999 -8s-13.666 2.66699 -18.999 8s-8 11.666 -8 18.999s2.66699 13.666 8 18.999s11.666 8 18.999 8s13.666 -2.66699 18.999 -8s8 -11.666 8 -18.999zM199 809c0 -7.33301 -2.66699 -13.666 -8 -18.999
s-11.666 -8 -18.999 -8s-13.666 2.66699 -18.999 8s-8 11.666 -8 18.999s2.66699 13.666 8 18.999s11.666 8 18.999 8s13.666 -2.66699 18.999 -8s8 -11.666 8 -18.999zM54 0v720h391v-20h-371v-330h344v-20h-344v-330h375v-20h-395z" />
    <glyph glyph-name="Igrave" unicode="&#xcc;" horiz-adv-x="128" 
d="M-19 909h29l125 -144h-15zM54 0v720h20v-720h-20z" />
    <glyph glyph-name="Iacute" unicode="&#xcd;" horiz-adv-x="128" 
d="M-6 765h-15l132 144h29zM54 0v720h20v-720h-20z" />
    <glyph glyph-name="Icircumflex" unicode="&#xce;" horiz-adv-x="128" 
d="M165 770l-103 123l-99 -123h-20l113 139h15l114 -139h-20zM54 0v720h20v-720h-20z" />
    <glyph glyph-name="Idieresis" unicode="&#xcf;" horiz-adv-x="128" 
d="M169 809c0 -7.33301 -2.66699 -13.666 -8 -18.999s-11.666 -8 -18.999 -8s-13.666 2.66699 -18.999 8s-8 11.666 -8 18.999s2.66699 13.666 8 18.999s11.666 8 18.999 8s13.666 -2.66699 18.999 -8s8 -11.666 8 -18.999zM14 809c0 -7.33301 -2.66699 -13.666 -8 -18.999
s-11.666 -8 -18.999 -8s-13.666 2.66699 -18.999 8s-8 11.666 -8 18.999s2.66699 13.666 8 18.999s11.666 8 18.999 8s13.666 -2.66699 18.999 -8s8 -11.666 8 -18.999zM54 0v720h20v-720h-20z" />
    <glyph glyph-name="Ntilde" unicode="&#xd1;" 
d="M420 0v518.998c0 32 -3 60.333 -9 85s-15.667 45.334 -29 62.001s-31.166 29.334 -53.499 38.001s-49.5 13 -81.5 13c-32.667 0 -60 -4.33301 -82 -13s-39.833 -21.5 -53.5 -38.5s-23.334 -37.667 -29.001 -62s-8.5 -52.5 -8.5 -84.5v-519h-20v542
c0 62.667 16.167 110.834 48.5 144.501s80.5 50.5 144.5 50.5s112.167 -16.833 144.5 -50.5s48.5 -81.834 48.5 -144.501v-542h-20zM406 855.998c0 -19.333 -5.66699 -36.667 -17 -52s-28.666 -23 -51.999 -23c-12.667 0 -24.334 3 -35.001 9s-21 12.667 -31 20
s-20 14 -30 20s-20.333 9 -31 9c-7.33301 0 -13.833 -1.83301 -19.5 -5.5s-10.667 -8.5 -15 -14.5s-7.66602 -12.5 -9.99902 -19.5s-3.5 -13.5 -3.5 -19.5h-20c0 9.33301 1.83301 18.666 5.5 27.999s8.66699 17.833 15 25.5s13.666 13.834 21.999 18.501s16.833 7 25.5 7
c11.333 0 22.5 -3 33.5 -9s21.833 -12.667 32.5 -20s21 -14 31 -20s20 -9 30 -9c15.333 0 27.333 5.66699 36 17s13 24 13 38h20v0z" />
    <glyph glyph-name="Ograve" unicode="&#xd2;" horiz-adv-x="732" 
d="M258 909h29l125 -144h-15zM675 360c0 47.333 -6.5 92.5 -19.5 135.5s-32.333 81 -58 114s-57.834 59.167 -96.501 78.5s-83.667 29 -135 29s-96.333 -9.66699 -135 -29s-70.834 -45.5 -96.501 -78.5s-45 -71 -58 -114s-19.5 -88.167 -19.5 -135.5s6.5 -92.5 19.5 -135.5
s32.333 -81 58 -114s57.834 -59.167 96.501 -78.5s83.667 -29 135 -29s96.333 9.66699 135 29s70.834 45.5 96.501 78.5s45 71 58 114s19.5 88.167 19.5 135.5zM695 360c0 -50 -7 -97.833 -21 -143.5s-34.833 -85.667 -62.5 -120s-62 -61.833 -103 -82.5
s-88.5 -31 -142.5 -31s-101.5 10.333 -142.5 31s-75.333 48.167 -103 82.5s-48.5 74.333 -62.5 120s-21 93.5 -21 143.5s7 97.833 21 143.5s34.833 85.667 62.5 120s62 61.833 103 82.5s88.5 31 142.5 31s101.5 -10.333 142.5 -31s75.333 -48.167 103 -82.5
s48.5 -74.333 62.5 -120s21 -93.5 21 -143.5z" />
    <glyph glyph-name="Oacute" unicode="&#xd3;" horiz-adv-x="732" 
d="M321 765h-15l132 144h29zM675 360c0 47.333 -6.5 92.5 -19.5 135.5s-32.333 81 -58 114s-57.834 59.167 -96.501 78.5s-83.667 29 -135 29s-96.333 -9.66699 -135 -29s-70.834 -45.5 -96.501 -78.5s-45 -71 -58 -114s-19.5 -88.167 -19.5 -135.5s6.5 -92.5 19.5 -135.5
s32.333 -81 58 -114s57.834 -59.167 96.501 -78.5s83.667 -29 135 -29s96.333 9.66699 135 29s70.834 45.5 96.501 78.5s45 71 58 114s19.5 88.167 19.5 135.5zM695 360c0 -50 -7 -97.833 -21 -143.5s-34.833 -85.667 -62.5 -120s-62 -61.833 -103 -82.5
s-88.5 -31 -142.5 -31s-101.5 10.333 -142.5 31s-75.333 48.167 -103 82.5s-48.5 74.333 -62.5 120s-21 93.5 -21 143.5s7 97.833 21 143.5s34.833 85.667 62.5 120s62 61.833 103 82.5s88.5 31 142.5 31s101.5 -10.333 142.5 -31s75.333 -48.167 103 -82.5
s48.5 -74.333 62.5 -120s21 -93.5 21 -143.5z" />
    <glyph glyph-name="Ocircumflex" unicode="&#xd4;" horiz-adv-x="732" 
d="M462 770l-103 123l-99 -123h-20l113 139h15l114 -139h-20zM675 360c0 47.333 -6.5 92.5 -19.5 135.5s-32.333 81 -58 114s-57.834 59.167 -96.501 78.5s-83.667 29 -135 29s-96.333 -9.66699 -135 -29s-70.834 -45.5 -96.501 -78.5s-45 -71 -58 -114
s-19.5 -88.167 -19.5 -135.5s6.5 -92.5 19.5 -135.5s32.333 -81 58 -114s57.834 -59.167 96.501 -78.5s83.667 -29 135 -29s96.333 9.66699 135 29s70.834 45.5 96.501 78.5s45 71 58 114s19.5 88.167 19.5 135.5zM695 360c0 -50 -7 -97.833 -21 -143.5
s-34.833 -85.667 -62.5 -120s-62 -61.833 -103 -82.5s-88.5 -31 -142.5 -31s-101.5 10.333 -142.5 31s-75.333 48.167 -103 82.5s-48.5 74.333 -62.5 120s-21 93.5 -21 143.5s7 97.833 21 143.5s34.833 85.667 62.5 120s62 61.833 103 82.5s88.5 31 142.5 31
s101.5 -10.333 142.5 -31s75.333 -48.167 103 -82.5s48.5 -74.333 62.5 -120s21 -93.5 21 -143.5z" />
    <glyph glyph-name="Otilde" unicode="&#xd5;" horiz-adv-x="732" 
d="M675 360c0 47.333 -6.5 92.5 -19.5 135.5s-32.333 81 -58 114s-57.834 59.167 -96.501 78.5s-83.667 29 -135 29s-96.333 -9.66699 -135 -29s-70.834 -45.5 -96.501 -78.5s-45 -71 -58 -114s-19.5 -88.167 -19.5 -135.5s6.5 -92.5 19.5 -135.5s32.333 -81 58 -114
s57.834 -59.167 96.501 -78.5s83.667 -29 135 -29s96.333 9.66699 135 29s70.834 45.5 96.501 78.5s45 71 58 114s19.5 88.167 19.5 135.5zM695 360c0 -50 -7 -97.833 -21 -143.5s-34.833 -85.667 -62.5 -120s-62 -61.833 -103 -82.5s-88.5 -31 -142.5 -31
s-101.5 10.333 -142.5 31s-75.333 48.167 -103 82.5s-48.5 74.333 -62.5 120s-21 93.5 -21 143.5s7 97.833 21 143.5s34.833 85.667 62.5 120s62 61.833 103 82.5s88.5 31 142.5 31s101.5 -10.333 142.5 -31s75.333 -48.167 103 -82.5s48.5 -74.333 62.5 -120
s21 -93.5 21 -143.5zM503 856c0 -19.333 -5.66699 -36.667 -17 -52s-28.666 -23 -51.999 -23c-12.667 0 -24.334 3 -35.001 9s-21 12.667 -31 20s-20 14 -30 20s-20.333 9 -31 9c-7.33301 0 -13.833 -1.83301 -19.5 -5.5s-10.667 -8.5 -15 -14.5
s-7.66602 -12.5 -9.99902 -19.5s-3.5 -13.5 -3.5 -19.5h-20c0 9.33301 1.83301 18.666 5.5 27.999s8.66699 17.833 15 25.5s13.666 13.834 21.999 18.501s16.833 7 25.5 7c11.333 0 22.5 -3 33.5 -9s21.833 -12.667 32.5 -20s21 -14 31 -20s20 -9 30 -9
c15.333 0 27.333 5.66699 36 17s13 24 13 38h20v0z" />
    <glyph glyph-name="Odieresis" unicode="&#xd6;" horiz-adv-x="732" 
d="M675 360c0 47.333 -6.5 92.5 -19.5 135.5s-32.333 81 -58 114s-57.834 59.167 -96.501 78.5s-83.667 29 -135 29s-96.333 -9.66699 -135 -29s-70.834 -45.5 -96.501 -78.5s-45 -71 -58 -114s-19.5 -88.167 -19.5 -135.5s6.5 -92.5 19.5 -135.5s32.333 -81 58 -114
s57.834 -59.167 96.501 -78.5s83.667 -29 135 -29s96.333 9.66699 135 29s70.834 45.5 96.501 78.5s45 71 58 114s19.5 88.167 19.5 135.5zM695 360c0 -50 -7 -97.833 -21 -143.5s-34.833 -85.667 -62.5 -120s-62 -61.833 -103 -82.5s-88.5 -31 -142.5 -31
s-101.5 10.333 -142.5 31s-75.333 48.167 -103 82.5s-48.5 74.333 -62.5 120s-21 93.5 -21 143.5s7 97.833 21 143.5s34.833 85.667 62.5 120s62 61.833 103 82.5s88.5 31 142.5 31s101.5 -10.333 142.5 -31s75.333 -48.167 103 -82.5s48.5 -74.333 62.5 -120
s21 -93.5 21 -143.5zM311 809c0 -7.33301 -2.66699 -13.666 -8 -18.999s-11.666 -8 -18.999 -8s-13.666 2.66699 -18.999 8s-8 11.666 -8 18.999s2.66699 13.666 8 18.999s11.666 8 18.999 8s13.666 -2.66699 18.999 -8s8 -11.666 8 -18.999zM466 809
c0 -7.33301 -2.66699 -13.666 -8 -18.999s-11.666 -8 -18.999 -8s-13.666 2.66699 -18.999 8s-8 11.666 -8 18.999s2.66699 13.666 8 18.999s11.666 8 18.999 8s13.666 -2.66699 18.999 -8s8 -11.666 8 -18.999z" />
    <glyph glyph-name="multiply" unicode="&#xd7;" horiz-adv-x="408" 
d="M394 156l-191 192l-189 -192l-14 14l190 190l-190 190l14 14l189 -192l191 192l14 -13l-191 -190l191 -190z" />
    <glyph glyph-name="Oslash" unicode="&#xd8;" horiz-adv-x="732" 
d="M675 357c0 49.333 -6.5 94.6699 -19.5 136.003s-31.833 77.333 -56.5 108l-454 -502c26 -30.667 57.5 -54.334 94.5 -71.001s79.167 -25 126.5 -25c48 0 91 8.83301 129 26.5s70.333 42.167 97 73.5s47.167 68.666 61.5 111.999s21.5 90.666 21.5 141.999zM586 617.004
c-26.667 30 -58.332 53.165 -94.999 69.498s-78.334 24.5 -125.001 24.5c-48 0 -91 -8.83301 -129 -26.5s-70.333 -42.167 -97 -73.5s-47.167 -68.666 -61.5 -111.999s-21.5 -90.666 -21.5 -141.999c0 -49.333 6.5 -94.5 19.5 -135.5s31.5 -76.833 55.5 -107.5l454 503v0z
M695.002 357.002c0 -50.667 -7.16602 -98.666 -21.499 -143.999s-35.333 -85 -63 -119s-62 -61 -103 -81s-88.167 -30 -141.5 -30c-50.667 0 -95.5 8.83301 -134.5 26.5s-72.5 42.5 -100.5 74.5l-71 -79l-15 12l73 81c-26.667 34 -46.834 73.167 -60.501 117.5
s-20.5 91.5 -20.5 141.5c0 50.667 7.16699 98.667 21.5 144s35.333 85 63 119s62 61 103 81s88.167 30 141.5 30c50 0 94.5 -8.83301 133.5 -26.5s72.5 -41.834 100.5 -72.501l59 65l15 -12l-61 -68c27.333 -34 47.833 -73.167 61.5 -117.5s20.5 -91.833 20.5 -142.5z" />
    <glyph glyph-name="Ugrave" unicode="&#xd9;" 
d="M173 909h29l125 -144h-15zM440 178c0 -62.667 -16.166 -110.832 -48.499 -144.499s-80.5 -50.5 -144.5 -50.5s-112.167 16.833 -144.5 50.5s-48.5 81.834 -48.5 144.501v542h20v-519c0 -32 3 -60.333 9 -85s15.667 -45.334 29 -62.001s31.166 -29.334 53.499 -38.001
s49.5 -13 81.5 -13c32.667 0 60 4.33301 82 13s39.667 21.5 53 38.5s23 37.667 29 62s9 52.5 9 84.5v519h20v-542v0z" />
    <glyph glyph-name="Uacute" unicode="&#xda;" 
d="M186 765h-15l132 144h29zM440 178c0 -62.667 -16.166 -110.832 -48.499 -144.499s-80.5 -50.5 -144.5 -50.5s-112.167 16.833 -144.5 50.5s-48.5 81.834 -48.5 144.501v542h20v-519c0 -32 3 -60.333 9 -85s15.667 -45.334 29 -62.001s31.166 -29.334 53.499 -38.001
s49.5 -13 81.5 -13c32.667 0 60 4.33301 82 13s39.667 21.5 53 38.5s23 37.667 29 62s9 52.5 9 84.5v519h20v-542v0z" />
    <glyph glyph-name="Ucircumflex" unicode="&#xdb;" 
d="M347 770l-103 123l-99 -123h-20l113 139h15l114 -139h-20zM440 178c0 -62.667 -16.166 -110.832 -48.499 -144.499s-80.5 -50.5 -144.5 -50.5s-112.167 16.833 -144.5 50.5s-48.5 81.834 -48.5 144.501v542h20v-519c0 -32 3 -60.333 9 -85s15.667 -45.334 29 -62.001
s31.166 -29.334 53.499 -38.001s49.5 -13 81.5 -13c32.667 0 60 4.33301 82 13s39.667 21.5 53 38.5s23 37.667 29 62s9 52.5 9 84.5v519h20v-542v0z" />
    <glyph glyph-name="Udieresis" unicode="&#xdc;" 
d="M440 178c0 -62.667 -16.166 -110.832 -48.499 -144.499s-80.5 -50.5 -144.5 -50.5s-112.167 16.833 -144.5 50.5s-48.5 81.834 -48.5 144.501v542h20v-519c0 -32 3 -60.333 9 -85s15.667 -45.334 29 -62.001s31.166 -29.334 53.499 -38.001s49.5 -13 81.5 -13
c32.667 0 60 4.33301 82 13s39.667 21.5 53 38.5s23 37.667 29 62s9 52.5 9 84.5v519h20v-542v0zM206.001 809.002c0 -7.33301 -2.66699 -13.666 -8 -18.999s-11.666 -8 -18.999 -8s-13.666 2.66699 -18.999 8s-8 11.666 -8 18.999s2.66699 13.666 8 18.999
s11.666 8 18.999 8s13.666 -2.66699 18.999 -8s8 -11.666 8 -18.999zM361.001 809.002c0 -7.33301 -2.66699 -13.666 -8 -18.999s-11.666 -8 -18.999 -8s-13.666 2.66699 -18.999 8s-8 11.666 -8 18.999s2.66699 13.666 8 18.999s11.666 8 18.999 8
s13.666 -2.66699 18.999 -8s8 -11.666 8 -18.999z" />
    <glyph glyph-name="Yacute" unicode="&#xdd;" 
d="M440 545c0 -60.667 -15.3301 -107.832 -45.9971 -141.499s-76.334 -51.5 -137.001 -53.5v-350h-20v350c-60.667 2 -106.334 19.833 -137.001 53.5s-46 80.834 -46 141.501v175h20v-152c0 -32 3 -60.333 9 -85s15.667 -45.334 29 -62.001s31.166 -29.334 53.499 -38.001
s49.5 -13 81.5 -13c32.667 0 60 4.33301 82 13s39.667 21.5 53 38.5s23 37.667 29 62s9 52.5 9 84.5v152h20v-175v0zM229.003 787.002h-15l132 144h29z" />
    <glyph glyph-name="Thorn" unicode="&#xde;" 
d="M437 401c0 56.667 -16.333 100 -49 130s-82 45 -148 45h-166v-349h166c28 0 54 3.83301 78 11.5s44.833 19 62.5 34s31.5 33.167 41.5 54.5s15 46 15 74zM457 401c0 -31.333 -5.66699 -59.168 -17 -83.501s-27 -44.666 -47 -60.999s-44 -28.666 -72 -36.999
s-58.333 -12.5 -91 -12.5h-156v-207h-20v720h20v-124h166c68.667 0 122 -16.333 160 -49s57 -81.334 57 -146.001z" />
    <glyph glyph-name="germandbls" unicode="&#xdf;" horiz-adv-x="488" 
d="M451 212c0 -38 -5.16992 -70.3291 -15.5029 -96.9961s-25.333 -48.5 -45 -65.5s-43.667 -29.5 -72 -37.5s-60.833 -12 -97.5 -12h-20v20c4.66699 0 9 -0.166992 13 -0.5s8.33301 -0.5 13 -0.5c64.667 0 114.834 15.167 150.501 45.5s53.5 79.166 53.5 146.499
c0 36.667 -5.66699 66.667 -17 90s-27 41.666 -47 54.999s-43.667 22.333 -71 27s-56.666 7 -87.999 7h-7v20h7c25.333 0 49.333 2.83301 72 8.5s42.5 14.667 59.5 27s30.333 28.333 40 48s14.5 43.5 14.5 71.5c0 23.333 -4.5 44.166 -13.5 62.499s-21 33.666 -36 45.999
s-32.333 21.833 -52 28.5s-40.5 10 -62.5 10c-49.333 0 -87.666 -13.167 -114.999 -39.5s-41 -64.5 -41 -114.5v-558h-20v560c0 54.667 15.833 97 47.5 127s74.5 45 128.5 45c24 0 47.167 -3.83301 69.5 -11.5s42 -18.667 59 -33s30.5 -31.833 40.5 -52.5s15 -43.667 15 -69
c0 -42 -10.5 -78 -31.5 -108s-52.833 -48.667 -95.5 -56c56.667 -5.33301 98.167 -24.833 124.5 -58.5s39.5 -77.5 39.5 -131.5z" />
    <glyph glyph-name="agrave" unicode="&#xe0;" horiz-adv-x="527" 
d="M453 358c0 20.667 -5.16699 39.999 -15.5 57.999s-23.833 33.667 -40.5 47s-35.5 23.833 -56.5 31.5s-42.167 11.5 -63.5 11.5c-41.333 0 -76 -7.83301 -104 -23.5s-50.5 -36 -67.5 -61s-29.333 -53 -37 -84s-11.5 -61.5 -11.5 -91.5c0 -31.333 4.5 -61.333 13.5 -90
s22.167 -54 39.5 -76s39 -39.5 65 -52.5s56 -19.5 90 -19.5c25.333 0 49.333 3.83301 72 11.5s42.667 18.834 60 33.501s31 32.167 41 52.5s15 43.5 15 69.5v183zM453 -0.000976562v98.9971c-16.667 -35.333 -41.167 -62.666 -73.5 -81.999s-70.5 -29 -114.5 -29
c-36.667 0 -69.167 6.83301 -97.5 20.5s-52.166 32.334 -71.499 56.001s-34 51 -44 82s-15 64.167 -15 99.5c0 37.333 4.83301 72.833 14.5 106.5s24.334 63.334 44.001 89.001s44.5 46.167 74.5 61.5s65.667 23 107 23c37.333 0 71.666 -8.5 102.999 -25.5
s55.666 -42.167 72.999 -75.5v89h20v-514h-20zM327 564.996l-139 144h29l125 -144h-15z" />
    <glyph glyph-name="aacute" unicode="&#xe1;" horiz-adv-x="527" 
d="M453 358c0 20.667 -5.16699 39.999 -15.5 57.999s-23.833 33.667 -40.5 47s-35.5 23.833 -56.5 31.5s-42.167 11.5 -63.5 11.5c-41.333 0 -76 -7.83301 -104 -23.5s-50.5 -36 -67.5 -61s-29.333 -53 -37 -84s-11.5 -61.5 -11.5 -91.5c0 -31.333 4.5 -61.333 13.5 -90
s22.167 -54 39.5 -76s39 -39.5 65 -52.5s56 -19.5 90 -19.5c25.333 0 49.333 3.83301 72 11.5s42.667 18.834 60 33.501s31 32.167 41 52.5s15 43.5 15 69.5v183zM453 -0.000976562v98.9971c-16.667 -35.333 -41.167 -62.666 -73.5 -81.999s-70.5 -29 -114.5 -29
c-36.667 0 -69.167 6.83301 -97.5 20.5s-52.166 32.334 -71.499 56.001s-34 51 -44 82s-15 64.167 -15 99.5c0 37.333 4.83301 72.833 14.5 106.5s24.334 63.334 44.001 89.001s44.5 46.167 74.5 61.5s65.667 23 107 23c37.333 0 71.666 -8.5 102.999 -25.5
s55.666 -42.167 72.999 -75.5v89h20v-514h-20zM201 564.996h-15l132 144h29z" />
    <glyph glyph-name="acircumflex" unicode="&#xe2;" horiz-adv-x="527" 
d="M453 358c0 20.667 -5.16699 39.999 -15.5 57.999s-23.833 33.667 -40.5 47s-35.5 23.833 -56.5 31.5s-42.167 11.5 -63.5 11.5c-41.333 0 -76 -7.83301 -104 -23.5s-50.5 -36 -67.5 -61s-29.333 -53 -37 -84s-11.5 -61.5 -11.5 -91.5c0 -31.333 4.5 -61.333 13.5 -90
s22.167 -54 39.5 -76s39 -39.5 65 -52.5s56 -19.5 90 -19.5c25.333 0 49.333 3.83301 72 11.5s42.667 18.834 60 33.501s31 32.167 41 52.5s15 43.5 15 69.5v183zM453 -0.000976562v98.9971c-16.667 -35.333 -41.167 -62.666 -73.5 -81.999s-70.5 -29 -114.5 -29
c-36.667 0 -69.167 6.83301 -97.5 20.5s-52.166 32.334 -71.499 56.001s-34 51 -44 82s-15 64.167 -15 99.5c0 37.333 4.83301 72.833 14.5 106.5s24.334 63.334 44.001 89.001s44.5 46.167 74.5 61.5s65.667 23 107 23c37.333 0 71.666 -8.5 102.999 -25.5
s55.666 -42.167 72.999 -75.5v89h20v-514h-20zM372 569.996l-103 123l-99 -123h-20l113 139h15l114 -139h-20z" />
    <glyph glyph-name="atilde" unicode="&#xe3;" horiz-adv-x="527" 
d="M453 358c0 20.667 -5.16699 39.999 -15.5 57.999s-23.833 33.667 -40.5 47s-35.5 23.833 -56.5 31.5s-42.167 11.5 -63.5 11.5c-41.333 0 -76 -7.83301 -104 -23.5s-50.5 -36 -67.5 -61s-29.333 -53 -37 -84s-11.5 -61.5 -11.5 -91.5c0 -31.333 4.5 -61.333 13.5 -90
s22.167 -54 39.5 -76s39 -39.5 65 -52.5s56 -19.5 90 -19.5c25.333 0 49.333 3.83301 72 11.5s42.667 18.834 60 33.501s31 32.167 41 52.5s15 43.5 15 69.5v183zM453 -0.000976562v98.9971c-16.667 -35.333 -41.167 -62.666 -73.5 -81.999s-70.5 -29 -114.5 -29
c-36.667 0 -69.167 6.83301 -97.5 20.5s-52.166 32.334 -71.499 56.001s-34 51 -44 82s-15 64.167 -15 99.5c0 37.333 4.83301 72.833 14.5 106.5s24.334 63.334 44.001 89.001s44.5 46.167 74.5 61.5s65.667 23 107 23c37.333 0 71.666 -8.5 102.999 -25.5
s55.666 -42.167 72.999 -75.5v89h20v-514h-20zM413 655.996c0 -19.333 -5.66699 -36.667 -17 -52s-28.666 -23 -51.999 -23c-12.667 0 -24.334 3 -35.001 9s-21 12.667 -31 20s-20 14 -30 20s-20.333 9 -31 9c-7.33301 0 -13.833 -1.83301 -19.5 -5.5
s-10.667 -8.5 -15 -14.5s-7.66602 -12.5 -9.99902 -19.5s-3.5 -13.5 -3.5 -19.5h-20c0 9.33301 1.83301 18.666 5.5 27.999s8.66699 17.833 15 25.5s13.666 13.834 21.999 18.501s16.833 7 25.5 7c11.333 0 22.5 -3 33.5 -9s21.833 -12.667 32.5 -20s21 -14 31 -20
s20 -9 30 -9c15.333 0 27.333 5.66699 36 17s13 24 13 38h20v0z" />
    <glyph glyph-name="adieresis" unicode="&#xe4;" horiz-adv-x="527" 
d="M453 358c0 20.667 -5.16699 39.999 -15.5 57.999s-23.833 33.667 -40.5 47s-35.5 23.833 -56.5 31.5s-42.167 11.5 -63.5 11.5c-41.333 0 -76 -7.83301 -104 -23.5s-50.5 -36 -67.5 -61s-29.333 -53 -37 -84s-11.5 -61.5 -11.5 -91.5c0 -31.333 4.5 -61.333 13.5 -90
s22.167 -54 39.5 -76s39 -39.5 65 -52.5s56 -19.5 90 -19.5c25.333 0 49.333 3.83301 72 11.5s42.667 18.834 60 33.501s31 32.167 41 52.5s15 43.5 15 69.5v183zM453 -0.000976562v98.9971c-16.667 -35.333 -41.167 -62.666 -73.5 -81.999s-70.5 -29 -114.5 -29
c-36.667 0 -69.167 6.83301 -97.5 20.5s-52.166 32.334 -71.499 56.001s-34 51 -44 82s-15 64.167 -15 99.5c0 37.333 4.83301 72.833 14.5 106.5s24.334 63.334 44.001 89.001s44.5 46.167 74.5 61.5s65.667 23 107 23c37.333 0 71.666 -8.5 102.999 -25.5
s55.666 -42.167 72.999 -75.5v89h20v-514h-20zM231 608.996c0 -7.33301 -2.66699 -13.666 -8 -18.999s-11.666 -8 -18.999 -8s-13.666 2.66699 -18.999 8s-8 11.666 -8 18.999s2.66699 13.666 8 18.999s11.666 8 18.999 8s13.666 -2.66699 18.999 -8s8 -11.666 8 -18.999z
M386 608.996c0 -7.33301 -2.66699 -13.666 -8 -18.999s-11.666 -8 -18.999 -8s-13.666 2.66699 -18.999 8s-8 11.666 -8 18.999s2.66699 13.666 8 18.999s11.666 8 18.999 8s13.666 -2.66699 18.999 -8s8 -11.666 8 -18.999z" />
    <glyph glyph-name="aring" unicode="&#xe5;" horiz-adv-x="527" 
d="M453 358c0 20.667 -5.16699 39.999 -15.5 57.999s-23.833 33.667 -40.5 47s-35.5 23.833 -56.5 31.5s-42.167 11.5 -63.5 11.5c-41.333 0 -76 -7.83301 -104 -23.5s-50.5 -36 -67.5 -61s-29.333 -53 -37 -84s-11.5 -61.5 -11.5 -91.5c0 -31.333 4.5 -61.333 13.5 -90
s22.167 -54 39.5 -76s39 -39.5 65 -52.5s56 -19.5 90 -19.5c25.333 0 49.333 3.83301 72 11.5s42.667 18.834 60 33.501s31 32.167 41 52.5s15 43.5 15 69.5v183zM349 673.999c0 18.667 -6.66699 34.667 -20 48s-29.333 20 -48 20s-34.667 -6.66699 -48 -20
s-20 -29.333 -20 -48s6.66699 -34.667 20 -48s29.333 -20 48 -20s34.667 6.66699 48 20s20 29.333 20 48zM453 -0.000976562v98.9971c-16.667 -35.333 -41.167 -62.666 -73.5 -81.999s-70.5 -29 -114.5 -29c-36.667 0 -69.167 6.83301 -97.5 20.5
s-52.166 32.334 -71.499 56.001s-34 51 -44 82s-15 64.167 -15 99.5c0 37.333 4.83301 72.833 14.5 106.5s24.334 63.334 44.001 89.001s44.5 46.167 74.5 61.5s65.667 23 107 23c37.333 0 71.666 -8.5 102.999 -25.5s55.666 -42.167 72.999 -75.5v89h20v-514h-20z
M369 673.996c0 -12 -2.33301 -23.333 -7 -34s-11 -20 -19 -28s-17.333 -14.333 -28 -19s-22 -7 -34 -7s-23.333 2.33301 -34 7s-20 11 -28 19s-14.333 17.333 -19 28s-7 22 -7 34s2.33301 23.333 7 34s11 20 19 28s17.333 14.333 28 19s22 7 34 7s23.333 -2.33301 34 -7
s20 -11 28 -19s14.333 -17.333 19 -28s7 -22 7 -34z" />
    <glyph glyph-name="ae" unicode="&#xe6;" horiz-adv-x="926" 
d="M453 358c0 20.667 -5.16699 39.999 -15.5 57.999s-23.833 33.667 -40.5 47s-35.5 23.833 -56.5 31.5s-42.167 11.5 -63.5 11.5c-41.333 0 -76 -7.83301 -104 -23.5s-50.5 -36 -67.5 -61s-29.333 -53 -37 -84s-11.5 -61.5 -11.5 -91.5c0 -31.333 4.5 -61.333 13.5 -90
s22.167 -54 39.5 -76s39 -39.5 65 -52.5s56 -19.5 90 -19.5c25.333 0 49.333 3.83301 72 11.5s42.667 18.834 60 33.501s31 32.167 41 52.5s15 43.5 15 69.5v183zM867 370.999c-9.33301 42.667 -29.667 75.833 -61 99.5s-69 35.5 -113 35.5c-38 0 -70.833 -7 -98.5 -21
s-50.5 -33 -68.5 -57s-31.333 -51.667 -40 -83s-13 -64.333 -13 -99v-18l394 143v0zM888.999 174.998c-2.66699 -28.667 -9.66699 -54.5029 -21 -77.5029s-26 -42.667 -44 -59s-39.167 -28.833 -63.5 -37.5s-50.833 -13 -79.5 -13c-52.667 0 -96.5 13.667 -131.5 41
s-60.5 62 -76.5 104v-133h-20v99c-16.667 -35.333 -41.167 -62.666 -73.5 -81.999s-70.5 -29 -114.5 -29c-36.667 0 -69.167 6.83301 -97.5 20.5s-52.166 32.334 -71.499 56.001s-34 51 -44 82s-15 64.167 -15 99.5c0 37.333 4.83301 72.833 14.5 106.5
s24.334 63.334 44.001 89.001s44.5 46.167 74.5 61.5s65.667 23 107 23c37.333 0 71.666 -8.5 102.999 -25.5s55.666 -42.167 72.999 -75.5v89h20v-144c16 45.333 42.167 82.666 78.5 111.999s83.5 44 141.5 44c25.333 0 49.333 -4 72 -12s42.667 -19.167 60 -33.5
s31.5 -31.833 42.5 -52.5s18.167 -44 21.5 -70l-414 -151c3.33301 -27.333 10.333 -53 21 -77s24.5 -45 41.5 -63s37.5 -32.333 61.5 -43s51.333 -16 82 -16c25.333 0 49 3.83301 71 11.5s41.333 18.834 58 33.501s30.167 32.167 40.5 52.5s16.5 43.5 18.5 69.5h20v0z" />
    <glyph glyph-name="ccedilla" unicode="&#xe7;" horiz-adv-x="510" 
d="M473 175c-5.33301 -56.667 -25.8301 -101.502 -61.4971 -134.502s-81.5 -50.5 -137.5 -52.5l-32 -44c4.66699 0.666992 9 1.83398 13 3.50098s10.667 2.5 20 2.5c19.333 0 36.666 -4.5 51.999 -13.5s23 -24.5 23 -46.5c0 -14.667 -2.66699 -26.667 -8 -36
s-12.5 -16.833 -21.5 -22.5s-19.5 -9.5 -31.5 -11.5s-24.333 -3 -37 -3c-17.333 0 -33 2 -47 6s-25.667 7.66699 -35 11l9 19c11.333 -4 23 -7.66699 35 -11s24.667 -5 38 -5c9.33301 0 18.666 0.833008 27.999 2.5s17.666 4.5 24.999 8.5s13.333 9.5 18 16.5s7 15.5 7 25.5
c0 6.66699 -2 12.667 -6 18s-8.66699 9.5 -14 12.5s-11.333 5.33301 -18 7s-12.334 2.5 -17.001 2.5c-21.333 0 -39.333 -4.33301 -54 -13l-15 10l48 61c-35.333 1.33301 -66.5 9.33301 -93.5 24s-49.667 33.667 -68 57s-32.166 50.333 -41.499 81s-14 62.667 -14 96
c0 37.333 4.83301 73 14.5 107s24.334 63.833 44.001 89.5s44.5 46 74.5 61s65.667 22.5 107 22.5c25.333 0 49.333 -4 72 -12s42.667 -19.167 60 -33.5s31.5 -31.833 42.5 -52.5s18.167 -44 21.5 -70h-20c-7.33301 46.667 -26.833 83 -58.5 109s-70.834 39 -117.501 39
c-38 0 -70.833 -7 -98.5 -21s-50.5 -33 -68.5 -57s-31.333 -51.667 -40 -83s-13 -64.333 -13 -99c0 -31.333 4.5 -61.333 13.5 -90s22.167 -54 39.5 -76s39 -39.5 65 -52.5s56 -19.5 90 -19.5c25.333 0 49 3.83301 71 11.5s41.333 18.834 58 33.501s30.167 32.167 40.5 52.5
s16.5 43.5 18.5 69.5h20v0z" />
    <glyph glyph-name="egrave" unicode="&#xe8;" horiz-adv-x="510" 
d="M451 371c-9.33301 42.667 -29.667 75.833 -61 99.5s-69 35.5 -113 35.5c-38 0 -70.833 -7 -98.5 -21s-50.5 -33 -68.5 -57s-31.333 -51.667 -40 -83s-13 -64.333 -13 -99v-18l394 143v0zM472.999 174.999c-2.66699 -28.667 -9.66895 -54.501 -21.002 -77.501
s-26 -42.667 -44 -59s-39.167 -28.833 -63.5 -37.5s-50.833 -13 -79.5 -13c-37.333 0 -70.166 7 -98.499 21s-52 32.833 -71 56.5s-33.5 51 -43.5 82s-15 63.833 -15 98.5c0 37.333 4.83301 73 14.5 107s24.334 63.833 44.001 89.5s44.5 46 74.5 61s65.667 22.5 107 22.5
c25.333 0 49.333 -4 72 -12s42.667 -19.167 60 -33.5s31.5 -31.833 42.5 -52.5s18.167 -44 21.5 -70l-414 -151c3.33301 -27.333 10.333 -53 21 -77s24.5 -45 41.5 -63s37.5 -32.333 61.5 -43s51.333 -16 82 -16c25.333 0 49 3.83301 71 11.5s41.333 18.834 58 33.501
s30.167 32.167 40.5 52.5s16.5 43.5 18.5 69.5h20v0zM335.997 564.998l-139 144h29l125 -144h-15z" />
    <glyph glyph-name="eacute" unicode="&#xe9;" horiz-adv-x="510" 
d="M451 371c-9.33301 42.667 -29.667 75.833 -61 99.5s-69 35.5 -113 35.5c-38 0 -70.833 -7 -98.5 -21s-50.5 -33 -68.5 -57s-31.333 -51.667 -40 -83s-13 -64.333 -13 -99v-18l394 143v0zM472.999 174.999c-2.66699 -28.667 -9.66895 -54.501 -21.002 -77.501
s-26 -42.667 -44 -59s-39.167 -28.833 -63.5 -37.5s-50.833 -13 -79.5 -13c-37.333 0 -70.166 7 -98.499 21s-52 32.833 -71 56.5s-33.5 51 -43.5 82s-15 63.833 -15 98.5c0 37.333 4.83301 73 14.5 107s24.334 63.833 44.001 89.5s44.5 46 74.5 61s65.667 22.5 107 22.5
c25.333 0 49.333 -4 72 -12s42.667 -19.167 60 -33.5s31.5 -31.833 42.5 -52.5s18.167 -44 21.5 -70l-414 -151c3.33301 -27.333 10.333 -53 21 -77s24.5 -45 41.5 -63s37.5 -32.333 61.5 -43s51.333 -16 82 -16c25.333 0 49 3.83301 71 11.5s41.333 18.834 58 33.501
s30.167 32.167 40.5 52.5s16.5 43.5 18.5 69.5h20v0zM209.997 564.998h-15l132 144h29z" />
    <glyph glyph-name="ecircumflex" unicode="&#xea;" horiz-adv-x="510" 
d="M451 371c-9.33301 42.667 -29.667 75.833 -61 99.5s-69 35.5 -113 35.5c-38 0 -70.833 -7 -98.5 -21s-50.5 -33 -68.5 -57s-31.333 -51.667 -40 -83s-13 -64.333 -13 -99v-18l394 143v0zM472.999 174.999c-2.66699 -28.667 -9.66895 -54.501 -21.002 -77.501
s-26 -42.667 -44 -59s-39.167 -28.833 -63.5 -37.5s-50.833 -13 -79.5 -13c-37.333 0 -70.166 7 -98.499 21s-52 32.833 -71 56.5s-33.5 51 -43.5 82s-15 63.833 -15 98.5c0 37.333 4.83301 73 14.5 107s24.334 63.833 44.001 89.5s44.5 46 74.5 61s65.667 22.5 107 22.5
c25.333 0 49.333 -4 72 -12s42.667 -19.167 60 -33.5s31.5 -31.833 42.5 -52.5s18.167 -44 21.5 -70l-414 -151c3.33301 -27.333 10.333 -53 21 -77s24.5 -45 41.5 -63s37.5 -32.333 61.5 -43s51.333 -16 82 -16c25.333 0 49 3.83301 71 11.5s41.333 18.834 58 33.501
s30.167 32.167 40.5 52.5s16.5 43.5 18.5 69.5h20v0zM380.997 569.998l-103 123l-99 -123h-20l113 139h15l114 -139h-20z" />
    <glyph glyph-name="edieresis" unicode="&#xeb;" horiz-adv-x="510" 
d="M451 371c-9.33301 42.667 -29.667 75.833 -61 99.5s-69 35.5 -113 35.5c-38 0 -70.833 -7 -98.5 -21s-50.5 -33 -68.5 -57s-31.333 -51.667 -40 -83s-13 -64.333 -13 -99v-18l394 143v0zM472.999 174.999c-2.66699 -28.667 -9.66895 -54.501 -21.002 -77.501
s-26 -42.667 -44 -59s-39.167 -28.833 -63.5 -37.5s-50.833 -13 -79.5 -13c-37.333 0 -70.166 7 -98.499 21s-52 32.833 -71 56.5s-33.5 51 -43.5 82s-15 63.833 -15 98.5c0 37.333 4.83301 73 14.5 107s24.334 63.833 44.001 89.5s44.5 46 74.5 61s65.667 22.5 107 22.5
c25.333 0 49.333 -4 72 -12s42.667 -19.167 60 -33.5s31.5 -31.833 42.5 -52.5s18.167 -44 21.5 -70l-414 -151c3.33301 -27.333 10.333 -53 21 -77s24.5 -45 41.5 -63s37.5 -32.333 61.5 -43s51.333 -16 82 -16c25.333 0 49 3.83301 71 11.5s41.333 18.834 58 33.501
s30.167 32.167 40.5 52.5s16.5 43.5 18.5 69.5h20v0zM229.997 608.998c0 -7.33301 -2.66699 -13.666 -8 -18.999s-11.666 -8 -18.999 -8s-13.666 2.66699 -18.999 8s-8 11.666 -8 18.999s2.66699 13.666 8 18.999s11.666 8 18.999 8s13.666 -2.66699 18.999 -8
s8 -11.666 8 -18.999zM384.997 608.998c0 -7.33301 -2.66699 -13.666 -8 -18.999s-11.666 -8 -18.999 -8s-13.666 2.66699 -18.999 8s-8 11.666 -8 18.999s2.66699 13.666 8 18.999s11.666 8 18.999 8s13.666 -2.66699 18.999 -8s8 -11.666 8 -18.999z" />
    <glyph glyph-name="igrave" unicode="&#xec;" horiz-adv-x="128" 
d="M54 0v514h20v-514h-20zM131 565l-139 144h29l125 -144h-15z" />
    <glyph glyph-name="iacute" unicode="&#xed;" horiz-adv-x="128" 
d="M54 0v514h20v-514h-20zM5 565h-15l132 144h29z" />
    <glyph glyph-name="icircumflex" unicode="&#xee;" horiz-adv-x="128" 
d="M54 0v514h20v-514h-20zM166 570l-103 123l-99 -123h-20l113 139h15l114 -139h-20z" />
    <glyph glyph-name="idieresis" unicode="&#xef;" horiz-adv-x="128" 
d="M54 0v514h20v-514h-20zM15 609c0 -7.33301 -2.66699 -13.666 -8 -18.999s-11.666 -8 -18.999 -8s-13.666 2.66699 -18.999 8s-8 11.666 -8 18.999s2.66699 13.666 8 18.999s11.666 8 18.999 8s13.666 -2.66699 18.999 -8s8 -11.666 8 -18.999zM170 609
c0 -7.33301 -2.66699 -13.666 -8 -18.999s-11.666 -8 -18.999 -8s-13.666 2.66699 -18.999 8s-8 11.666 -8 18.999s2.66699 13.666 8 18.999s11.666 8 18.999 8s13.666 -2.66699 18.999 -8s8 -11.666 8 -18.999z" />
    <glyph glyph-name="eth" unicode="&#xf0;" horiz-adv-x="537" 
d="M480 247c0 31.333 -4.66699 61.5 -14 90.5s-23 54.5 -41 76.5s-40 39.5 -66 52.5s-56 19.5 -90 19.5s-64.167 -6.5 -90.5 -19.5s-48.5 -30.5 -66.5 -52.5s-31.667 -47.333 -41 -76s-14 -59 -14 -91s4.66699 -62.5 14 -91.5s23 -54.333 41 -76s40.167 -39 66.5 -52
s56.5 -19.5 90.5 -19.5s64.167 6.5 90.5 19.5s48.333 30.5 66 52.5s31.167 47.5 40.5 76.5s14 59.167 14 90.5zM500 247c0 -34.667 -5.16699 -67.666 -15.5 -98.999s-25.333 -58.833 -45 -82.5s-44 -42.5 -73 -56.5s-61.833 -21 -98.5 -21c-37.333 0 -70.333 7 -99 21
s-52.667 32.833 -72 56.5s-34.166 51.167 -44.499 82.5s-15.5 64.333 -15.5 99s5.16699 67.667 15.5 99s25.333 58.833 45 82.5s43.834 42.5 72.501 56.5s61.667 21 99 21c31.333 0 62.166 -6.33301 92.499 -19s55.166 -31.667 74.499 -57
c-9.33301 18 -20.5 36.667 -33.5 56s-27 38.166 -42 56.499s-30.5 35.833 -46.5 52.5s-31.667 31.667 -47 45l-122 -68l-15 15l121 67c-29.333 22.667 -60.333 42.667 -93 60l16 14c35.333 -18.667 67.333 -40 96 -64l123 68l15 -16l-120 -67c30 -28 58 -56.5 84 -85.5
s48.5 -59.833 67.5 -92.5s33.833 -67.5 44.5 -104.5s16 -76.833 16 -119.5z" />
    <glyph glyph-name="ntilde" unicode="&#xf1;" horiz-adv-x="498" 
d="M424 0l-0.000976562 338.001c0 52 -14.167 93 -42.5 123s-68.5 45 -120.5 45c-30.667 0 -57.667 -5.83301 -81 -17.5s-42.833 -27.334 -58.5 -47.001s-27.5 -42.5 -35.5 -68.5s-12 -53.333 -12 -82v-291h-20v514h20v-127c11.333 45.333 34 79.833 68 103.5
s73.667 35.5 119 35.5c56.667 0 101.334 -16.667 134.001 -50s49 -78.333 49 -135v-341h-20zM401.999 656.001c0 -19.333 -5.66699 -36.667 -17 -52s-28.666 -23 -51.999 -23c-12.667 0 -24.334 3 -35.001 9s-21 12.667 -31 20s-20 14 -30 20s-20.333 9 -31 9
c-7.33301 0 -13.833 -1.83301 -19.5 -5.5s-10.667 -8.5 -15 -14.5s-7.66602 -12.5 -9.99902 -19.5s-3.5 -13.5 -3.5 -19.5h-20c0 9.33301 1.83301 18.666 5.5 27.999s8.66699 17.833 15 25.5s13.666 13.834 21.999 18.501s16.833 7 25.5 7c11.333 0 22.5 -3 33.5 -9
s21.833 -12.667 32.5 -20s21 -14 31 -20s20 -9 30 -9c15.333 0 27.333 5.66699 36 17s13 24 13 38h20v0z" />
    <glyph glyph-name="ograve" unicode="&#xf2;" horiz-adv-x="537" 
d="M480 257c0 32 -4.5 63 -13.5 93s-22.5 56.5 -40.5 79.5s-40.167 41.5 -66.5 55.5s-56.5 21 -90.5 21c-34.667 0 -65.167 -7 -91.5 -21s-48.5 -32.5 -66.5 -55.5s-31.5 -49.5 -40.5 -79.5s-13.5 -61 -13.5 -93c0 -32.667 4.5 -64 13.5 -94s22.5 -56.5 40.5 -79.5
s40.167 -41.333 66.5 -55s56.833 -20.5 91.5 -20.5c34 0 64.167 6.83301 90.5 20.5s48.5 32 66.5 55s31.5 49.5 40.5 79.5s13.5 61.333 13.5 94zM500 257c0 -35.333 -5.00098 -69.166 -15.001 -101.499s-24.833 -61 -44.5 -86s-43.834 -44.833 -72.501 -59.5
s-62 -22 -100 -22c-37.333 0 -70.5 7.33301 -99.5 22s-53.167 34.5 -72.5 59.5s-34 53.667 -44 86s-15 66.166 -15 101.499c0 34.667 5 68.334 15 101.001s24.833 61.334 44.5 86.001s43.834 44.5 72.501 59.5s62 22.5 100 22.5c37.333 0 70.333 -7.5 99 -22.5
s52.834 -34.833 72.501 -59.5s34.5 -53.334 44.5 -86.001s15 -66.334 15 -101.001zM325.999 565l-139 144h29l125 -144h-15z" />
    <glyph glyph-name="oacute" unicode="&#xf3;" horiz-adv-x="537" 
d="M480 257c0 32 -4.5 63 -13.5 93s-22.5 56.5 -40.5 79.5s-40.167 41.5 -66.5 55.5s-56.5 21 -90.5 21c-34.667 0 -65.167 -7 -91.5 -21s-48.5 -32.5 -66.5 -55.5s-31.5 -49.5 -40.5 -79.5s-13.5 -61 -13.5 -93c0 -32.667 4.5 -64 13.5 -94s22.5 -56.5 40.5 -79.5
s40.167 -41.333 66.5 -55s56.833 -20.5 91.5 -20.5c34 0 64.167 6.83301 90.5 20.5s48.5 32 66.5 55s31.5 49.5 40.5 79.5s13.5 61.333 13.5 94zM500 257c0 -35.333 -5.00098 -69.166 -15.001 -101.499s-24.833 -61 -44.5 -86s-43.834 -44.833 -72.501 -59.5
s-62 -22 -100 -22c-37.333 0 -70.5 7.33301 -99.5 22s-53.167 34.5 -72.5 59.5s-34 53.667 -44 86s-15 66.166 -15 101.499c0 34.667 5 68.334 15 101.001s24.833 61.334 44.5 86.001s43.834 44.5 72.501 59.5s62 22.5 100 22.5c37.333 0 70.333 -7.5 99 -22.5
s52.834 -34.833 72.501 -59.5s34.5 -53.334 44.5 -86.001s15 -66.334 15 -101.001zM219.999 565h-15l132 144h29z" />
    <glyph glyph-name="ocircumflex" unicode="&#xf4;" horiz-adv-x="537" 
d="M480 257c0 32 -4.5 63 -13.5 93s-22.5 56.5 -40.5 79.5s-40.167 41.5 -66.5 55.5s-56.5 21 -90.5 21c-34.667 0 -65.167 -7 -91.5 -21s-48.5 -32.5 -66.5 -55.5s-31.5 -49.5 -40.5 -79.5s-13.5 -61 -13.5 -93c0 -32.667 4.5 -64 13.5 -94s22.5 -56.5 40.5 -79.5
s40.167 -41.333 66.5 -55s56.833 -20.5 91.5 -20.5c34 0 64.167 6.83301 90.5 20.5s48.5 32 66.5 55s31.5 49.5 40.5 79.5s13.5 61.333 13.5 94zM500 257c0 -35.333 -5.00098 -69.166 -15.001 -101.499s-24.833 -61 -44.5 -86s-43.834 -44.833 -72.501 -59.5
s-62 -22 -100 -22c-37.333 0 -70.5 7.33301 -99.5 22s-53.167 34.5 -72.5 59.5s-34 53.667 -44 86s-15 66.166 -15 101.499c0 34.667 5 68.334 15 101.001s24.833 61.334 44.5 86.001s43.834 44.5 72.501 59.5s62 22.5 100 22.5c37.333 0 70.333 -7.5 99 -22.5
s52.834 -34.833 72.501 -59.5s34.5 -53.334 44.5 -86.001s15 -66.334 15 -101.001zM370.999 570l-103 123l-99 -123h-20l113 139h15l114 -139h-20z" />
    <glyph glyph-name="otilde" unicode="&#xf5;" horiz-adv-x="537" 
d="M480 257c0 32 -4.5 63 -13.5 93s-22.5 56.5 -40.5 79.5s-40.167 41.5 -66.5 55.5s-56.5 21 -90.5 21c-34.667 0 -65.167 -7 -91.5 -21s-48.5 -32.5 -66.5 -55.5s-31.5 -49.5 -40.5 -79.5s-13.5 -61 -13.5 -93c0 -32.667 4.5 -64 13.5 -94s22.5 -56.5 40.5 -79.5
s40.167 -41.333 66.5 -55s56.833 -20.5 91.5 -20.5c34 0 64.167 6.83301 90.5 20.5s48.5 32 66.5 55s31.5 49.5 40.5 79.5s13.5 61.333 13.5 94zM500 257c0 -35.333 -5.00098 -69.166 -15.001 -101.499s-24.833 -61 -44.5 -86s-43.834 -44.833 -72.501 -59.5
s-62 -22 -100 -22c-37.333 0 -70.5 7.33301 -99.5 22s-53.167 34.5 -72.5 59.5s-34 53.667 -44 86s-15 66.166 -15 101.499c0 34.667 5 68.334 15 101.001s24.833 61.334 44.5 86.001s43.834 44.5 72.501 59.5s62 22.5 100 22.5c37.333 0 70.333 -7.5 99 -22.5
s52.834 -34.833 72.501 -59.5s34.5 -53.334 44.5 -86.001s15 -66.334 15 -101.001zM401.999 656c0 -19.333 -5.66699 -36.667 -17 -52s-28.666 -23 -51.999 -23c-12.667 0 -24.334 3 -35.001 9s-21 12.667 -31 20s-20 14 -30 20s-20.333 9 -31 9
c-7.33301 0 -13.833 -1.83301 -19.5 -5.5s-10.667 -8.5 -15 -14.5s-7.66602 -12.5 -9.99902 -19.5s-3.5 -13.5 -3.5 -19.5h-20c0 9.33301 1.83301 18.666 5.5 27.999s8.66699 17.833 15 25.5s13.666 13.834 21.999 18.501s16.833 7 25.5 7c11.333 0 22.5 -3 33.5 -9
s21.833 -12.667 32.5 -20s21 -14 31 -20s20 -9 30 -9c15.333 0 27.333 5.66699 36 17s13 24 13 38h20v0z" />
    <glyph glyph-name="odieresis" unicode="&#xf6;" horiz-adv-x="537" 
d="M480 257c0 32 -4.5 63 -13.5 93s-22.5 56.5 -40.5 79.5s-40.167 41.5 -66.5 55.5s-56.5 21 -90.5 21c-34.667 0 -65.167 -7 -91.5 -21s-48.5 -32.5 -66.5 -55.5s-31.5 -49.5 -40.5 -79.5s-13.5 -61 -13.5 -93c0 -32.667 4.5 -64 13.5 -94s22.5 -56.5 40.5 -79.5
s40.167 -41.333 66.5 -55s56.833 -20.5 91.5 -20.5c34 0 64.167 6.83301 90.5 20.5s48.5 32 66.5 55s31.5 49.5 40.5 79.5s13.5 61.333 13.5 94zM500 257c0 -35.333 -5.00098 -69.166 -15.001 -101.499s-24.833 -61 -44.5 -86s-43.834 -44.833 -72.501 -59.5
s-62 -22 -100 -22c-37.333 0 -70.5 7.33301 -99.5 22s-53.167 34.5 -72.5 59.5s-34 53.667 -44 86s-15 66.166 -15 101.499c0 34.667 5 68.334 15 101.001s24.833 61.334 44.5 86.001s43.834 44.5 72.501 59.5s62 22.5 100 22.5c37.333 0 70.333 -7.5 99 -22.5
s52.834 -34.833 72.501 -59.5s34.5 -53.334 44.5 -86.001s15 -66.334 15 -101.001zM219.999 609c0 -7.33301 -2.66699 -13.666 -8 -18.999s-11.666 -8 -18.999 -8s-13.666 2.66699 -18.999 8s-8 11.666 -8 18.999s2.66699 13.666 8 18.999s11.666 8 18.999 8
s13.666 -2.66699 18.999 -8s8 -11.666 8 -18.999zM374.999 609c0 -7.33301 -2.66699 -13.666 -8 -18.999s-11.666 -8 -18.999 -8s-13.666 2.66699 -18.999 8s-8 11.666 -8 18.999s2.66699 13.666 8 18.999s11.666 8 18.999 8s13.666 -2.66699 18.999 -8s8 -11.666 8 -18.999
z" />
    <glyph glyph-name="divide" unicode="&#xf7;" horiz-adv-x="594" 
d="M338 148c0 -11.333 -3 -21 -9 -29s-16.667 -12 -32 -12c-14.667 0 -25.167 4 -31.5 12s-9.5 17.667 -9.5 29c0 12 4 21.833 12 29.5s17.667 11.5 29 11.5s21 -4 29 -12s12 -17.667 12 -29zM45 350v20h504v-20h-504zM338 572c0 -11.333 -3 -21 -9 -29s-16.667 -12 -32 -12
c-14.667 0 -25.167 4 -31.5 12s-9.5 17.667 -9.5 29c0 12 4 21.833 12 29.5s17.667 11.5 29 11.5s21 -4 29 -12s12 -17.667 12 -29z" />
    <glyph glyph-name="oslash" unicode="&#xf8;" horiz-adv-x="537" 
d="M480 257c0 30 -4 58.666 -12 85.999s-19.667 52.333 -35 75l-320 -335c17.333 -23.333 39 -41.666 65 -54.999s56.333 -20 91 -20c34 0 64.167 6.83301 90.5 20.5s48.5 32 66.5 55s31.5 49.5 40.5 79.5s13.5 61.333 13.5 94zM421 433.999
c-17.333 22 -38.5 39.5 -63.5 52.5s-54.5 19.5 -88.5 19.5c-34.667 0 -65.167 -7 -91.5 -21s-48.5 -32.5 -66.5 -55.5s-31.5 -49.5 -40.5 -79.5s-13.5 -61 -13.5 -93c0 -29.333 3.66699 -57.5 11 -84.5s18.333 -51.5 33 -73.5l320 335v0zM500 256.999
c0 -35.333 -5.00195 -69.1709 -15.002 -101.504s-24.833 -61 -44.5 -86s-43.834 -44.833 -72.501 -59.5s-62 -22 -100 -22c-37.333 0 -70.166 7.16699 -98.499 21.5s-52.166 33.5 -71.499 57.5l-57 -59l-14 14l60 62c-16.667 23.333 -29.167 50 -37.5 80s-12.5 61 -12.5 93
c0 34.667 5 68.334 15 101.001s24.833 61.334 44.5 86.001s43.834 44.5 72.501 59.5s62 22.5 100 22.5c36 0 68 -6.83301 96 -20.5s51.667 -32.5 71 -56.5l45 47l14 -14l-47 -49c17.333 -23.333 30.333 -50.166 39 -80.499s13 -62.166 13 -95.499z" />
    <glyph glyph-name="ugrave" unicode="&#xf9;" horiz-adv-x="498" 
d="M424 0l0.000976562 126.999c-11.333 -45.333 -34 -79.833 -68 -103.5s-73.667 -35.5 -119 -35.5c-56.667 0 -101.334 16.667 -134.001 50s-49 78.333 -49 135v341h20v-338c0 -52 14.167 -93 42.5 -123s68.5 -45 120.5 -45c30.667 0 57.667 5.83301 81 17.5
s42.833 27.334 58.5 47.001s27.5 42.5 35.5 68.5s12 53.333 12 82v291h20v-514h-20zM296.001 564.999l-139 144h29l125 -144h-15z" />
    <glyph glyph-name="uacute" unicode="&#xfa;" horiz-adv-x="498" 
d="M424 0l0.000976562 126.999c-11.333 -45.333 -34 -79.833 -68 -103.5s-73.667 -35.5 -119 -35.5c-56.667 0 -101.334 16.667 -134.001 50s-49 78.333 -49 135v341h20v-338c0 -52 14.167 -93 42.5 -123s68.5 -45 120.5 -45c30.667 0 57.667 5.83301 81 17.5
s42.833 27.334 58.5 47.001s27.5 42.5 35.5 68.5s12 53.333 12 82v291h20v-514h-20zM190.001 564.999h-15l132 144h29z" />
    <glyph glyph-name="ucircumflex" unicode="&#xfb;" horiz-adv-x="498" 
d="M424 0l0.000976562 126.999c-11.333 -45.333 -34 -79.833 -68 -103.5s-73.667 -35.5 -119 -35.5c-56.667 0 -101.334 16.667 -134.001 50s-49 78.333 -49 135v341h20v-338c0 -52 14.167 -93 42.5 -123s68.5 -45 120.5 -45c30.667 0 57.667 5.83301 81 17.5
s42.833 27.334 58.5 47.001s27.5 42.5 35.5 68.5s12 53.333 12 82v291h20v-514h-20zM351.001 569.999l-103 123l-99 -123h-20l113 139h15l114 -139h-20z" />
    <glyph glyph-name="udieresis" unicode="&#xfc;" horiz-adv-x="498" 
d="M424 0l0.000976562 126.999c-11.333 -45.333 -34 -79.833 -68 -103.5s-73.667 -35.5 -119 -35.5c-56.667 0 -101.334 16.667 -134.001 50s-49 78.333 -49 135v341h20v-338c0 -52 14.167 -93 42.5 -123s68.5 -45 120.5 -45c30.667 0 57.667 5.83301 81 17.5
s42.833 27.334 58.5 47.001s27.5 42.5 35.5 68.5s12 53.333 12 82v291h20v-514h-20zM200.001 608.999c0 -7.33301 -2.66699 -13.666 -8 -18.999s-11.666 -8 -18.999 -8s-13.666 2.66699 -18.999 8s-8 11.666 -8 18.999s2.66699 13.666 8 18.999s11.666 8 18.999 8
s13.666 -2.66699 18.999 -8s8 -11.666 8 -18.999zM355.001 608.999c0 -7.33301 -2.66699 -13.666 -8 -18.999s-11.666 -8 -18.999 -8s-13.666 2.66699 -18.999 8s-8 11.666 -8 18.999s2.66699 13.666 8 18.999s11.666 8 18.999 8s13.666 -2.66699 18.999 -8
s8 -11.666 8 -18.999z" />
    <glyph glyph-name="yacute" unicode="&#xfd;" horiz-adv-x="498" 
d="M444 -17c0 -70.667 -18.833 -122.67 -56.5 -156.003s-90.167 -50 -157.5 -50c-26 0 -50.667 3 -74 9s-44 15.5 -62 28.5s-32.333 29.833 -43 50.5s-16.334 45.334 -17.001 74.001h20c0.666992 -25.333 5.83398 -47 15.501 -65s22.5 -32.667 38.5 -44
s34.333 -19.666 55 -24.999s42.667 -8 66 -8c62.667 0 110.834 15 144.501 45s50.5 77 50.5 141v144c-11.333 -45.333 -34 -79.833 -68 -103.5s-73.667 -35.5 -119 -35.5c-56.667 0 -101.334 16.667 -134.001 50s-49 78.333 -49 135v341h20v-338c0 -52 14.167 -93 42.5 -123
s68.5 -45 120.5 -45c30.667 0 57.667 5.83301 81 17.5s42.833 27.334 58.5 47.001s27.5 42.5 35.5 68.5s12 53.333 12 82v291h20v-531v0zM204 586.997h-15l132 144h29z" />
    <glyph glyph-name="thorn" unicode="&#xfe;" horiz-adv-x="527" 
d="M470 246c0 30 -3.83301 60.501 -11.5 91.501s-20 59 -37 84s-39.667 45.333 -68 61s-62.833 23.5 -103.5 23.5c-21.333 0 -42.5 -3.83301 -63.5 -11.5s-39.833 -18.167 -56.5 -31.5s-30.167 -29 -40.5 -47s-15.5 -37.333 -15.5 -58v-183c0 -26 5 -49.167 15 -69.5
s23.667 -37.833 41 -52.5s37.333 -25.834 60 -33.501s46.667 -11.5 72 -11.5c34 0 64 6.5 90 19.5s47.667 30.5 65 52.5s30.5 47.333 39.5 76s13.5 58.667 13.5 90zM490 246.001c0 -35.333 -5 -68.4971 -15 -99.4971s-24.667 -58.333 -44 -82
s-43.166 -42.334 -71.499 -56.001s-60.833 -20.5 -97.5 -20.5c-44 0 -82.167 9.66699 -114.5 29s-56.833 46.666 -73.5 81.999v-305h-20v926h20v-295c17.333 33.333 41.666 58.5 72.999 75.5s65.666 25.5 102.999 25.5c41.333 0 77 -7.66699 107 -23
s54.833 -35.833 74.5 -61.5s34.334 -55.334 44.001 -89.001s14.5 -69.167 14.5 -106.5z" />
    <glyph glyph-name="ydieresis" unicode="&#xff;" horiz-adv-x="498" 
d="M444 -17c0 -70.667 -18.833 -122.67 -56.5 -156.003s-90.167 -50 -157.5 -50c-26 0 -50.667 3 -74 9s-44 15.5 -62 28.5s-32.333 29.833 -43 50.5s-16.334 45.334 -17.001 74.001h20c0.666992 -25.333 5.83398 -47 15.501 -65s22.5 -32.667 38.5 -44
s34.333 -19.666 55 -24.999s42.667 -8 66 -8c62.667 0 110.834 15 144.501 45s50.5 77 50.5 141v144c-11.333 -45.333 -34 -79.833 -68 -103.5s-73.667 -35.5 -119 -35.5c-56.667 0 -101.334 16.667 -134.001 50s-49 78.333 -49 135v341h20v-338c0 -52 14.167 -93 42.5 -123
s68.5 -45 120.5 -45c30.667 0 57.667 5.83301 81 17.5s42.833 27.334 58.5 47.001s27.5 42.5 35.5 68.5s12 53.333 12 82v291h20v-531v0zM204 630.997c0 -7.33301 -2.66699 -13.666 -8 -18.999s-11.666 -8 -18.999 -8s-13.666 2.66699 -18.999 8s-8 11.666 -8 18.999
s2.66699 13.666 8 18.999s11.666 8 18.999 8s13.666 -2.66699 18.999 -8s8 -11.666 8 -18.999zM359 630.997c0 -7.33301 -2.66699 -13.666 -8 -18.999s-11.666 -8 -18.999 -8s-13.666 2.66699 -18.999 8s-8 11.666 -8 18.999s2.66699 13.666 8 18.999s11.666 8 18.999 8
s13.666 -2.66699 18.999 -8s8 -11.666 8 -18.999z" />
    <glyph glyph-name="dotlessi" unicode="&#x131;" horiz-adv-x="128" 
d="M54 0v514h20v-514h-20z" />
    <glyph glyph-name="Lslash" unicode="&#x141;" 
d="M494 84c0 -23.333 -6.83203 -43.167 -20.499 -59.5s-38.834 -24.5 -75.501 -24.5h-344v269l-54 -38v24l54 38v427h20v-413l191 134v-24l-191 -134v-263h320c19.333 0 34.333 2.16699 45 6.5s18.667 9.83301 24 16.5s8.5 14 9.5 22s1.5 16 1.5 24l20 -5v0z" />
    <glyph glyph-name="lslash" unicode="&#x142;" horiz-adv-x="128" 
d="M74 391v-391h-20v374l-54 -47v25l54 47v321h20v-304l54 47v-25z" />
    <glyph glyph-name="OE" unicode="&#x152;" horiz-adv-x="1086" 
d="M646 506c-3.33301 32.667 -13.6699 62.1689 -31.0029 88.502s-38.833 48.5 -64.5 66.5s-54 31.833 -85 41.5s-61.833 14.5 -92.5 14.5c-51.333 0 -96.5 -10 -135.5 -30s-72 -46.833 -99 -80.5s-47.333 -72.334 -61 -116.001s-20.5 -89.167 -20.5 -136.5
c0 -45.333 6.66699 -89 20 -131s32.833 -79.333 58.5 -112s57.334 -58.834 95.001 -78.501s80.834 -29.5 129.501 -29.5c42.667 0 80.5 7 113.5 21s61.333 33.167 85 57.5s42.834 53.5 57.501 87.5s24.667 71 30 111v226zM645.996 0.00195312l0.000976562 193.002
c-10.667 -31.333 -24.5 -59.833 -41.5 -85.5s-37.5 -47.834 -61.5 -66.501s-51.167 -33 -81.5 -43s-64.166 -15 -101.499 -15c-52 0 -98 10.333 -138 31s-73.833 48.167 -101.5 82.5s-48.5 73.833 -62.5 118.5s-21 91 -21 139c0 50.667 7.16699 99.167 21.5 145.5
s35.666 87.166 63.999 122.499s63.5 63.333 105.5 84s90.333 31 145 31c25.333 0 51.666 -3.5 78.999 -10.5s53.333 -17.167 78 -30.5s47.167 -29.5 67.5 -48.5s36.5 -40.5 48.5 -64.5v137h391v-20h-371v-330h344v-20h-344v-330h375v-20h-395z" />
    <glyph glyph-name="oe" unicode="&#x153;" horiz-adv-x="953" 
d="M480 257c0 32 -4.5 63 -13.5 93s-22.5 56.5 -40.5 79.5s-40.167 41.5 -66.5 55.5s-56.5 21 -90.5 21c-34.667 0 -65.167 -7 -91.5 -21s-48.5 -32.5 -66.5 -55.5s-31.5 -49.5 -40.5 -79.5s-13.5 -61 -13.5 -93c0 -32.667 4.5 -64 13.5 -94s22.5 -56.5 40.5 -79.5
s40.167 -41.333 66.5 -55s56.833 -20.5 91.5 -20.5c34 0 64.167 6.83301 90.5 20.5s48.5 32 66.5 55s31.5 49.5 40.5 79.5s13.5 61.333 13.5 94zM894 370c-9.33301 42.667 -29.667 75.833 -61 99.5s-69 35.5 -113 35.5c-38 0 -70.833 -7 -98.5 -21s-50.5 -33 -68.5 -57
s-31.333 -51.667 -40 -83s-13 -64.333 -13 -99v-18l394 143v0zM915.999 173.999c-2.66699 -28.667 -9.67188 -54.501 -21.0049 -77.501s-26 -42.667 -44 -59s-39.167 -28.833 -63.5 -37.5s-50.833 -13 -79.5 -13c-30 0 -57 4.66699 -81 14s-45.333 22.166 -64 38.499
s-34.167 35.5 -46.5 57.5s-21.5 45.667 -27.5 71c-6.66699 -25.333 -16.5 -49 -29.5 -71s-28.667 -41 -47 -57s-39.666 -28.667 -63.999 -38s-51.166 -14 -80.499 -14c-37.333 0 -70.5 7.33301 -99.5 22s-53.167 34.5 -72.5 59.5s-34 53.667 -44 86s-15 66.166 -15 101.499
c0 34.667 5 68.334 15 101.001s24.833 61.334 44.5 86.001s43.834 44.5 72.501 59.5s62 22.5 100 22.5c30 0 57.167 -4.83301 81.5 -14.5s45.833 -23 64.5 -40s34.334 -37 47.001 -60s22.334 -47.5 29.001 -73.5c6.66699 26.667 16.167 51.5 28.5 74.5s28 42.833 47 59.5
s41.333 29.667 67 39s54.5 14 86.5 14c25.333 0 49.333 -4 72 -12s42.667 -19.167 60 -33.5s31.5 -31.833 42.5 -52.5s18.167 -44 21.5 -70l-414 -151c3.33301 -27.333 10.333 -53 21 -77s24.5 -45 41.5 -63s37.5 -32.333 61.5 -43s51.333 -16 82 -16
c25.333 0 49 3.83301 71 11.5s41.333 18.834 58 33.501s30.167 32.167 40.5 52.5s16.5 43.5 18.5 69.5h20v0z" />
    <glyph glyph-name="Scaron" unicode="&#x160;" horiz-adv-x="570" 
d="M547 177c0 -34 -6.50293 -63.165 -19.5029 -87.498s-30.333 -44.333 -52 -60s-46.5 -27.334 -74.5 -35.001s-57.333 -11.5 -88 -11.5c-40.667 0 -79.167 4.83301 -115.5 14.5s-68 24.834 -95 45.501s-48.333 47.167 -64 79.5s-23.167 71.166 -22.5 116.499h20
c0 -42.667 7.33301 -79 22 -109s34.5 -54.333 59.5 -73s54.333 -32.334 88 -41.001s69.5 -13 107.5 -13c28 0 54.833 3.33301 80.5 10s48.5 17 68.5 31s35.833 32 47.5 54s17.5 48.333 17.5 79c0 36 -7.83301 64.667 -23.5 86s-35.667 38.166 -60 50.499
s-51.333 21.833 -81 28.5l-85.5 20c-29.333 6.66699 -58.166 13.834 -86.499 21.501s-54 18 -77 31s-41.5 30.167 -55.5 51.5s-21 49.666 -21 84.999s7.33301 65 22 89s33.667 43.167 57 57.5s49.5 24.5 78.5 30.5s57.833 9 86.5 9c34.667 0 67 -3.83301 97 -11.5
s56.167 -20.167 78.5 -37.5s40.166 -40 53.499 -68s21 -62 23 -102h-20c-1.33301 36.667 -8.16602 67.667 -20.499 93s-28.666 45.833 -48.999 61.5s-44.5 27 -72.5 34s-58 10.5 -90 10.5c-25.333 0 -51.166 -2.66699 -77.499 -8s-50.333 -14.166 -72 -26.499
s-39.5 -29.166 -53.5 -50.499s-21 -48 -21 -80s7.16699 -57.833 21.5 -77.5s33 -35.5 56 -47.5s49.167 -21.5 78.5 -28.5l90 -21.5c33.333 -8 64.833 -16 94.5 -24s55.5 -18.833 77.5 -32.5s39.5 -31.834 52.5 -54.501s19.5 -52.667 19.5 -90v1zM293.997 792.002h-15
l-114 139h20l103 -123l99 123h20z" />
    <glyph glyph-name="scaron" unicode="&#x161;" horiz-adv-x="434" 
d="M411 131c0 -26 -5.50488 -47.998 -16.5049 -65.998s-25.333 -32.667 -43 -44s-37.667 -19.666 -60 -24.999s-44.5 -8 -66.5 -8c-68 0 -119.667 15.167 -155 45.5s-53 77.833 -53 142.5h20c0 -57.333 16.333 -99.666 49 -126.999s79 -41 139 -41
c18.667 0 37.834 2.16699 57.501 6.5s37.5 11.333 53.5 21s29.167 22.167 39.5 37.5s15.5 34 15.5 56c0 22.667 -5.16699 41 -15.5 55s-23.666 25.5 -39.999 34.5s-35.166 16.167 -56.499 21.5l-65 16l-63.5 15.5c-21 5 -40 12.333 -57 22s-30.667 22.5 -41 38.5
s-15.5 37.667 -15.5 65c0 14 3 28.667 9 44s16 29.333 30 42s32 23 54 31s49 12 81 12c57.333 0 102.666 -13 135.999 -39s50 -67.667 50 -125h-20c0 26 -4 48 -12 66s-19.333 32.833 -34 44.5s-32.167 20.167 -52.5 25.5s-42.833 8 -67.5 8
c-36 0 -64.333 -4.83301 -85 -14.5s-36 -20.834 -46 -33.501s-16.333 -24.834 -19 -36.501s-4 -19.834 -4 -24.501c0 -25.333 6.33301 -45.333 19 -60s28.334 -26.167 47.001 -34.5s39 -14.833 61 -19.5s42.667 -9.33398 62 -14.001l59.5 -16.5
c19.667 -5.66699 37.334 -13.5 53.001 -23.5s28.334 -22.667 38.001 -38s14.5 -35.333 14.5 -60zM224.995 592.002h-15l-114 139h20l103 -123l99 123h20z" />
    <glyph glyph-name="Ydieresis" unicode="&#x178;" 
d="M440 545c0 -60.667 -15.3301 -107.832 -45.9971 -141.499s-76.334 -51.5 -137.001 -53.5v-350h-20v350c-60.667 2 -106.334 19.833 -137.001 53.5s-46 80.834 -46 141.501v175h20v-152c0 -32 3 -60.333 9 -85s15.667 -45.334 29 -62.001s31.166 -29.334 53.499 -38.001
s49.5 -13 81.5 -13c32.667 0 60 4.33301 82 13s39.667 21.5 53 38.5s23 37.667 29 62s9 52.5 9 84.5v152h20v-175v0zM199.003 809.002c0 -7.33301 -2.66699 -13.666 -8 -18.999s-11.666 -8 -18.999 -8s-13.666 2.66699 -18.999 8s-8 11.666 -8 18.999
s2.66699 13.666 8 18.999s11.666 8 18.999 8s13.666 -2.66699 18.999 -8s8 -11.666 8 -18.999zM354.003 809.002c0 -7.33301 -2.66699 -13.666 -8 -18.999s-11.666 -8 -18.999 -8s-13.666 2.66699 -18.999 8s-8 11.666 -8 18.999s2.66699 13.666 8 18.999s11.666 8 18.999 8
s13.666 -2.66699 18.999 -8s8 -11.666 8 -18.999z" />
    <glyph glyph-name="Zcaron" unicode="&#x17d;" horiz-adv-x="519" 
d="M529 84c0 -23.333 -6.83203 -43.167 -20.499 -59.5s-38.834 -24.5 -75.501 -24.5h-433v27l504 673h-471v20h491v-27l-504 -673h409c19.333 0 34.333 2.16699 45 6.5s18.667 9.83301 24 16.5s8.5 14 9.5 22s1.5 16 1.5 24l20 -5v0zM278.001 791.999h-15l-114 139h20
l103 -123l99 123h20z" />
    <glyph glyph-name="zcaron" unicode="&#x17e;" horiz-adv-x="407" 
d="M407 84c0 -23.333 -6.83203 -43.167 -20.499 -59.5s-38.834 -24.5 -75.501 -24.5h-306v25l360 469h-333v20h354v-25l-360 -469h281c19.333 0 34.333 2.16699 45 6.5s18.667 9.83301 24 16.5s8.5 14 9.5 22s1.5 16 1.5 24l20 -5v0zM212.001 591.999h-15l-114 139h20
l103 -123l99 123h20z" />
    <glyph glyph-name="florin" unicode="&#x192;" horiz-adv-x="242" 
d="M274 709c-2.66699 1.33301 -7.99902 2.16797 -15.999 2.50098s-17 0.5 -27 0.5c-8 0 -16.167 -0.5 -24.5 -1.5s-16.333 -4.16699 -24 -9.5s-14.667 -13.333 -21 -24s-11.5 -25.667 -15.5 -45l-23 -118h120l-4 -20h-120l-118 -610
c-7.33301 -36.667 -20.5 -61.834 -39.5 -75.501s-40.167 -20.5 -63.5 -20.5l-1 20c8 0 16.167 0.5 24.5 1.5s16.333 4.16699 24 9.5s14.667 13.333 21 24s11.5 25.667 15.5 45l117 606h-120l4 20h120l24 122c7.33301 36.667 20.5 61.834 39.5 75.501s40.167 20.5 63.5 20.5
c15.333 0 25.666 -0.333008 30.999 -1s11 -1.33398 17 -2.00098z" />
    <glyph glyph-name="circumflex" unicode="&#x2c6;" horiz-adv-x="0" 
d="M370 570l-103 123l-99 -123h-21l113 139h15l115 -139h-20z" />
    <glyph glyph-name="caron" unicode="&#x2c7;" horiz-adv-x="0" 
d="M277 592h-15l-115 139h20l103 -123l99 123h21z" />
    <glyph glyph-name="breve" unicode="&#x2d8;" horiz-adv-x="0" 
d="M392 688c-4 -34 -17.4961 -60.333 -40.4961 -79s-51.5 -28 -85.5 -28c-32.667 0 -59.834 9.83301 -81.501 29.5s-34.834 45.5 -39.501 77.5h20c3.33301 -26 14.166 -47 32.499 -63s40.833 -24 67.5 -24c28.667 0 52.667 7 72 21s30.666 36 33.999 66h21v0z" />
    <glyph glyph-name="dotaccent" unicode="&#x2d9;" horiz-adv-x="0" 
d="M296 609c0 -7.33301 -2.66699 -13.666 -8 -18.999s-11.666 -8 -18.999 -8s-13.833 2.66699 -19.5 8s-8.5 11.666 -8.5 18.999s2.66699 13.666 8 18.999s11.666 8 18.999 8s13.833 -2.66699 19.5 -8s8.5 -11.666 8.5 -18.999z" />
    <glyph glyph-name="ring" unicode="&#x2da;" horiz-adv-x="0" 
d="M337 674c0 18.667 -6.66602 34.667 -19.999 48s-29.333 20 -48 20s-34.834 -6.66699 -48.501 -20s-20.5 -29.333 -20.5 -48s6.66699 -34.667 20 -48s29.333 -20 48 -20s34.667 6.66699 48 20s20 29.333 20 48h1zM357.001 674c0 -12 -2.33301 -23.333 -7 -34
s-11 -20 -19 -28s-17.333 -14.333 -28 -19s-22 -7 -34 -7s-23.333 2.33301 -34 7s-20 11 -28 19s-14.5 17.333 -19.5 28s-7.5 22 -7.5 34s2.33301 23.333 7 34s11 20 19 28s17.333 14.333 28 19s22 7 34 7s23.333 -2.33301 34 -7s20 -11 28 -19s14.5 -17.333 19.5 -28
s7.5 -22 7.5 -34z" />
    <glyph glyph-name="ogonek" unicode="&#x2db;" horiz-adv-x="0" 
d="M353 -150c-13.333 -15.333 -28.333 -25.6699 -45 -31.0029s-33 -8 -49 -8c-25.333 0 -44.166 6.5 -56.499 19.5s-18.5 27.167 -18.5 42.5c0 12.667 3 24.834 9 36.501s13.667 22.834 23 33.501s19.666 20.834 30.999 30.501s22.666 18.5 33.999 26.5h29
c-38 -29.333 -65.167 -53.5 -81.5 -72.5s-24.5 -36.833 -24.5 -53.5c0 -10.667 4.5 -20.5 13.5 -29.5s22.833 -13.5 41.5 -13.5c21.333 0 37.833 3.33301 49.5 10s20.834 13.667 27.501 21l17 -12v0z" />
    <glyph glyph-name="tilde" unicode="&#x2dc;" horiz-adv-x="0" 
d="M401 656c0 -19.333 -5.66699 -36.667 -17 -52s-28.666 -23 -51.999 -23c-12.667 0 -24.334 3 -35.001 9s-21 12.667 -31 20s-20 14 -30 20s-20.333 9 -31 9c-7.33301 0 -13.833 -1.83301 -19.5 -5.5s-10.667 -8.5 -15 -14.5s-7.66602 -12.5 -9.99902 -19.5
s-3.5 -13.5 -3.5 -19.5h-21c0 9.33301 1.83301 18.666 5.5 27.999s8.66699 17.833 15 25.5s13.666 13.834 21.999 18.501s16.833 7 25.5 7c11.333 0 22.5 -3 33.5 -9s21.833 -12.667 32.5 -20s21 -14 31 -20s20 -9 30 -9c15.333 0 27.333 5.66699 36 17s13 24 13 38h21v0z
" />
    <glyph glyph-name="hungarumlaut" unicode="&#x2dd;" horiz-adv-x="0" 
d="M128 565h-15l132 144h29zM278 565h-15l132 144h29z" />
    <glyph glyph-name="pi" unicode="&#x3c0;" horiz-adv-x="527" 
d="M470 246c0 30 -3.83301 60.501 -11.5 91.501s-20 59 -37 84s-39.667 45.333 -68 61s-62.833 23.5 -103.5 23.5c-21.333 0 -42.5 -3.83301 -63.5 -11.5s-39.833 -18.167 -56.5 -31.5s-30.167 -29 -40.5 -47s-15.5 -37.333 -15.5 -58v-183c0 -26 5 -49.167 15 -69.5
s23.667 -37.833 41 -52.5s37.333 -25.834 60 -33.501s46.667 -11.5 72 -11.5c34 0 64 6.5 90 19.5s47.667 30.5 65 52.5s30.5 47.333 39.5 76s13.5 58.667 13.5 90zM490 246.001c0 -35.333 -5 -68.4971 -15 -99.4971s-24.667 -58.333 -44 -82
s-43.166 -42.334 -71.499 -56.001s-60.833 -20.5 -97.5 -20.5c-44 0 -82.167 9.66699 -114.5 29s-56.833 46.666 -73.5 81.999v-305h-20v926h20v-295c17.333 33.333 41.666 58.5 72.999 75.5s65.666 25.5 102.999 25.5c41.333 0 77 -7.66699 107 -23
s54.833 -35.833 74.5 -61.5s34.334 -55.334 44.001 -89.001s14.5 -69.167 14.5 -106.5z" />
    <glyph glyph-name="endash" unicode="&#x2013;" horiz-adv-x="590" 
d="M45 258v20h500v-20h-500z" />
    <glyph glyph-name="emdash" unicode="&#x2014;" horiz-adv-x="1090" 
d="M45 258v20h1000v-20h-1000z" />
    <glyph glyph-name="quoteleft" unicode="&#x2018;" horiz-adv-x="130" 
d="M113 527l-113 195l17 10l113 -195z" />
    <glyph glyph-name="quoteright" unicode="&#x2019;" horiz-adv-x="130" 
d="M17 527l-17 10l112 195l18 -10z" />
    <glyph glyph-name="quotesinglbase" unicode="&#x201a;" horiz-adv-x="130" 
d="M17 -105l-17 10l112 195l18 -10z" />
    <glyph glyph-name="quotedblleft" unicode="&#x201c;" horiz-adv-x="207" 
d="M113 527l-113 195l17 10l113 -195zM190 527l-113 195l17 10l113 -195z" />
    <glyph glyph-name="quotedblright" unicode="&#x201d;" horiz-adv-x="207" 
d="M17 527l-17 10l112 195l18 -10zM94 527l-17 10l112 195l18 -10z" />
    <glyph glyph-name="quotedblbase" unicode="&#x201e;" horiz-adv-x="208" 
d="M17 -105l-17 10l112 195l18 -10zM95 -105l-17 10l112 195l18 -10z" />
    <glyph glyph-name="dagger" unicode="&#x2020;" horiz-adv-x="526" 
d="M273 451l5 -657h-30l5 657l-208 -5v30l208 -5l-5 249h30l-5 -249l208 5v-30z" />
    <glyph glyph-name="daggerdbl" unicode="&#x2021;" horiz-adv-x="526" 
d="M273 57l5 -263h-30l5 263l-208 -5v30l208 -5v420l-208 -5v30l208 -5l-5 203h30l-5 -203l208 5v-30l-208 5v-420l208 5v-30z" />
    <glyph glyph-name="bullet" unicode="&#x2022;" horiz-adv-x="253" 
d="M216 360c0 -25.333 -8.66895 -46.666 -26.002 -63.999s-38.666 -26 -63.999 -26c-24.667 0 -45.667 8.66699 -63 26s-26 38.666 -26 63.999c0 24.667 8.5 45.667 25.5 63s38.167 26 63.5 26c24.667 0 45.834 -8.66699 63.501 -26s26.5 -38.333 26.5 -63z" />
    <glyph glyph-name="ellipsis" unicode="&#x2026;" horiz-adv-x="1000" 
d="M194 27c0 -7.33301 -2.66699 -13.666 -8 -18.999s-11.666 -8 -18.999 -8s-13.666 2.66699 -18.999 8s-8 11.666 -8 18.999s2.66699 13.666 8 18.999s11.666 8 18.999 8s13.666 -2.66699 18.999 -8s8 -11.666 8 -18.999zM527 27c0 -7.33301 -2.66699 -13.666 -8 -18.999
s-11.666 -8 -18.999 -8s-13.666 2.66699 -18.999 8s-8 11.666 -8 18.999s2.66699 13.666 8 18.999s11.666 8 18.999 8s13.666 -2.66699 18.999 -8s8 -11.666 8 -18.999zM860 27c0 -7.33301 -2.66699 -13.666 -8 -18.999s-11.666 -8 -18.999 -8s-13.666 2.66699 -18.999 8
s-8 11.666 -8 18.999s2.66699 13.666 8 18.999s11.666 8 18.999 8s13.666 -2.66699 18.999 -8s8 -11.666 8 -18.999z" />
    <glyph glyph-name="perthousand" unicode="&#x2030;" 
d="M440 545c0 -60.667 -15.3301 -107.832 -45.9971 -141.499s-76.334 -51.5 -137.001 -53.5v-350h-20v350c-60.667 2 -106.334 19.833 -137.001 53.5s-46 80.834 -46 141.501v175h20v-152c0 -32 3 -60.333 9 -85s15.667 -45.334 29 -62.001s31.166 -29.334 53.499 -38.001
s49.5 -13 81.5 -13c32.667 0 60 4.33301 82 13s39.667 21.5 53 38.5s23 37.667 29 62s9 52.5 9 84.5v152h20v-175v0zM229.003 787.002h-15l132 144h29z" />
    <glyph glyph-name="guilsinglleft" unicode="&#x2039;" horiz-adv-x="193" 
d="M45 352v16l103 139v-35l-83 -112l83 -112v-35z" />
    <glyph glyph-name="guilsinglright" unicode="&#x203a;" horiz-adv-x="193" 
d="M45 213v35l83 112l-83 112v35l103 -139v-16z" />
    <glyph glyph-name="fraction" unicode="&#x2044;" horiz-adv-x="167" 
d="M-135 0h-23l458 720h23z" />
    <glyph glyph-name="trademark" unicode="&#x2122;" horiz-adv-x="800" 
d="M188 700l0.000976562 -376h-20v376h-70c-19.333 0 -30.833 -3.5 -34.5 -10.5s-5.5 -16.167 -5.5 -27.5l-20 5c0 15.333 4.16699 28 12.5 38s23.166 15 44.499 15h224v-20h-131zM726.001 324v283c0 34 -6.66699 59.667 -20 77s-37 26 -71 26s-57.5 -8.66699 -70.5 -26
s-19.5 -43 -19.5 -77v-283h-20v283c0 34 -6.66699 59.667 -20 77s-37 26 -71 26s-57.667 -8.66699 -71 -26s-20 -43 -20 -77v-283h-20v296c0 34.667 9.5 61.5 28.5 80.5s46.5 28.5 82.5 28.5c50 0 83.667 -18.333 101 -55c17.333 36.667 50.666 55 99.999 55
c36.667 0 64.334 -9.5 83.001 -28.5s28 -45.833 28 -80.5v-296h-20z" />
    <glyph glyph-name="Omega" unicode="&#x2126;" horiz-adv-x="407" 
d="M407 84c0 -23.333 -6.83203 -43.167 -20.499 -59.5s-38.834 -24.5 -75.501 -24.5h-306v25l360 469h-333v20h354v-25l-360 -469h281c19.333 0 34.333 2.16699 45 6.5s18.667 9.83301 24 16.5s8.5 14 9.5 22s1.5 16 1.5 24l20 -5v0zM212.001 591.999h-15l-114 139h20
l103 -123l99 123h20z" />
    <glyph glyph-name="partialdiff" unicode="&#x2202;" horiz-adv-x="498" 
d="M444 -17c0 -70.667 -18.833 -122.67 -56.5 -156.003s-90.167 -50 -157.5 -50c-26 0 -50.667 3 -74 9s-44 15.5 -62 28.5s-32.333 29.833 -43 50.5s-16.334 45.334 -17.001 74.001h20c0.666992 -25.333 5.83398 -47 15.501 -65s22.5 -32.667 38.5 -44
s34.333 -19.666 55 -24.999s42.667 -8 66 -8c62.667 0 110.834 15 144.501 45s50.5 77 50.5 141v144c-11.333 -45.333 -34 -79.833 -68 -103.5s-73.667 -35.5 -119 -35.5c-56.667 0 -101.334 16.667 -134.001 50s-49 78.333 -49 135v341h20v-338c0 -52 14.167 -93 42.5 -123
s68.5 -45 120.5 -45c30.667 0 57.667 5.83301 81 17.5s42.833 27.334 58.5 47.001s27.5 42.5 35.5 68.5s12 53.333 12 82v291h20v-531v0zM204 586.997h-15l132 144h29z" />
    <glyph glyph-name="Delta" unicode="&#x2206;" horiz-adv-x="510" 
d="M282 592h-15l-114 139h20l103 -123l99 123h20zM473 175c-2.66699 -28.667 -9.66797 -54.501 -21.001 -77.501s-26 -42.667 -44 -59s-39.167 -28.833 -63.5 -37.5s-50.833 -13 -79.5 -13c-37.333 0 -70.166 7 -98.499 21s-52 32.833 -71 56.5s-33.5 51 -43.5 82
s-15 63.833 -15 98.5c0 37.333 4.83301 73 14.5 107s24.334 63.833 44.001 89.5s44.5 46 74.5 61s65.667 22.5 107 22.5c25.333 0 49.333 -4 72 -12s42.667 -19.167 60 -33.5s31.5 -31.833 42.5 -52.5s18.167 -44 21.5 -70h-20c-7.33301 46.667 -26.833 83 -58.5 109
s-70.834 39 -117.501 39c-38 0 -70.833 -7 -98.5 -21s-50.5 -33 -68.5 -57s-31.333 -51.667 -40 -83s-13 -64.333 -13 -99c0 -31.333 4.5 -61.333 13.5 -90s22.167 -54 39.5 -76s39 -39.5 65 -52.5s56 -19.5 90 -19.5c25.333 0 49 3.83301 71 11.5s41.333 18.834 58 33.501
s30.167 32.167 40.5 52.5s16.5 43.5 18.5 69.5h20v0z" />
    <glyph glyph-name="product" unicode="&#x220f;" 
d="M437 401c0 56.667 -16.333 100 -49 130s-82 45 -148 45h-166v-349h166c28 0 54 3.83301 78 11.5s44.833 19 62.5 34s31.5 33.167 41.5 54.5s15 46 15 74zM457 401c0 -31.333 -5.66699 -59.168 -17 -83.501s-27 -44.666 -47 -60.999s-44 -28.666 -72 -36.999
s-58.333 -12.5 -91 -12.5h-156v-207h-20v720h20v-124h166c68.667 0 122 -16.333 160 -49s57 -81.334 57 -146.001z" />
    <glyph glyph-name="summation" unicode="&#x2211;" horiz-adv-x="519" 
d="M529 84c0 -23.333 -6.83203 -43.167 -20.499 -59.5s-38.834 -24.5 -75.501 -24.5h-433v27l504 673h-471v20h491v-27l-504 -673h409c19.333 0 34.333 2.16699 45 6.5s18.667 9.83301 24 16.5s8.5 14 9.5 22s1.5 16 1.5 24l20 -5v0zM278.001 791.999h-15l-114 139h20
l103 -123l99 123h20z" />
    <glyph glyph-name="minus" unicode="&#x2212;" horiz-adv-x="594" 
d="M45 350v20h504v-20h-504z" />
    <glyph glyph-name="radical" unicode="&#x221a;" horiz-adv-x="537" 
d="M480 247c0 31.333 -4.66699 61.5 -14 90.5s-23 54.5 -41 76.5s-40 39.5 -66 52.5s-56 19.5 -90 19.5s-64.167 -6.5 -90.5 -19.5s-48.5 -30.5 -66.5 -52.5s-31.667 -47.333 -41 -76s-14 -59 -14 -91s4.66699 -62.5 14 -91.5s23 -54.333 41 -76s40.167 -39 66.5 -52
s56.5 -19.5 90.5 -19.5s64.167 6.5 90.5 19.5s48.333 30.5 66 52.5s31.167 47.5 40.5 76.5s14 59.167 14 90.5zM500 247c0 -34.667 -5.16699 -67.666 -15.5 -98.999s-25.333 -58.833 -45 -82.5s-44 -42.5 -73 -56.5s-61.833 -21 -98.5 -21c-37.333 0 -70.333 7 -99 21
s-52.667 32.833 -72 56.5s-34.166 51.167 -44.499 82.5s-15.5 64.333 -15.5 99s5.16699 67.667 15.5 99s25.333 58.833 45 82.5s43.834 42.5 72.501 56.5s61.667 21 99 21c31.333 0 62.166 -6.33301 92.499 -19s55.166 -31.667 74.499 -57
c-9.33301 18 -20.5 36.667 -33.5 56s-27 38.166 -42 56.499s-30.5 35.833 -46.5 52.5s-31.667 31.667 -47 45l-122 -68l-15 15l121 67c-29.333 22.667 -60.333 42.667 -93 60l16 14c35.333 -18.667 67.333 -40 96 -64l123 68l15 -16l-120 -67c30 -28 58 -56.5 84 -85.5
s48.5 -59.833 67.5 -92.5s33.833 -67.5 44.5 -104.5s16 -76.833 16 -119.5z" />
    <glyph glyph-name="infinity" unicode="&#x221e;" horiz-adv-x="128" 
d="M54 0v274h20v-274h-20zM54 446v274h20v-274h-20z" />
    <glyph glyph-name="integral" unicode="&#x222b;" horiz-adv-x="703" 
d="M380 792h-15l-115 139h20l103 -123l99 123h20zM666 280c-6 -42.667 -16.6709 -82.1641 -32.0039 -118.497s-35.833 -67.666 -61.5 -93.999s-56.167 -47 -91.5 -62s-75.666 -22.5 -120.999 -22.5c-52 0 -98 10.333 -138 31s-73.833 48.167 -101.5 82.5
s-48.5 73.833 -62.5 118.5s-21 91 -21 139c0 50.667 7.16699 99.167 21.5 145.5s35.666 87.166 63.999 122.499s63.5 63.333 105.5 84s90.333 31 145 31c32 0 64.833 -5.5 98.5 -16.5s64.667 -26.5 93 -46.5s52 -44.333 71 -73s29.167 -60.334 30.5 -95.001h-20
c-3.33301 32.667 -13.666 62.167 -30.999 88.5s-38.833 48.5 -64.5 66.5s-54 31.833 -85 41.5s-61.833 14.5 -92.5 14.5c-51.333 0 -96.5 -10 -135.5 -30s-72 -46.833 -99 -80.5s-47.333 -72.334 -61 -116.001s-20.5 -89.167 -20.5 -136.5c0 -45.333 6.66699 -89 20 -131
s32.833 -79.333 58.5 -112s57.334 -58.834 95.001 -78.501s80.834 -29.5 129.501 -29.5c42.667 0 80.5 7 113.5 21s61.333 33.167 85 57.5s42.834 53.5 57.501 87.5s24.667 71 30 111h20v0z" />
    <glyph glyph-name="approxequal" unicode="&#x2248;" horiz-adv-x="408" 
d="M394 156l-191 192l-189 -192l-14 14l190 190l-190 190l14 14l189 -192l191 192l14 -13l-191 -190l191 -190z" />
    <glyph glyph-name="notequal" unicode="&#x2260;" horiz-adv-x="594" 
d="M45 350v20h504v-20h-504z" />
    <glyph glyph-name="lessequal" unicode="&#x2264;" horiz-adv-x="570" 
d="M547 177c0 -34 -6.50293 -63.165 -19.5029 -87.498s-30.333 -44.333 -52 -60s-46.5 -27.334 -74.5 -35.001s-57.333 -11.5 -88 -11.5c-40.667 0 -79.167 4.83301 -115.5 14.5s-68 24.834 -95 45.501s-48.333 47.167 -64 79.5s-23.167 71.166 -22.5 116.499h20
c0 -42.667 7.33301 -79 22 -109s34.5 -54.333 59.5 -73s54.333 -32.334 88 -41.001s69.5 -13 107.5 -13c28 0 54.833 3.33301 80.5 10s48.5 17 68.5 31s35.833 32 47.5 54s17.5 48.333 17.5 79c0 36 -7.83301 64.667 -23.5 86s-35.667 38.166 -60 50.499
s-51.333 21.833 -81 28.5l-85.5 20c-29.333 6.66699 -58.166 13.834 -86.499 21.501s-54 18 -77 31s-41.5 30.167 -55.5 51.5s-21 49.666 -21 84.999s7.33301 65 22 89s33.667 43.167 57 57.5s49.5 24.5 78.5 30.5s57.833 9 86.5 9c34.667 0 67 -3.83301 97 -11.5
s56.167 -20.167 78.5 -37.5s40.166 -40 53.499 -68s21 -62 23 -102h-20c-1.33301 36.667 -8.16602 67.667 -20.499 93s-28.666 45.833 -48.999 61.5s-44.5 27 -72.5 34s-58 10.5 -90 10.5c-25.333 0 -51.166 -2.66699 -77.499 -8s-50.333 -14.166 -72 -26.499
s-39.5 -29.166 -53.5 -50.499s-21 -48 -21 -80s7.16699 -57.833 21.5 -77.5s33 -35.5 56 -47.5s49.167 -21.5 78.5 -28.5l90 -21.5c33.333 -8 64.833 -16 94.5 -24s55.5 -18.833 77.5 -32.5s39.5 -31.834 52.5 -54.501s19.5 -52.667 19.5 -90v1zM293.997 792.002h-15
l-114 139h20l103 -123l99 123h20z" />
    <glyph glyph-name="greaterequal" unicode="&#x2265;" horiz-adv-x="434" 
d="M411 131c0 -26 -5.50488 -47.998 -16.5049 -65.998s-25.333 -32.667 -43 -44s-37.667 -19.666 -60 -24.999s-44.5 -8 -66.5 -8c-68 0 -119.667 15.167 -155 45.5s-53 77.833 -53 142.5h20c0 -57.333 16.333 -99.666 49 -126.999s79 -41 139 -41
c18.667 0 37.834 2.16699 57.501 6.5s37.5 11.333 53.5 21s29.167 22.167 39.5 37.5s15.5 34 15.5 56c0 22.667 -5.16699 41 -15.5 55s-23.666 25.5 -39.999 34.5s-35.166 16.167 -56.499 21.5l-65 16l-63.5 15.5c-21 5 -40 12.333 -57 22s-30.667 22.5 -41 38.5
s-15.5 37.667 -15.5 65c0 14 3 28.667 9 44s16 29.333 30 42s32 23 54 31s49 12 81 12c57.333 0 102.666 -13 135.999 -39s50 -67.667 50 -125h-20c0 26 -4 48 -12 66s-19.333 32.833 -34 44.5s-32.167 20.167 -52.5 25.5s-42.833 8 -67.5 8
c-36 0 -64.333 -4.83301 -85 -14.5s-36 -20.834 -46 -33.501s-16.333 -24.834 -19 -36.501s-4 -19.834 -4 -24.501c0 -25.333 6.33301 -45.333 19 -60s28.334 -26.167 47.001 -34.5s39 -14.833 61 -19.5s42.667 -9.33398 62 -14.001l59.5 -16.5
c19.667 -5.66699 37.334 -13.5 53.001 -23.5s28.334 -22.667 38.001 -38s14.5 -35.333 14.5 -60zM224.995 592.002h-15l-114 139h20l103 -123l99 123h20z" />
    <glyph glyph-name="lozenge" unicode="&#x25ca;" 
d="M437 360c0 48 -5.33398 92.835 -16.001 134.502s-27.5 77.667 -50.5 108s-52.833 54.166 -89.5 71.499s-81 26 -133 26h-74v-318h187v-20h-187v-342h53c50.667 0 95.334 8.66699 134.001 26s71 41.166 97 71.499s45.667 66.333 59 108s20 86.5 20 134.5zM456.999 360.002
c0 -52.667 -7.33203 -101 -21.999 -145s-36.167 -82 -64.5 -114s-63.333 -56.833 -105 -74.5s-89.5 -26.5 -143.5 -26.5h-68v362h-64v20h64v338h99c54 0 100.167 -9.5 138.5 -28.5s69.666 -44.667 93.999 -77s42.333 -70.333 54 -114s17.5 -90.5 17.5 -140.5z" />
    <glyph glyph-name="apple" unicode="&#xf8ff;" 
d="M494 84c0 -23.333 -6.83203 -43.167 -20.499 -59.5s-38.834 -24.5 -75.501 -24.5h-344v269l-54 -38v24l54 38v427h20v-413l191 134v-24l-191 -134v-263h320c19.333 0 34.333 2.16699 45 6.5s18.667 9.83301 24 16.5s8.5 14 9.5 22s1.5 16 1.5 24l20 -5v0z" />
    <glyph glyph-name="fi" unicode="&#xfb01;" horiz-adv-x="256" 
d="M182 0l0.000976562 494h-108v-494h-20v494h-54v20h54v122c0 36.667 8.16699 61.834 24.5 75.501s36.166 20.5 59.499 20.5c15.333 0 25.833 -0.333008 31.5 -1l17.5 -2v-20c-3.33301 1.33301 -9 2.16602 -17 2.49902s-17 0.5 -27 0.5c-8 0 -16 -0.5 -24 -1.5
s-15.333 -4.16699 -22 -9.5s-12.167 -13.333 -16.5 -24s-6.5 -25.667 -6.5 -45v-118h128v-514h-20z" />
    <glyph glyph-name="fl" unicode="&#xfb02;" horiz-adv-x="256" 
d="M182 0v710c-4 0.666992 -9.5 1.16699 -16.5 1.5s-14.5 0.5 -22.5 0.5s-16 -0.5 -24 -1.5s-15.333 -4.16699 -22 -9.5s-12.167 -13.333 -16.5 -24s-6.5 -25.667 -6.5 -45v-118h54v-20h-54v-494h-20v494h-54v20h54v122c0 36.667 8.16699 61.834 24.5 75.501
s36.166 20.5 59.499 20.5c6.66699 0 12.334 0.166992 17.001 0.5s9.66699 -0.166992 15 -1.5c4.66699 -0.666992 9 -1.33398 13 -2.00098c3.33301 -0.666992 6.83301 -1.16699 10.5 -1.5s6.5 -0.833008 8.5 -1.5v-726h-20z" />
    <glyph glyph-name="NULL" horiz-adv-x="0" 
 />
    </font>
</defs>
</svg>
